<?xml version="1.0" standalone="no"?>
<!DOCTYPE svg PUBLIC "-//W3C//DTD SVG 20010904//EN"
 "http://www.w3.org/TR/2001/REC-SVG-20010904/DTD/svg10.dtd">
<svg version="1.0" xmlns="http://www.w3.org/2000/svg"
 width="700.000000pt" height="700.000000pt" viewBox="0 0 700.000000 700.000000"
 preserveAspectRatio="xMidYMid meet">
<metadata>
Created by potrace 1.14, written by Peter Selinger 2001-2017
</metadata>
<g transform="translate(0.000000,700.000000) scale(0.100000,-0.100000)"
fill="#000000" stroke="none">
<path d="M595 6975 c-170 -31 -309 -114 -422 -250 -190 -230 -206 -573 -39
-823 32 -48 379 -400 1214 -1232 851 -848 1166 -1169 1158 -1177 -6 -6 -531
-532 -1167 -1169 -635 -638 -1169 -1177 -1186 -1199 -85 -111 -134 -265 -134
-415 0 -198 72 -365 217 -505 77 -75 149 -118 261 -158 82 -29 97 -32 218 -31
111 1 141 4 207 26 177 59 80 -33 1661 1552 797 798 1465 1476 1486 1506 126
183 162 382 108 596 -12 48 -62 152 -97 203 -21 31 -168 187 -328 346 -1990
1987 -2604 2595 -2652 2626 -146 95 -338 135 -505 104z"/>
<path d="M3438 6985 c-2 -2 -19 -5 -38 -8 -96 -13 -183 -46 -270 -102 -204
-131 -321 -344 -322 -585 0 -152 37 -276 120 -397 23 -34 529 -547 1206 -1223
641 -640 1166 -1167 1166 -1170 0 -3 -525 -530 -1166 -1170 -1170 -1170 -1220
-1222 -1272 -1341 -112 -258 -52 -570 148 -769 88 -87 173 -140 285 -177 70
-23 96 -27 210 -27 114 0 140 4 210 27 170 57 87 -21 1675 1567 1105 1105
1473 1479 1499 1522 18 32 47 97 64 145 27 78 31 102 31 203 1 63 -2 134 -6
158 -11 63 -56 169 -103 242 -31 49 -413 437 -1486 1509 -794 794 -1463 1457
-1487 1473 -60 41 -156 85 -229 103 -52 13 -226 28 -235 20z"/>
<path d="M6173 6735 c-282 -76 -421 -384 -296 -652 30 -66 111 -155 172 -191
194 -115 446 -80 589 83 169 192 155 481 -31 651 -119 109 -282 150 -434 109z"/>
<path d="M626 3953 c-272 -55 -433 -328 -352 -595 87 -288 439 -413 697 -247
134 86 212 240 205 408 -6 148 -72 271 -191 355 -110 78 -230 105 -359 79z"/>
<path d="M6200 1165 c-85 -17 -166 -62 -231 -125 -154 -151 -183 -392 -69
-575 84 -133 230 -216 384 -217 270 -3 481 212 471 480 -9 285 -276 495 -555
437z"/>
</g>
</svg>
