<svg width="339" height="368" viewBox="0 0 339 368" fill="none" xmlns="http://www.w3.org/2000/svg">
<path d="M187.809 158.07L206.651 175.467L323.189 255.28C323.189 255.28 311.85 355.346 324.451 355.346C337.052 355.346 338.185 348.791 338.185 348.791V236.003C338.185 229.657 331.845 225.708 331.845 225.708C331.845 225.708 205.677 153.226 201.851 150.978C198.025 148.73 196.306 150.978 196.306 150.978L187.779 157.145L187.829 158.06L187.809 158.07Z" fill="#FFEFD4" stroke="black" stroke-miterlimit="10"/>
<path d="M188.505 265.426L188.584 240.519V161.531C188.584 161.531 189.071 158.01 192.202 157.761C195.332 157.513 324.034 235.247 324.034 235.247C324.034 235.247 328.357 237.843 328.357 244.398V347.209C328.357 347.209 328.725 351.566 324.183 351.566C320.129 351.566 215.038 289.726 192.649 276.517C192.649 276.517 188.505 273.214 188.505 265.416V265.426Z" fill="#EEA7AB" stroke="black" stroke-width="8" stroke-miterlimit="10"/>
<mask id="mask0_1_6933" style="mask-type:luminance" maskUnits="userSpaceOnUse" x="240" y="231" width="22" height="7">
<path d="M247.361 232.358L240.493 236.351C244.134 234.231 249.182 234.529 254.746 237.746L261.614 233.753C256.05 230.536 251.002 230.239 247.361 232.358Z" fill="white"/>
</mask>
<g mask="url(#mask0_1_6933)">
<path d="M254.746 237.746L261.614 233.753C256.05 230.536 251.002 230.239 247.361 232.358L240.493 236.351C244.134 234.231 249.182 234.529 254.746 237.746Z" fill="#111010" stroke="#D8E3E3" stroke-miterlimit="10"/>
</g>
<path d="M247.361 232.358L240.493 236.351C244.134 234.232 249.182 234.529 254.746 237.747L261.614 233.754C256.05 230.536 251.002 230.239 247.361 232.358Z" stroke="#111010" stroke-miterlimit="10"/>
<mask id="mask1_1_6933" style="mask-type:luminance" maskUnits="userSpaceOnUse" x="254" y="233" width="28" height="53">
<path d="M268.857 285.194L275.725 281.201C279.327 279.108 281.547 274.663 281.573 268.357C281.612 255.616 272.665 240.135 261.614 233.752L254.746 237.745C265.797 244.128 274.744 259.609 274.705 272.35C274.692 278.656 272.459 283.101 268.857 285.194Z" fill="white"/>
</mask>
<g mask="url(#mask1_1_6933)">
<path d="M268.857 285.194L275.725 281.201C279.327 279.108 281.547 274.663 281.573 268.357C281.612 255.616 272.665 240.135 261.614 233.752L254.746 237.745C265.797 244.128 274.744 259.609 274.705 272.35C274.692 278.656 272.459 283.101 268.857 285.194Z" fill="#111010" stroke="#D8E3E3" stroke-miterlimit="10"/>
</g>
<path d="M268.857 285.197L275.725 281.204C279.327 279.111 281.547 274.666 281.573 268.36C281.612 255.619 272.665 240.138 261.614 233.755L254.746 237.748C265.797 244.131 274.744 259.612 274.705 272.353C274.692 278.659 272.459 283.104 268.857 285.197Z" stroke="#111010" stroke-miterlimit="10"/>
<path d="M254.746 237.748C243.695 231.365 234.697 236.469 234.658 249.21C234.62 261.912 243.566 277.419 254.617 283.802C265.668 290.186 274.666 285.043 274.705 272.34C274.744 259.599 265.797 244.119 254.746 237.735V237.748Z" fill="#E8BB52" stroke="#111010" stroke-miterlimit="10"/>
<path d="M251.826 253.64L249.383 265.042L263.108 265.817C263.108 265.817 252.039 252.708 251.826 253.64Z" fill="#111010"/>
<path d="M91.3871 296.702L103.829 289.461C98.3434 286.288 93.8615 278.529 93.8814 272.213L81.4395 279.454C81.4196 285.77 85.9015 293.529 91.3871 296.702Z" fill="#333333"/>
<path d="M199.637 359.257L212.079 352.016L103.839 289.47L91.3867 296.701L199.637 359.257Z" fill="#333333"/>
<path d="M215.747 354.681C213.928 355.765 214.862 353.627 212.07 352.025L199.628 359.266C202.41 360.878 204.945 361.007 206.763 359.923C210.5 357.755 212.01 356.859 215.747 354.681Z" fill="#333333"/>
<path d="M206.733 359.944L219.174 352.702C220.973 351.658 218.618 351.449 218.628 348.306L209.644 353.548C209.644 356.681 208.521 358.899 206.723 359.944H206.733Z" fill="#333333"/>
<path d="M81.4395 279.454L93.8813 272.222L94.5472 46.1006L82.1053 53.3419L81.4395 279.454Z" fill="#333333"/>
<path d="M94.5475 46.102C94.5475 42.9887 92.1923 42.7897 93.9612 41.7354L84.9776 46.9773C83.2087 48.0317 82.1056 50.23 82.0957 53.3433C85.8322 51.1749 90.811 48.2804 94.5376 46.102H94.5475Z" fill="#333333"/>
<path d="M94.01 41.7055L85.0264 46.9475C86.845 45.8931 89.3592 46.0324 92.1218 47.6239L101.105 42.3819C98.3428 40.7804 95.8285 40.6412 94.01 41.7055Z" fill="#333333"/>
<path d="M209.645 353.548L218.628 348.306L219.294 122.194L210.31 127.426L209.645 353.548Z" fill="#333333"/>
<path d="M200.363 110.178L209.346 104.936L101.106 42.3906L92.1221 47.6227L200.363 110.178Z" fill="#F3EADA" stroke="#111010" stroke-miterlimit="10"/>
<path d="M210.311 127.426L219.294 122.184C219.314 115.868 214.832 108.11 209.347 104.937L200.363 110.179C205.849 113.352 210.331 121.11 210.311 127.426Z" fill="#F3EADA" stroke="#111010" stroke-miterlimit="10"/>
<path d="M90.4631 35.4891C92.7388 34.1662 95.8791 34.3452 99.3275 36.3445L211.155 100.969C218.012 104.938 223.607 114.636 223.587 122.524L222.912 352.933C222.902 356.852 221.5 359.617 219.264 360.92L210.281 366.162C212.527 364.859 213.918 362.094 213.928 358.175L214.604 127.766C214.624 119.878 209.029 110.17 202.172 106.211L90.3438 41.5766C86.8955 39.5773 83.7552 39.4082 81.4795 40.7211L90.4631 35.4792V35.4891Z" fill="#F3EADA"/>
<mask id="mask2_1_6933" style="mask-type:luminance" maskUnits="userSpaceOnUse" x="81" y="34" width="143" height="333">
<path d="M90.4631 35.4911C92.7388 34.1681 95.8791 34.3472 99.3275 36.3465L211.155 100.971C218.012 104.94 223.607 114.638 223.587 122.526L222.912 352.935C222.902 356.854 221.5 359.619 219.264 360.922L210.281 366.164C212.527 364.861 213.918 362.096 213.928 358.177L214.604 127.768C214.624 119.88 209.029 110.172 202.172 106.213L90.3438 41.5785C86.8955 39.5792 83.7552 39.4101 81.4795 40.7231L90.4631 35.4811V35.4911Z" fill="white"/>
</mask>
<g mask="url(#mask2_1_6933)">
<path d="M81.4795 40.6832L92.7487 34.168H81.4795V40.6832Z" fill="#CDE3E3"/>
</g>
<path d="M90.4631 35.4891C92.7388 34.1662 95.8791 34.3452 99.3275 36.3445L211.155 100.969C218.012 104.938 223.607 114.636 223.587 122.524L222.912 352.933C222.902 356.852 221.5 359.617 219.264 360.92L210.281 366.162C212.527 364.859 213.918 362.094 213.928 358.175L214.604 127.766C214.624 119.878 209.029 110.17 202.172 106.211L90.3438 41.5766C86.8955 39.5773 83.7552 39.4082 81.4795 40.7212L90.4631 35.4792V35.4891Z" stroke="#111010" stroke-miterlimit="10"/>
<path d="M202.171 106.2C209.028 110.168 214.623 119.867 214.603 127.754L213.928 358.163C213.908 366.051 208.273 369.264 201.416 365.305L89.5883 300.68C82.7313 296.712 77.1364 287.013 77.1563 279.126L77.8321 48.7167C77.8519 40.8288 83.4866 37.616 90.3435 41.5748L202.171 106.2Z" fill="#F3EADA" stroke="#111010" stroke-miterlimit="10"/>
<path d="M120.584 62.9591L92.0033 46.4374C86.5078 43.2643 82.0061 45.8406 81.9862 52.1469L81.3204 278.269C81.3005 284.585 85.7824 292.344 91.2679 295.517L199.508 358.072C205.004 361.245 209.506 358.669 209.526 352.363L210.191 126.241C210.211 119.925 205.729 112.166 200.244 108.993L171.663 92.4714C168.881 90.86 123.376 64.5606 120.584 62.9591Z" fill="black" stroke="#111010" stroke-miterlimit="10"/>
<path d="M213.967 341.59L222.95 336.407V337.611L213.967 342.803V341.59Z" fill="#323142"/>
<path d="M214.564 143.438L223.537 138.245V139.459L214.554 144.641L214.564 143.438Z" fill="#323142"/>
<path d="M115.704 179.714C117.573 178.629 120.147 178.779 122.989 180.41L158.257 200.791C163.892 204.044 168.483 212.011 168.463 218.486C168.463 221.709 167.31 223.977 165.472 225.051L161.219 227.528C163.057 226.454 164.21 224.186 164.21 220.963C164.23 214.478 159.639 206.52 154.004 203.268L118.735 182.887C115.903 181.245 113.319 181.106 111.451 182.19L115.704 179.714Z" fill="#F6E9DA" stroke="#111010" stroke-miterlimit="10"/>
<path d="M153.934 225.539L122.014 207.097C122.114 206.699 122.203 206.292 122.263 205.844C120.215 203.457 117.463 203.168 116.052 203.208C112.295 199.746 109.562 194.146 109.572 189.412C109.592 183.633 113.686 181.285 118.715 184.19L153.983 204.571C159.002 207.475 163.086 214.537 163.066 220.327C163.047 226.106 158.942 228.443 153.924 225.539H153.934Z" fill="#F6E9DA" stroke="#111010" stroke-miterlimit="10"/>
<path d="M118.725 184.189C113.696 181.285 109.592 183.622 109.582 189.412C109.562 195.191 113.647 202.253 118.665 205.157L153.934 225.539C158.952 228.443 163.056 226.105 163.076 220.326C163.096 214.547 159.012 207.475 153.993 204.571L118.725 184.189Z" fill="#E8BB52" stroke="#111010" stroke-miterlimit="10"/>
<g clip-path="url(#clip0_1_6933)">
<path d="M229.236 0L167.255 29.39L173.135 48.5132L229.236 0Z" fill="url(#paint0_linear_1_6933)"/>
<g style="mix-blend-mode:multiply">
<path d="M167.856 29.644L211.758 7.16406L227.895 1.04331L224.598 5.75344L173.394 47.655L167.856 29.644Z" fill="#CEE0DE" style="mix-blend-mode:multiply"/>
<path d="M167.856 29.644L211.758 7.16406L227.895 1.04331L224.598 5.75344L173.394 47.655L167.856 29.644Z" stroke="black"/>
</g>
<path d="M157.131 29.6054L151.803 24.6246L223.312 2.36735L168.152 29.6054H157.131Z" fill="white" stroke="black"/>
<path d="M229.236 0L179.024 36.3018L173.135 48.5132L229.236 0Z" fill="url(#paint1_linear_1_6933)"/>
<g style="mix-blend-mode:multiply">
<path d="M174.634 46.5558L179.42 36.6329L220.221 7.13444L174.634 46.5558Z" fill="#AAD1CD" style="mix-blend-mode:multiply"/>
<path d="M174.634 46.5558L179.42 36.6329L220.221 7.13444L174.634 46.5558Z" stroke="black"/>
</g>
<path d="M187.14 44.5805L179.768 36.3811L227.244 2.05728L196.269 47.9389L187.14 44.5805Z" fill="white" stroke="black"/>
<path d="M167.425 219.04C167.285 219.04 167.145 219 167.015 218.919C166.596 218.647 166.177 218.365 165.758 218.083C165.418 217.851 165.318 217.388 165.548 217.035C165.778 216.692 166.237 216.592 166.586 216.823C167.005 217.105 167.415 217.377 167.834 217.649C168.183 217.871 168.283 218.345 168.054 218.697C167.914 218.919 167.674 219.04 167.425 219.04Z" fill="url(#paint2_linear_1_6933)"/>
<mask id="path-39-outside-1_1_6933" maskUnits="userSpaceOnUse" x="138.024" y="49.8867" width="67" height="180" fill="black">
<rect fill="white" x="138.024" y="49.8867" width="67" height="180"/>
<path d="M192.58 229.236C192.361 229.236 192.131 229.236 191.912 229.226C191.502 229.206 191.173 228.863 191.193 228.44C191.203 228.027 191.562 227.694 191.972 227.715C192.96 227.755 193.918 227.705 194.797 227.563C195.206 227.503 195.585 227.785 195.655 228.198C195.715 228.611 195.435 228.994 195.026 229.065C194.258 229.186 193.439 229.246 192.59 229.246L192.58 229.236ZM188.977 228.904C188.977 228.904 188.897 228.904 188.847 228.893C187.899 228.732 186.9 228.5 185.872 228.218C185.473 228.108 185.243 227.694 185.353 227.291C185.463 226.888 185.872 226.647 186.272 226.768C187.25 227.04 188.208 227.261 189.097 227.412C189.506 227.483 189.775 227.876 189.706 228.289C189.646 228.662 189.326 228.914 188.967 228.914L188.977 228.904ZM197.751 228.228C197.462 228.228 197.192 228.057 197.073 227.785C196.903 227.402 197.073 226.959 197.452 226.788C198.3 226.405 199.059 225.901 199.718 225.276C200.017 224.994 200.497 225.014 200.776 225.317C201.056 225.619 201.036 226.103 200.736 226.385C199.957 227.11 199.059 227.715 198.061 228.158C197.961 228.198 197.861 228.228 197.751 228.228ZM183.247 227.332C183.167 227.332 183.077 227.322 182.997 227.291C182.089 226.959 181.141 226.586 180.182 226.183C179.803 226.022 179.623 225.579 179.783 225.196C179.943 224.813 180.382 224.632 180.761 224.793C181.69 225.196 182.608 225.558 183.486 225.871C183.876 226.012 184.075 226.445 183.936 226.838C183.826 227.15 183.536 227.342 183.227 227.342L183.247 227.332ZM177.767 224.994C177.657 224.994 177.547 224.974 177.437 224.924C176.569 224.501 175.67 224.037 174.762 223.553C174.392 223.362 174.263 222.899 174.452 222.536C174.642 222.173 175.101 222.032 175.461 222.223C176.359 222.707 177.237 223.15 178.086 223.574C178.455 223.755 178.615 224.208 178.435 224.581C178.306 224.853 178.036 225.004 177.757 225.004L177.767 224.994ZM202.054 224.239C201.934 224.239 201.804 224.208 201.684 224.138C201.325 223.936 201.195 223.473 201.395 223.11C201.824 222.344 202.184 221.458 202.443 220.501C202.553 220.098 202.972 219.866 203.361 219.977C203.761 220.088 203.99 220.511 203.881 220.904C203.581 221.982 203.182 222.969 202.693 223.846C202.553 224.087 202.303 224.229 202.044 224.229L202.054 224.239ZM172.516 222.183C172.386 222.183 172.266 222.153 172.146 222.082C171.308 221.589 170.449 221.075 169.571 220.531C169.222 220.309 169.112 219.846 169.321 219.493C169.541 219.14 170 219.03 170.35 219.241C171.218 219.775 172.057 220.289 172.885 220.763C173.244 220.974 173.364 221.438 173.165 221.79C173.025 222.032 172.775 222.173 172.516 222.173V222.183ZM203.721 218.516C203.721 218.516 203.671 218.516 203.641 218.516C203.232 218.475 202.932 218.103 202.972 217.69C203.052 216.954 203.082 216.168 203.082 215.372C203.082 215.181 203.082 214.979 203.082 214.778C203.082 214.365 203.401 214.012 203.811 214.002C204.25 214.012 204.569 214.324 204.579 214.737C204.579 214.949 204.579 215.151 204.579 215.362C204.579 216.208 204.539 217.045 204.46 217.831C204.42 218.224 204.09 218.506 203.711 218.506L203.721 218.516ZM203.621 212.521C203.252 212.521 202.922 212.239 202.882 211.856C202.773 210.919 202.623 209.942 202.433 208.944C202.353 208.531 202.623 208.138 203.022 208.057C203.421 207.977 203.821 208.249 203.901 208.652C204.1 209.69 204.25 210.707 204.37 211.675C204.42 212.088 204.12 212.46 203.711 212.511C203.681 212.511 203.651 212.511 203.621 212.511V212.521ZM202.513 206.627C202.184 206.627 201.874 206.395 201.784 206.063C201.545 205.136 201.275 204.168 200.986 203.211C200.866 202.808 201.085 202.385 201.475 202.264C201.874 202.143 202.293 202.365 202.413 202.758C202.713 203.745 202.992 204.733 203.242 205.69C203.342 206.093 203.102 206.506 202.703 206.607C202.643 206.627 202.583 206.627 202.513 206.627ZM200.756 200.884C200.447 200.884 200.157 200.692 200.047 200.38C199.718 199.463 199.369 198.536 198.999 197.599C198.839 197.216 199.029 196.773 199.408 196.612C199.788 196.451 200.227 196.642 200.387 197.025C200.766 197.982 201.125 198.929 201.465 199.856C201.605 200.249 201.405 200.682 201.016 200.823C200.936 200.854 200.846 200.864 200.766 200.864L200.756 200.884ZM198.53 195.312C198.241 195.312 197.971 195.141 197.851 194.869C197.462 193.982 197.043 193.075 196.603 192.168C196.424 191.796 196.573 191.342 196.953 191.161C197.322 190.98 197.771 191.141 197.951 191.514C198.4 192.441 198.819 193.357 199.219 194.264C199.388 194.647 199.219 195.09 198.839 195.262C198.74 195.312 198.64 195.332 198.53 195.332V195.312ZM195.935 189.901C195.665 189.901 195.405 189.75 195.266 189.498C194.817 188.632 194.347 187.755 193.868 186.869C193.669 186.506 193.798 186.043 194.158 185.841C194.517 185.64 194.976 185.771 195.176 186.133C195.665 187.03 196.144 187.917 196.593 188.793C196.783 189.166 196.643 189.619 196.274 189.811C196.164 189.871 196.044 189.891 195.935 189.891V189.901ZM193.04 184.652C192.78 184.652 192.531 184.521 192.391 184.279C191.892 183.433 191.383 182.577 190.853 181.73C190.634 181.378 190.744 180.914 191.093 180.693C191.442 180.471 191.902 180.582 192.121 180.934C192.66 181.801 193.169 182.657 193.679 183.524C193.888 183.886 193.768 184.35 193.419 184.562C193.299 184.632 193.169 184.662 193.04 184.662V184.652ZM189.895 179.554C189.646 179.554 189.416 179.433 189.266 179.211C188.727 178.385 188.178 177.559 187.619 176.733C187.39 176.39 187.469 175.917 187.809 175.685C188.148 175.453 188.617 175.534 188.847 175.876C189.416 176.713 189.975 177.549 190.514 178.385C190.744 178.738 190.644 179.201 190.294 179.433C190.165 179.514 190.025 179.554 189.885 179.554H189.895ZM186.521 174.607C186.292 174.607 186.062 174.496 185.912 174.295C185.343 173.499 184.754 172.693 184.155 171.887C183.906 171.554 183.976 171.081 184.305 170.829C184.634 170.577 185.104 170.647 185.353 170.98C185.962 171.786 186.551 172.602 187.13 173.408C187.37 173.751 187.3 174.214 186.96 174.466C186.831 174.567 186.671 174.607 186.521 174.607ZM182.947 169.801C182.728 169.801 182.498 169.7 182.358 169.509L180.542 167.131C180.292 166.799 180.352 166.325 180.681 166.073C181.011 165.821 181.48 165.882 181.73 166.214L183.546 168.592C183.796 168.924 183.736 169.398 183.417 169.65C183.277 169.761 183.117 169.811 182.957 169.811L182.947 169.801ZM179.314 165.045C179.084 165.045 178.865 164.945 178.715 164.753L176.898 162.365C176.648 162.033 176.708 161.559 177.038 161.307C177.367 161.056 177.836 161.116 178.086 161.448L179.893 163.826C180.142 164.159 180.082 164.632 179.753 164.884C179.613 164.985 179.454 165.045 179.294 165.045H179.314ZM175.69 160.27C175.461 160.27 175.241 160.169 175.091 159.967L173.294 157.569C173.045 157.237 173.105 156.763 173.434 156.511C173.764 156.26 174.233 156.33 174.482 156.653L176.279 159.04C176.529 159.373 176.469 159.846 176.139 160.098C176 160.199 175.85 160.249 175.69 160.249V160.27ZM172.096 155.484C171.867 155.484 171.647 155.383 171.498 155.182L169.711 152.774C169.461 152.441 169.531 151.967 169.86 151.716C170.19 151.464 170.659 151.534 170.909 151.867L172.695 154.265C172.945 154.597 172.875 155.071 172.546 155.323C172.416 155.423 172.256 155.474 172.096 155.474V155.484ZM168.533 150.668C168.303 150.668 168.074 150.567 167.934 150.365C167.335 149.549 166.746 148.743 166.167 147.947C165.917 147.615 165.997 147.141 166.327 146.889C166.656 146.638 167.125 146.718 167.375 147.051C167.954 147.847 168.543 148.653 169.142 149.469C169.391 149.801 169.321 150.275 168.982 150.527C168.852 150.627 168.692 150.678 168.533 150.678V150.668ZM165.009 145.821C164.779 145.821 164.55 145.711 164.4 145.509C163.811 144.683 163.222 143.877 162.653 143.071C162.414 142.728 162.493 142.265 162.823 142.013C163.152 141.771 163.621 141.842 163.871 142.184C164.44 142.98 165.019 143.796 165.608 144.612C165.847 144.955 165.778 145.418 165.438 145.67C165.308 145.771 165.149 145.811 164.999 145.811L165.009 145.821ZM161.545 140.935C161.305 140.935 161.076 140.824 160.936 140.612C160.357 139.786 159.788 138.96 159.229 138.144C158.99 137.801 159.079 137.328 159.419 137.096C159.758 136.864 160.227 136.945 160.457 137.288C161.016 138.094 161.585 138.91 162.164 139.746C162.404 140.089 162.324 140.562 161.984 140.794C161.854 140.884 161.705 140.935 161.555 140.935H161.545ZM158.151 135.998C157.911 135.998 157.672 135.887 157.532 135.665C156.963 134.819 156.404 133.993 155.865 133.167C155.635 132.824 155.725 132.351 156.075 132.119C156.414 131.887 156.883 131.978 157.113 132.33C157.652 133.147 158.211 133.973 158.77 134.809C159 135.152 158.91 135.625 158.57 135.857C158.44 135.948 158.291 135.988 158.151 135.988V135.998ZM154.847 131C154.597 131 154.358 130.88 154.218 130.658C153.669 129.802 153.13 128.955 152.611 128.119C152.391 127.766 152.491 127.303 152.84 127.071C153.19 126.849 153.649 126.95 153.879 127.303C154.398 128.129 154.937 128.975 155.476 129.822C155.705 130.174 155.605 130.638 155.256 130.87C155.126 130.95 154.987 130.99 154.847 130.99V131ZM151.672 125.922C151.423 125.922 151.173 125.791 151.034 125.56C150.504 124.683 149.995 123.827 149.496 122.97C149.287 122.608 149.406 122.144 149.766 121.933C150.125 121.721 150.584 121.842 150.794 122.205C151.283 123.051 151.792 123.907 152.311 124.774C152.531 125.127 152.411 125.6 152.062 125.812C151.942 125.882 151.802 125.922 151.672 125.922ZM148.668 120.734C148.408 120.734 148.149 120.593 148.009 120.351C147.51 119.454 147.041 118.567 146.581 117.701C146.392 117.328 146.531 116.875 146.891 116.683C147.26 116.482 147.709 116.633 147.899 116.996C148.348 117.852 148.817 118.729 149.317 119.615C149.516 119.978 149.386 120.441 149.027 120.643C148.907 120.703 148.787 120.734 148.668 120.734ZM145.893 115.414C145.613 115.414 145.354 115.263 145.224 114.991C144.775 114.064 144.345 113.147 143.946 112.25C143.776 111.867 143.946 111.424 144.315 111.253C144.695 111.081 145.134 111.253 145.304 111.636C145.703 112.522 146.122 113.419 146.561 114.326C146.741 114.698 146.591 115.152 146.222 115.333C146.112 115.384 146.002 115.414 145.893 115.414ZM143.447 109.943C143.147 109.943 142.868 109.761 142.748 109.469C142.369 108.512 142.009 107.565 141.68 106.628C141.54 106.235 141.75 105.802 142.139 105.661C142.528 105.52 142.958 105.731 143.097 106.124C143.417 107.031 143.766 107.958 144.146 108.895C144.305 109.278 144.116 109.721 143.736 109.882C143.647 109.923 143.547 109.933 143.457 109.933L143.447 109.943ZM141.47 104.28C141.151 104.28 140.851 104.069 140.752 103.736C140.462 102.739 140.203 101.741 139.993 100.784C139.903 100.381 140.153 99.9681 140.562 99.8775C140.961 99.7868 141.371 100.039 141.46 100.452C141.67 101.379 141.92 102.336 142.199 103.313C142.319 103.716 142.089 104.129 141.69 104.25C141.62 104.27 141.55 104.28 141.48 104.28H141.47ZM140.163 98.4266C139.803 98.4266 139.484 98.1546 139.424 97.7818C139.274 96.7541 139.154 95.7365 139.095 94.739C139.065 94.3259 139.374 93.9632 139.793 93.933C140.173 93.9128 140.562 94.2151 140.592 94.6382C140.652 95.5954 140.762 96.5727 140.911 97.5601C140.971 97.9732 140.692 98.3561 140.282 98.4165C140.242 98.4165 140.203 98.4165 140.173 98.4165L140.163 98.4266ZM139.773 92.4418H139.753C139.344 92.4317 139.015 92.0892 139.025 91.666C139.055 90.6383 139.124 89.6005 139.244 88.6031C139.294 88.19 139.673 87.8978 140.083 87.9481C140.492 87.9985 140.782 88.3713 140.732 88.7945C140.612 89.7516 140.542 90.729 140.522 91.7164C140.522 92.1295 140.183 92.4519 139.773 92.4519V92.4418ZM140.502 86.4973C140.442 86.4973 140.392 86.4973 140.332 86.4771C139.933 86.3865 139.673 85.9834 139.763 85.5703C139.983 84.583 140.262 83.5855 140.582 82.6082C140.712 82.2152 141.131 81.9936 141.53 82.1245C141.92 82.2555 142.139 82.6787 142.009 83.0817C141.7 84.0086 141.44 84.9557 141.231 85.9028C141.151 86.2555 140.841 86.4872 140.502 86.4872V86.4973ZM142.369 80.8047C142.269 80.8047 142.169 80.7845 142.069 80.7442C141.69 80.5729 141.52 80.1296 141.68 79.7467C142.069 78.84 142.518 77.913 143.008 76.9961C143.207 76.6334 143.656 76.4924 144.026 76.6939C144.395 76.8954 144.525 77.3488 144.325 77.7216C143.856 78.6082 143.427 79.4949 143.048 80.3613C142.928 80.6435 142.648 80.8147 142.359 80.8147L142.369 80.8047ZM145.184 75.5251C145.044 75.5251 144.904 75.4848 144.785 75.4042C144.435 75.1826 144.335 74.709 144.555 74.3564C145.084 73.5302 145.653 72.6839 146.262 71.8375C146.511 71.495 146.971 71.4244 147.31 71.6662C147.639 71.908 147.719 72.3816 147.48 72.7242C146.891 73.5403 146.332 74.3564 145.823 75.1624C145.683 75.3841 145.433 75.5151 145.194 75.5151L145.184 75.5251ZM148.678 70.6688C148.508 70.6688 148.348 70.6184 148.208 70.4975C147.889 70.2355 147.839 69.762 148.099 69.4396C148.718 68.6738 149.366 67.9081 150.055 67.1323C150.335 66.82 150.804 66.7998 151.113 67.0718C151.423 67.354 151.453 67.8275 151.173 68.1398C150.504 68.8955 149.866 69.6512 149.267 70.3967C149.117 70.5781 148.907 70.6788 148.688 70.6788L148.678 70.6688ZM152.631 66.1852C152.441 66.1852 152.261 66.1147 152.112 65.9736C151.812 65.6814 151.802 65.2079 152.092 64.9056C152.77 64.1903 153.479 63.485 154.208 62.7596C154.507 62.4674 154.977 62.4774 155.266 62.7797C155.556 63.082 155.546 63.5555 155.246 63.8477C154.527 64.553 153.829 65.2583 153.16 65.9535C153.01 66.1046 152.82 66.1852 152.621 66.1852H152.631ZM156.893 61.9938C156.694 61.9938 156.494 61.9132 156.344 61.752C156.065 61.4497 156.085 60.9661 156.384 60.684C157.103 60.019 157.842 59.344 158.61 58.6689C158.92 58.3969 159.389 58.4271 159.668 58.7395C159.938 59.0518 159.908 59.5354 159.598 59.8075C158.84 60.4825 158.111 61.1475 157.392 61.8024C157.253 61.9334 157.063 62.0039 156.883 62.0039L156.893 61.9938ZM161.365 58.0342C161.156 58.0342 160.936 57.9435 160.796 57.7621C160.527 57.4397 160.567 56.9662 160.886 56.6941C161.635 56.0594 162.404 55.4146 163.192 54.7697C163.512 54.5078 163.981 54.5581 164.24 54.8806C164.5 55.203 164.45 55.6765 164.13 55.9385C163.352 56.5833 162.583 57.2181 161.845 57.8427C161.705 57.9636 161.535 58.0241 161.365 58.0241V58.0342ZM165.987 54.2458C165.768 54.2458 165.548 54.1451 165.398 53.9536C165.139 53.6211 165.199 53.1476 165.518 52.8957C166.287 52.2811 167.075 51.6665 167.874 51.0418C168.203 50.7899 168.672 50.8504 168.922 51.1829C169.172 51.5154 169.112 51.9889 168.782 52.2408C167.984 52.8554 167.205 53.47 166.436 54.0745C166.297 54.1854 166.137 54.2357 165.977 54.2357L165.987 54.2458Z"/>
</mask>
<path d="M192.58 229.236C192.361 229.236 192.131 229.236 191.912 229.226C191.502 229.206 191.173 228.863 191.193 228.44C191.203 228.027 191.562 227.694 191.972 227.715C192.96 227.755 193.918 227.705 194.797 227.563C195.206 227.503 195.585 227.785 195.655 228.198C195.715 228.611 195.435 228.994 195.026 229.065C194.258 229.186 193.439 229.246 192.59 229.246L192.58 229.236ZM188.977 228.904C188.977 228.904 188.897 228.904 188.847 228.893C187.899 228.732 186.9 228.5 185.872 228.218C185.473 228.108 185.243 227.694 185.353 227.291C185.463 226.888 185.872 226.647 186.272 226.768C187.25 227.04 188.208 227.261 189.097 227.412C189.506 227.483 189.775 227.876 189.706 228.289C189.646 228.662 189.326 228.914 188.967 228.914L188.977 228.904ZM197.751 228.228C197.462 228.228 197.192 228.057 197.073 227.785C196.903 227.402 197.073 226.959 197.452 226.788C198.3 226.405 199.059 225.901 199.718 225.276C200.017 224.994 200.497 225.014 200.776 225.317C201.056 225.619 201.036 226.103 200.736 226.385C199.957 227.11 199.059 227.715 198.061 228.158C197.961 228.198 197.861 228.228 197.751 228.228ZM183.247 227.332C183.167 227.332 183.077 227.322 182.997 227.291C182.089 226.959 181.141 226.586 180.182 226.183C179.803 226.022 179.623 225.579 179.783 225.196C179.943 224.813 180.382 224.632 180.761 224.793C181.69 225.196 182.608 225.558 183.486 225.871C183.876 226.012 184.075 226.445 183.936 226.838C183.826 227.15 183.536 227.342 183.227 227.342L183.247 227.332ZM177.767 224.994C177.657 224.994 177.547 224.974 177.437 224.924C176.569 224.501 175.67 224.037 174.762 223.553C174.392 223.362 174.263 222.899 174.452 222.536C174.642 222.173 175.101 222.032 175.461 222.223C176.359 222.707 177.237 223.15 178.086 223.574C178.455 223.755 178.615 224.208 178.435 224.581C178.306 224.853 178.036 225.004 177.757 225.004L177.767 224.994ZM202.054 224.239C201.934 224.239 201.804 224.208 201.684 224.138C201.325 223.936 201.195 223.473 201.395 223.11C201.824 222.344 202.184 221.458 202.443 220.501C202.553 220.098 202.972 219.866 203.361 219.977C203.761 220.088 203.99 220.511 203.881 220.904C203.581 221.982 203.182 222.969 202.693 223.846C202.553 224.087 202.303 224.229 202.044 224.229L202.054 224.239ZM172.516 222.183C172.386 222.183 172.266 222.153 172.146 222.082C171.308 221.589 170.449 221.075 169.571 220.531C169.222 220.309 169.112 219.846 169.321 219.493C169.541 219.14 170 219.03 170.35 219.241C171.218 219.775 172.057 220.289 172.885 220.763C173.244 220.974 173.364 221.438 173.165 221.79C173.025 222.032 172.775 222.173 172.516 222.173V222.183ZM203.721 218.516C203.721 218.516 203.671 218.516 203.641 218.516C203.232 218.475 202.932 218.103 202.972 217.69C203.052 216.954 203.082 216.168 203.082 215.372C203.082 215.181 203.082 214.979 203.082 214.778C203.082 214.365 203.401 214.012 203.811 214.002C204.25 214.012 204.569 214.324 204.579 214.737C204.579 214.949 204.579 215.151 204.579 215.362C204.579 216.208 204.539 217.045 204.46 217.831C204.42 218.224 204.09 218.506 203.711 218.506L203.721 218.516ZM203.621 212.521C203.252 212.521 202.922 212.239 202.882 211.856C202.773 210.919 202.623 209.942 202.433 208.944C202.353 208.531 202.623 208.138 203.022 208.057C203.421 207.977 203.821 208.249 203.901 208.652C204.1 209.69 204.25 210.707 204.37 211.675C204.42 212.088 204.12 212.46 203.711 212.511C203.681 212.511 203.651 212.511 203.621 212.511V212.521ZM202.513 206.627C202.184 206.627 201.874 206.395 201.784 206.063C201.545 205.136 201.275 204.168 200.986 203.211C200.866 202.808 201.085 202.385 201.475 202.264C201.874 202.143 202.293 202.365 202.413 202.758C202.713 203.745 202.992 204.733 203.242 205.69C203.342 206.093 203.102 206.506 202.703 206.607C202.643 206.627 202.583 206.627 202.513 206.627ZM200.756 200.884C200.447 200.884 200.157 200.692 200.047 200.38C199.718 199.463 199.369 198.536 198.999 197.599C198.839 197.216 199.029 196.773 199.408 196.612C199.788 196.451 200.227 196.642 200.387 197.025C200.766 197.982 201.125 198.929 201.465 199.856C201.605 200.249 201.405 200.682 201.016 200.823C200.936 200.854 200.846 200.864 200.766 200.864L200.756 200.884ZM198.53 195.312C198.241 195.312 197.971 195.141 197.851 194.869C197.462 193.982 197.043 193.075 196.603 192.168C196.424 191.796 196.573 191.342 196.953 191.161C197.322 190.98 197.771 191.141 197.951 191.514C198.4 192.441 198.819 193.357 199.219 194.264C199.388 194.647 199.219 195.09 198.839 195.262C198.74 195.312 198.64 195.332 198.53 195.332V195.312ZM195.935 189.901C195.665 189.901 195.405 189.75 195.266 189.498C194.817 188.632 194.347 187.755 193.868 186.869C193.669 186.506 193.798 186.043 194.158 185.841C194.517 185.64 194.976 185.771 195.176 186.133C195.665 187.03 196.144 187.917 196.593 188.793C196.783 189.166 196.643 189.619 196.274 189.811C196.164 189.871 196.044 189.891 195.935 189.891V189.901ZM193.04 184.652C192.78 184.652 192.531 184.521 192.391 184.279C191.892 183.433 191.383 182.577 190.853 181.73C190.634 181.378 190.744 180.914 191.093 180.693C191.442 180.471 191.902 180.582 192.121 180.934C192.66 181.801 193.169 182.657 193.679 183.524C193.888 183.886 193.768 184.35 193.419 184.562C193.299 184.632 193.169 184.662 193.04 184.662V184.652ZM189.895 179.554C189.646 179.554 189.416 179.433 189.266 179.211C188.727 178.385 188.178 177.559 187.619 176.733C187.39 176.39 187.469 175.917 187.809 175.685C188.148 175.453 188.617 175.534 188.847 175.876C189.416 176.713 189.975 177.549 190.514 178.385C190.744 178.738 190.644 179.201 190.294 179.433C190.165 179.514 190.025 179.554 189.885 179.554H189.895ZM186.521 174.607C186.292 174.607 186.062 174.496 185.912 174.295C185.343 173.499 184.754 172.693 184.155 171.887C183.906 171.554 183.976 171.081 184.305 170.829C184.634 170.577 185.104 170.647 185.353 170.98C185.962 171.786 186.551 172.602 187.13 173.408C187.37 173.751 187.3 174.214 186.96 174.466C186.831 174.567 186.671 174.607 186.521 174.607ZM182.947 169.801C182.728 169.801 182.498 169.7 182.358 169.509L180.542 167.131C180.292 166.799 180.352 166.325 180.681 166.073C181.011 165.821 181.48 165.882 181.73 166.214L183.546 168.592C183.796 168.924 183.736 169.398 183.417 169.65C183.277 169.761 183.117 169.811 182.957 169.811L182.947 169.801ZM179.314 165.045C179.084 165.045 178.865 164.945 178.715 164.753L176.898 162.365C176.648 162.033 176.708 161.559 177.038 161.307C177.367 161.056 177.836 161.116 178.086 161.448L179.893 163.826C180.142 164.159 180.082 164.632 179.753 164.884C179.613 164.985 179.454 165.045 179.294 165.045H179.314ZM175.69 160.27C175.461 160.27 175.241 160.169 175.091 159.967L173.294 157.569C173.045 157.237 173.105 156.763 173.434 156.511C173.764 156.26 174.233 156.33 174.482 156.653L176.279 159.04C176.529 159.373 176.469 159.846 176.139 160.098C176 160.199 175.85 160.249 175.69 160.249V160.27ZM172.096 155.484C171.867 155.484 171.647 155.383 171.498 155.182L169.711 152.774C169.461 152.441 169.531 151.967 169.86 151.716C170.19 151.464 170.659 151.534 170.909 151.867L172.695 154.265C172.945 154.597 172.875 155.071 172.546 155.323C172.416 155.423 172.256 155.474 172.096 155.474V155.484ZM168.533 150.668C168.303 150.668 168.074 150.567 167.934 150.365C167.335 149.549 166.746 148.743 166.167 147.947C165.917 147.615 165.997 147.141 166.327 146.889C166.656 146.638 167.125 146.718 167.375 147.051C167.954 147.847 168.543 148.653 169.142 149.469C169.391 149.801 169.321 150.275 168.982 150.527C168.852 150.627 168.692 150.678 168.533 150.678V150.668ZM165.009 145.821C164.779 145.821 164.55 145.711 164.4 145.509C163.811 144.683 163.222 143.877 162.653 143.071C162.414 142.728 162.493 142.265 162.823 142.013C163.152 141.771 163.621 141.842 163.871 142.184C164.44 142.98 165.019 143.796 165.608 144.612C165.847 144.955 165.778 145.418 165.438 145.67C165.308 145.771 165.149 145.811 164.999 145.811L165.009 145.821ZM161.545 140.935C161.305 140.935 161.076 140.824 160.936 140.612C160.357 139.786 159.788 138.96 159.229 138.144C158.99 137.801 159.079 137.328 159.419 137.096C159.758 136.864 160.227 136.945 160.457 137.288C161.016 138.094 161.585 138.91 162.164 139.746C162.404 140.089 162.324 140.562 161.984 140.794C161.854 140.884 161.705 140.935 161.555 140.935H161.545ZM158.151 135.998C157.911 135.998 157.672 135.887 157.532 135.665C156.963 134.819 156.404 133.993 155.865 133.167C155.635 132.824 155.725 132.351 156.075 132.119C156.414 131.887 156.883 131.978 157.113 132.33C157.652 133.147 158.211 133.973 158.77 134.809C159 135.152 158.91 135.625 158.57 135.857C158.44 135.948 158.291 135.988 158.151 135.988V135.998ZM154.847 131C154.597 131 154.358 130.88 154.218 130.658C153.669 129.802 153.13 128.955 152.611 128.119C152.391 127.766 152.491 127.303 152.84 127.071C153.19 126.849 153.649 126.95 153.879 127.303C154.398 128.129 154.937 128.975 155.476 129.822C155.705 130.174 155.605 130.638 155.256 130.87C155.126 130.95 154.987 130.99 154.847 130.99V131ZM151.672 125.922C151.423 125.922 151.173 125.791 151.034 125.56C150.504 124.683 149.995 123.827 149.496 122.97C149.287 122.608 149.406 122.144 149.766 121.933C150.125 121.721 150.584 121.842 150.794 122.205C151.283 123.051 151.792 123.907 152.311 124.774C152.531 125.127 152.411 125.6 152.062 125.812C151.942 125.882 151.802 125.922 151.672 125.922ZM148.668 120.734C148.408 120.734 148.149 120.593 148.009 120.351C147.51 119.454 147.041 118.567 146.581 117.701C146.392 117.328 146.531 116.875 146.891 116.683C147.26 116.482 147.709 116.633 147.899 116.996C148.348 117.852 148.817 118.729 149.317 119.615C149.516 119.978 149.386 120.441 149.027 120.643C148.907 120.703 148.787 120.734 148.668 120.734ZM145.893 115.414C145.613 115.414 145.354 115.263 145.224 114.991C144.775 114.064 144.345 113.147 143.946 112.25C143.776 111.867 143.946 111.424 144.315 111.253C144.695 111.081 145.134 111.253 145.304 111.636C145.703 112.522 146.122 113.419 146.561 114.326C146.741 114.698 146.591 115.152 146.222 115.333C146.112 115.384 146.002 115.414 145.893 115.414ZM143.447 109.943C143.147 109.943 142.868 109.761 142.748 109.469C142.369 108.512 142.009 107.565 141.68 106.628C141.54 106.235 141.75 105.802 142.139 105.661C142.528 105.52 142.958 105.731 143.097 106.124C143.417 107.031 143.766 107.958 144.146 108.895C144.305 109.278 144.116 109.721 143.736 109.882C143.647 109.923 143.547 109.933 143.457 109.933L143.447 109.943ZM141.47 104.28C141.151 104.28 140.851 104.069 140.752 103.736C140.462 102.739 140.203 101.741 139.993 100.784C139.903 100.381 140.153 99.9681 140.562 99.8775C140.961 99.7868 141.371 100.039 141.46 100.452C141.67 101.379 141.92 102.336 142.199 103.313C142.319 103.716 142.089 104.129 141.69 104.25C141.62 104.27 141.55 104.28 141.48 104.28H141.47ZM140.163 98.4266C139.803 98.4266 139.484 98.1546 139.424 97.7818C139.274 96.7541 139.154 95.7365 139.095 94.739C139.065 94.3259 139.374 93.9632 139.793 93.933C140.173 93.9128 140.562 94.2151 140.592 94.6382C140.652 95.5954 140.762 96.5727 140.911 97.5601C140.971 97.9732 140.692 98.3561 140.282 98.4165C140.242 98.4165 140.203 98.4165 140.173 98.4165L140.163 98.4266ZM139.773 92.4418H139.753C139.344 92.4317 139.015 92.0892 139.025 91.666C139.055 90.6383 139.124 89.6005 139.244 88.6031C139.294 88.19 139.673 87.8978 140.083 87.9481C140.492 87.9985 140.782 88.3713 140.732 88.7945C140.612 89.7516 140.542 90.729 140.522 91.7164C140.522 92.1295 140.183 92.4519 139.773 92.4519V92.4418ZM140.502 86.4973C140.442 86.4973 140.392 86.4973 140.332 86.4771C139.933 86.3865 139.673 85.9834 139.763 85.5703C139.983 84.583 140.262 83.5855 140.582 82.6082C140.712 82.2152 141.131 81.9936 141.53 82.1245C141.92 82.2555 142.139 82.6787 142.009 83.0817C141.7 84.0086 141.44 84.9557 141.231 85.9028C141.151 86.2555 140.841 86.4872 140.502 86.4872V86.4973ZM142.369 80.8047C142.269 80.8047 142.169 80.7845 142.069 80.7442C141.69 80.5729 141.52 80.1296 141.68 79.7467C142.069 78.84 142.518 77.913 143.008 76.9961C143.207 76.6334 143.656 76.4924 144.026 76.6939C144.395 76.8954 144.525 77.3488 144.325 77.7216C143.856 78.6082 143.427 79.4949 143.048 80.3613C142.928 80.6435 142.648 80.8147 142.359 80.8147L142.369 80.8047ZM145.184 75.5251C145.044 75.5251 144.904 75.4848 144.785 75.4042C144.435 75.1826 144.335 74.709 144.555 74.3564C145.084 73.5302 145.653 72.6839 146.262 71.8375C146.511 71.495 146.971 71.4244 147.31 71.6662C147.639 71.908 147.719 72.3816 147.48 72.7242C146.891 73.5403 146.332 74.3564 145.823 75.1624C145.683 75.3841 145.433 75.5151 145.194 75.5151L145.184 75.5251ZM148.678 70.6688C148.508 70.6688 148.348 70.6184 148.208 70.4975C147.889 70.2355 147.839 69.762 148.099 69.4396C148.718 68.6738 149.366 67.9081 150.055 67.1323C150.335 66.82 150.804 66.7998 151.113 67.0718C151.423 67.354 151.453 67.8275 151.173 68.1398C150.504 68.8955 149.866 69.6512 149.267 70.3967C149.117 70.5781 148.907 70.6788 148.688 70.6788L148.678 70.6688ZM152.631 66.1852C152.441 66.1852 152.261 66.1147 152.112 65.9736C151.812 65.6814 151.802 65.2079 152.092 64.9056C152.77 64.1903 153.479 63.485 154.208 62.7596C154.507 62.4674 154.977 62.4774 155.266 62.7797C155.556 63.082 155.546 63.5555 155.246 63.8477C154.527 64.553 153.829 65.2583 153.16 65.9535C153.01 66.1046 152.82 66.1852 152.621 66.1852H152.631ZM156.893 61.9938C156.694 61.9938 156.494 61.9132 156.344 61.752C156.065 61.4497 156.085 60.9661 156.384 60.684C157.103 60.019 157.842 59.344 158.61 58.6689C158.92 58.3969 159.389 58.4271 159.668 58.7395C159.938 59.0518 159.908 59.5354 159.598 59.8075C158.84 60.4825 158.111 61.1475 157.392 61.8024C157.253 61.9334 157.063 62.0039 156.883 62.0039L156.893 61.9938ZM161.365 58.0342C161.156 58.0342 160.936 57.9435 160.796 57.7621C160.527 57.4397 160.567 56.9662 160.886 56.6941C161.635 56.0594 162.404 55.4146 163.192 54.7697C163.512 54.5078 163.981 54.5581 164.24 54.8806C164.5 55.203 164.45 55.6765 164.13 55.9385C163.352 56.5833 162.583 57.2181 161.845 57.8427C161.705 57.9636 161.535 58.0241 161.365 58.0241V58.0342ZM165.987 54.2458C165.768 54.2458 165.548 54.1451 165.398 53.9536C165.139 53.6211 165.199 53.1476 165.518 52.8957C166.287 52.2811 167.075 51.6665 167.874 51.0418C168.203 50.7899 168.672 50.8504 168.922 51.1829C169.172 51.5154 169.112 51.9889 168.782 52.2408C167.984 52.8554 167.205 53.47 166.436 54.0745C166.297 54.1854 166.137 54.2357 165.977 54.2357L165.987 54.2458Z" fill="#F3EADA"/>
<path d="M192.58 229.236C192.361 229.236 192.131 229.236 191.912 229.226C191.502 229.206 191.173 228.863 191.193 228.44C191.203 228.027 191.562 227.694 191.972 227.715C192.96 227.755 193.918 227.705 194.797 227.563C195.206 227.503 195.585 227.785 195.655 228.198C195.715 228.611 195.435 228.994 195.026 229.065C194.258 229.186 193.439 229.246 192.59 229.246L192.58 229.236ZM188.977 228.904C188.977 228.904 188.897 228.904 188.847 228.893C187.899 228.732 186.9 228.5 185.872 228.218C185.473 228.108 185.243 227.694 185.353 227.291C185.463 226.888 185.872 226.647 186.272 226.768C187.25 227.04 188.208 227.261 189.097 227.412C189.506 227.483 189.775 227.876 189.706 228.289C189.646 228.662 189.326 228.914 188.967 228.914L188.977 228.904ZM197.751 228.228C197.462 228.228 197.192 228.057 197.073 227.785C196.903 227.402 197.073 226.959 197.452 226.788C198.3 226.405 199.059 225.901 199.718 225.276C200.017 224.994 200.497 225.014 200.776 225.317C201.056 225.619 201.036 226.103 200.736 226.385C199.957 227.11 199.059 227.715 198.061 228.158C197.961 228.198 197.861 228.228 197.751 228.228ZM183.247 227.332C183.167 227.332 183.077 227.322 182.997 227.291C182.089 226.959 181.141 226.586 180.182 226.183C179.803 226.022 179.623 225.579 179.783 225.196C179.943 224.813 180.382 224.632 180.761 224.793C181.69 225.196 182.608 225.558 183.486 225.871C183.876 226.012 184.075 226.445 183.936 226.838C183.826 227.15 183.536 227.342 183.227 227.342L183.247 227.332ZM177.767 224.994C177.657 224.994 177.547 224.974 177.437 224.924C176.569 224.501 175.67 224.037 174.762 223.553C174.392 223.362 174.263 222.899 174.452 222.536C174.642 222.173 175.101 222.032 175.461 222.223C176.359 222.707 177.237 223.15 178.086 223.574C178.455 223.755 178.615 224.208 178.435 224.581C178.306 224.853 178.036 225.004 177.757 225.004L177.767 224.994ZM202.054 224.239C201.934 224.239 201.804 224.208 201.684 224.138C201.325 223.936 201.195 223.473 201.395 223.11C201.824 222.344 202.184 221.458 202.443 220.501C202.553 220.098 202.972 219.866 203.361 219.977C203.761 220.088 203.99 220.511 203.881 220.904C203.581 221.982 203.182 222.969 202.693 223.846C202.553 224.087 202.303 224.229 202.044 224.229L202.054 224.239ZM172.516 222.183C172.386 222.183 172.266 222.153 172.146 222.082C171.308 221.589 170.449 221.075 169.571 220.531C169.222 220.309 169.112 219.846 169.321 219.493C169.541 219.14 170 219.03 170.35 219.241C171.218 219.775 172.057 220.289 172.885 220.763C173.244 220.974 173.364 221.438 173.165 221.79C173.025 222.032 172.775 222.173 172.516 222.173V222.183ZM203.721 218.516C203.721 218.516 203.671 218.516 203.641 218.516C203.232 218.475 202.932 218.103 202.972 217.69C203.052 216.954 203.082 216.168 203.082 215.372C203.082 215.181 203.082 214.979 203.082 214.778C203.082 214.365 203.401 214.012 203.811 214.002C204.25 214.012 204.569 214.324 204.579 214.737C204.579 214.949 204.579 215.151 204.579 215.362C204.579 216.208 204.539 217.045 204.46 217.831C204.42 218.224 204.09 218.506 203.711 218.506L203.721 218.516ZM203.621 212.521C203.252 212.521 202.922 212.239 202.882 211.856C202.773 210.919 202.623 209.942 202.433 208.944C202.353 208.531 202.623 208.138 203.022 208.057C203.421 207.977 203.821 208.249 203.901 208.652C204.1 209.69 204.25 210.707 204.37 211.675C204.42 212.088 204.12 212.46 203.711 212.511C203.681 212.511 203.651 212.511 203.621 212.511V212.521ZM202.513 206.627C202.184 206.627 201.874 206.395 201.784 206.063C201.545 205.136 201.275 204.168 200.986 203.211C200.866 202.808 201.085 202.385 201.475 202.264C201.874 202.143 202.293 202.365 202.413 202.758C202.713 203.745 202.992 204.733 203.242 205.69C203.342 206.093 203.102 206.506 202.703 206.607C202.643 206.627 202.583 206.627 202.513 206.627ZM200.756 200.884C200.447 200.884 200.157 200.692 200.047 200.38C199.718 199.463 199.369 198.536 198.999 197.599C198.839 197.216 199.029 196.773 199.408 196.612C199.788 196.451 200.227 196.642 200.387 197.025C200.766 197.982 201.125 198.929 201.465 199.856C201.605 200.249 201.405 200.682 201.016 200.823C200.936 200.854 200.846 200.864 200.766 200.864L200.756 200.884ZM198.53 195.312C198.241 195.312 197.971 195.141 197.851 194.869C197.462 193.982 197.043 193.075 196.603 192.168C196.424 191.796 196.573 191.342 196.953 191.161C197.322 190.98 197.771 191.141 197.951 191.514C198.4 192.441 198.819 193.357 199.219 194.264C199.388 194.647 199.219 195.09 198.839 195.262C198.74 195.312 198.64 195.332 198.53 195.332V195.312ZM195.935 189.901C195.665 189.901 195.405 189.75 195.266 189.498C194.817 188.632 194.347 187.755 193.868 186.869C193.669 186.506 193.798 186.043 194.158 185.841C194.517 185.64 194.976 185.771 195.176 186.133C195.665 187.03 196.144 187.917 196.593 188.793C196.783 189.166 196.643 189.619 196.274 189.811C196.164 189.871 196.044 189.891 195.935 189.891V189.901ZM193.04 184.652C192.78 184.652 192.531 184.521 192.391 184.279C191.892 183.433 191.383 182.577 190.853 181.73C190.634 181.378 190.744 180.914 191.093 180.693C191.442 180.471 191.902 180.582 192.121 180.934C192.66 181.801 193.169 182.657 193.679 183.524C193.888 183.886 193.768 184.35 193.419 184.562C193.299 184.632 193.169 184.662 193.04 184.662V184.652ZM189.895 179.554C189.646 179.554 189.416 179.433 189.266 179.211C188.727 178.385 188.178 177.559 187.619 176.733C187.39 176.39 187.469 175.917 187.809 175.685C188.148 175.453 188.617 175.534 188.847 175.876C189.416 176.713 189.975 177.549 190.514 178.385C190.744 178.738 190.644 179.201 190.294 179.433C190.165 179.514 190.025 179.554 189.885 179.554H189.895ZM186.521 174.607C186.292 174.607 186.062 174.496 185.912 174.295C185.343 173.499 184.754 172.693 184.155 171.887C183.906 171.554 183.976 171.081 184.305 170.829C184.634 170.577 185.104 170.647 185.353 170.98C185.962 171.786 186.551 172.602 187.13 173.408C187.37 173.751 187.3 174.214 186.96 174.466C186.831 174.567 186.671 174.607 186.521 174.607ZM182.947 169.801C182.728 169.801 182.498 169.7 182.358 169.509L180.542 167.131C180.292 166.799 180.352 166.325 180.681 166.073C181.011 165.821 181.48 165.882 181.73 166.214L183.546 168.592C183.796 168.924 183.736 169.398 183.417 169.65C183.277 169.761 183.117 169.811 182.957 169.811L182.947 169.801ZM179.314 165.045C179.084 165.045 178.865 164.945 178.715 164.753L176.898 162.365C176.648 162.033 176.708 161.559 177.038 161.307C177.367 161.056 177.836 161.116 178.086 161.448L179.893 163.826C180.142 164.159 180.082 164.632 179.753 164.884C179.613 164.985 179.454 165.045 179.294 165.045H179.314ZM175.69 160.27C175.461 160.27 175.241 160.169 175.091 159.967L173.294 157.569C173.045 157.237 173.105 156.763 173.434 156.511C173.764 156.26 174.233 156.33 174.482 156.653L176.279 159.04C176.529 159.373 176.469 159.846 176.139 160.098C176 160.199 175.85 160.249 175.69 160.249V160.27ZM172.096 155.484C171.867 155.484 171.647 155.383 171.498 155.182L169.711 152.774C169.461 152.441 169.531 151.967 169.86 151.716C170.19 151.464 170.659 151.534 170.909 151.867L172.695 154.265C172.945 154.597 172.875 155.071 172.546 155.323C172.416 155.423 172.256 155.474 172.096 155.474V155.484ZM168.533 150.668C168.303 150.668 168.074 150.567 167.934 150.365C167.335 149.549 166.746 148.743 166.167 147.947C165.917 147.615 165.997 147.141 166.327 146.889C166.656 146.638 167.125 146.718 167.375 147.051C167.954 147.847 168.543 148.653 169.142 149.469C169.391 149.801 169.321 150.275 168.982 150.527C168.852 150.627 168.692 150.678 168.533 150.678V150.668ZM165.009 145.821C164.779 145.821 164.55 145.711 164.4 145.509C163.811 144.683 163.222 143.877 162.653 143.071C162.414 142.728 162.493 142.265 162.823 142.013C163.152 141.771 163.621 141.842 163.871 142.184C164.44 142.98 165.019 143.796 165.608 144.612C165.847 144.955 165.778 145.418 165.438 145.67C165.308 145.771 165.149 145.811 164.999 145.811L165.009 145.821ZM161.545 140.935C161.305 140.935 161.076 140.824 160.936 140.612C160.357 139.786 159.788 138.96 159.229 138.144C158.99 137.801 159.079 137.328 159.419 137.096C159.758 136.864 160.227 136.945 160.457 137.288C161.016 138.094 161.585 138.91 162.164 139.746C162.404 140.089 162.324 140.562 161.984 140.794C161.854 140.884 161.705 140.935 161.555 140.935H161.545ZM158.151 135.998C157.911 135.998 157.672 135.887 157.532 135.665C156.963 134.819 156.404 133.993 155.865 133.167C155.635 132.824 155.725 132.351 156.075 132.119C156.414 131.887 156.883 131.978 157.113 132.33C157.652 133.147 158.211 133.973 158.77 134.809C159 135.152 158.91 135.625 158.57 135.857C158.44 135.948 158.291 135.988 158.151 135.988V135.998ZM154.847 131C154.597 131 154.358 130.88 154.218 130.658C153.669 129.802 153.13 128.955 152.611 128.119C152.391 127.766 152.491 127.303 152.84 127.071C153.19 126.849 153.649 126.95 153.879 127.303C154.398 128.129 154.937 128.975 155.476 129.822C155.705 130.174 155.605 130.638 155.256 130.87C155.126 130.95 154.987 130.99 154.847 130.99V131ZM151.672 125.922C151.423 125.922 151.173 125.791 151.034 125.56C150.504 124.683 149.995 123.827 149.496 122.97C149.287 122.608 149.406 122.144 149.766 121.933C150.125 121.721 150.584 121.842 150.794 122.205C151.283 123.051 151.792 123.907 152.311 124.774C152.531 125.127 152.411 125.6 152.062 125.812C151.942 125.882 151.802 125.922 151.672 125.922ZM148.668 120.734C148.408 120.734 148.149 120.593 148.009 120.351C147.51 119.454 147.041 118.567 146.581 117.701C146.392 117.328 146.531 116.875 146.891 116.683C147.26 116.482 147.709 116.633 147.899 116.996C148.348 117.852 148.817 118.729 149.317 119.615C149.516 119.978 149.386 120.441 149.027 120.643C148.907 120.703 148.787 120.734 148.668 120.734ZM145.893 115.414C145.613 115.414 145.354 115.263 145.224 114.991C144.775 114.064 144.345 113.147 143.946 112.25C143.776 111.867 143.946 111.424 144.315 111.253C144.695 111.081 145.134 111.253 145.304 111.636C145.703 112.522 146.122 113.419 146.561 114.326C146.741 114.698 146.591 115.152 146.222 115.333C146.112 115.384 146.002 115.414 145.893 115.414ZM143.447 109.943C143.147 109.943 142.868 109.761 142.748 109.469C142.369 108.512 142.009 107.565 141.68 106.628C141.54 106.235 141.75 105.802 142.139 105.661C142.528 105.52 142.958 105.731 143.097 106.124C143.417 107.031 143.766 107.958 144.146 108.895C144.305 109.278 144.116 109.721 143.736 109.882C143.647 109.923 143.547 109.933 143.457 109.933L143.447 109.943ZM141.47 104.28C141.151 104.28 140.851 104.069 140.752 103.736C140.462 102.739 140.203 101.741 139.993 100.784C139.903 100.381 140.153 99.9681 140.562 99.8775C140.961 99.7868 141.371 100.039 141.46 100.452C141.67 101.379 141.92 102.336 142.199 103.313C142.319 103.716 142.089 104.129 141.69 104.25C141.62 104.27 141.55 104.28 141.48 104.28H141.47ZM140.163 98.4266C139.803 98.4266 139.484 98.1546 139.424 97.7818C139.274 96.7541 139.154 95.7365 139.095 94.739C139.065 94.3259 139.374 93.9632 139.793 93.933C140.173 93.9128 140.562 94.2151 140.592 94.6382C140.652 95.5954 140.762 96.5727 140.911 97.5601C140.971 97.9732 140.692 98.3561 140.282 98.4165C140.242 98.4165 140.203 98.4165 140.173 98.4165L140.163 98.4266ZM139.773 92.4418H139.753C139.344 92.4317 139.015 92.0892 139.025 91.666C139.055 90.6383 139.124 89.6005 139.244 88.6031C139.294 88.19 139.673 87.8978 140.083 87.9481C140.492 87.9985 140.782 88.3713 140.732 88.7945C140.612 89.7516 140.542 90.729 140.522 91.7164C140.522 92.1295 140.183 92.4519 139.773 92.4519V92.4418ZM140.502 86.4973C140.442 86.4973 140.392 86.4973 140.332 86.4771C139.933 86.3865 139.673 85.9834 139.763 85.5703C139.983 84.583 140.262 83.5855 140.582 82.6082C140.712 82.2152 141.131 81.9936 141.53 82.1245C141.92 82.2555 142.139 82.6787 142.009 83.0817C141.7 84.0086 141.44 84.9557 141.231 85.9028C141.151 86.2555 140.841 86.4872 140.502 86.4872V86.4973ZM142.369 80.8047C142.269 80.8047 142.169 80.7845 142.069 80.7442C141.69 80.5729 141.52 80.1296 141.68 79.7467C142.069 78.84 142.518 77.913 143.008 76.9961C143.207 76.6334 143.656 76.4924 144.026 76.6939C144.395 76.8954 144.525 77.3488 144.325 77.7216C143.856 78.6082 143.427 79.4949 143.048 80.3613C142.928 80.6435 142.648 80.8147 142.359 80.8147L142.369 80.8047ZM145.184 75.5251C145.044 75.5251 144.904 75.4848 144.785 75.4042C144.435 75.1826 144.335 74.709 144.555 74.3564C145.084 73.5302 145.653 72.6839 146.262 71.8375C146.511 71.495 146.971 71.4244 147.31 71.6662C147.639 71.908 147.719 72.3816 147.48 72.7242C146.891 73.5403 146.332 74.3564 145.823 75.1624C145.683 75.3841 145.433 75.5151 145.194 75.5151L145.184 75.5251ZM148.678 70.6688C148.508 70.6688 148.348 70.6184 148.208 70.4975C147.889 70.2355 147.839 69.762 148.099 69.4396C148.718 68.6738 149.366 67.9081 150.055 67.1323C150.335 66.82 150.804 66.7998 151.113 67.0718C151.423 67.354 151.453 67.8275 151.173 68.1398C150.504 68.8955 149.866 69.6512 149.267 70.3967C149.117 70.5781 148.907 70.6788 148.688 70.6788L148.678 70.6688ZM152.631 66.1852C152.441 66.1852 152.261 66.1147 152.112 65.9736C151.812 65.6814 151.802 65.2079 152.092 64.9056C152.77 64.1903 153.479 63.485 154.208 62.7596C154.507 62.4674 154.977 62.4774 155.266 62.7797C155.556 63.082 155.546 63.5555 155.246 63.8477C154.527 64.553 153.829 65.2583 153.16 65.9535C153.01 66.1046 152.82 66.1852 152.621 66.1852H152.631ZM156.893 61.9938C156.694 61.9938 156.494 61.9132 156.344 61.752C156.065 61.4497 156.085 60.9661 156.384 60.684C157.103 60.019 157.842 59.344 158.61 58.6689C158.92 58.3969 159.389 58.4271 159.668 58.7395C159.938 59.0518 159.908 59.5354 159.598 59.8075C158.84 60.4825 158.111 61.1475 157.392 61.8024C157.253 61.9334 157.063 62.0039 156.883 62.0039L156.893 61.9938ZM161.365 58.0342C161.156 58.0342 160.936 57.9435 160.796 57.7621C160.527 57.4397 160.567 56.9662 160.886 56.6941C161.635 56.0594 162.404 55.4146 163.192 54.7697C163.512 54.5078 163.981 54.5581 164.24 54.8806C164.5 55.203 164.45 55.6765 164.13 55.9385C163.352 56.5833 162.583 57.2181 161.845 57.8427C161.705 57.9636 161.535 58.0241 161.365 58.0241V58.0342ZM165.987 54.2458C165.768 54.2458 165.548 54.1451 165.398 53.9536C165.139 53.6211 165.199 53.1476 165.518 52.8957C166.287 52.2811 167.075 51.6665 167.874 51.0418C168.203 50.7899 168.672 50.8504 168.922 51.1829C169.172 51.5154 169.112 51.9889 168.782 52.2408C167.984 52.8554 167.205 53.47 166.436 54.0745C166.297 54.1854 166.137 54.2357 165.977 54.2357L165.987 54.2458Z" stroke="black" stroke-width="0.8" mask="url(#path-39-outside-1_1_6933)"/>
</g>
<g clip-path="url(#clip1_1_6933)">
<path d="M112.24 228.86L17.6194 174.222C14.1931 172.246 11.0715 172.063 8.80357 173.38L4.74316 175.746C6.99895 174.429 10.1205 174.612 13.5468 176.587L108.18 231.214C114.996 235.152 120.556 244.785 120.544 252.613L120.032 274.342C120.032 278.232 118.63 280.987 116.398 282.28L120.459 279.914C122.69 278.622 124.08 275.866 124.092 271.976L124.605 250.248C124.629 242.419 119.069 232.787 112.24 228.848V228.86Z" fill="#FFEFD4" stroke="black" stroke-miterlimit="10"/>
<path d="M13.5589 176.588C6.74275 172.649 1.14597 175.844 1.12158 183.672L0.609455 205.401C0.585068 213.241 6.14527 222.874 12.9614 226.812L107.582 281.451C114.398 285.39 119.995 282.195 120.02 274.367L120.532 252.638C120.556 244.81 114.996 235.177 108.168 231.239L13.5589 176.588Z" fill="white"/>
<path d="M13.5589 176.588C6.74275 172.649 1.14597 175.844 1.12158 183.672L0.609455 205.401C0.585068 213.241 6.14527 222.874 12.9614 226.812L107.582 281.451C114.398 285.39 119.995 282.195 120.02 274.367L120.532 252.638C120.556 244.81 114.996 235.177 108.168 231.239L13.5589 176.588Z" stroke="black" stroke-miterlimit="10"/>
<path d="M84.5737 229.47C82.6593 228.36 81.0986 229.25 81.0864 231.457L81.0254 251.223C81.0254 253.43 82.574 256.112 84.4883 257.222L101.693 267.147C103.608 268.257 105.168 267.367 105.181 265.16L105.242 245.394C105.242 243.187 103.693 240.505 101.779 239.395L84.5737 229.47Z" fill="#AAD1CD" stroke="#050001" stroke-miterlimit="10"/>
<path d="M31.1052 215.935C29.2884 214.886 27.813 215.727 27.8008 217.812C27.8008 219.898 29.264 222.446 31.0808 223.495L66.8685 244.162C68.6853 245.211 70.1607 244.37 70.1729 242.285C70.1729 240.2 68.7097 237.651 66.8929 236.603L31.1052 215.947V215.935Z" fill="#CCCCCC" stroke="black" stroke-miterlimit="10"/>
<path d="M9.35227 189.694C7.53545 188.646 6.06004 189.487 6.04785 191.572C6.04785 193.657 7.51106 196.206 9.32788 197.254L66.9052 230.494C68.722 231.542 70.1974 230.701 70.2096 228.616C70.2096 226.531 68.7464 223.982 66.9296 222.934L9.35227 189.694Z" fill="#CCCCCC" stroke="black" stroke-miterlimit="10"/>
</g>
<g clip-path="url(#clip2_1_6933)">
<path d="M79.7894 285.443L12.5255 246.713C10.0898 245.313 7.87078 245.183 6.25852 246.117L3.37207 247.794C4.97566 246.86 7.19467 246.99 9.63039 248.39L76.903 287.111C81.7484 289.903 85.701 296.731 85.6923 302.28L85.3283 317.682C85.3283 320.439 84.3315 322.392 82.7452 323.308L85.6317 321.632C87.2179 320.715 88.2061 318.762 88.2147 316.005L88.5788 300.603C88.5961 295.054 84.6435 288.226 79.7894 285.434V285.443Z" fill="#FFEFD4" stroke="black" stroke-miterlimit="10"/>
<path d="M9.63909 248.391C4.79367 245.599 0.815044 247.863 0.797708 253.412L0.433651 268.814C0.416315 274.372 4.36893 281.2 9.21436 283.992L76.4782 322.721C81.3237 325.513 85.3023 323.249 85.3196 317.7L85.6837 302.298C85.701 296.749 81.7484 289.921 76.8943 287.129L9.63909 248.391Z" fill="white"/>
<path d="M9.63909 248.391C4.79367 245.599 0.815044 247.863 0.797708 253.412L0.433651 268.814C0.416315 274.372 4.36893 281.2 9.21436 283.992L76.4782 322.721C81.3237 325.513 85.3023 323.249 85.3196 317.7L85.6837 302.298C85.701 296.749 81.7484 289.921 76.8943 287.129L9.63909 248.391Z" stroke="black" stroke-miterlimit="10"/>
<path d="M60.122 285.876C58.7611 285.089 57.6516 285.72 57.643 287.284L57.5996 301.295C57.5996 302.859 58.7005 304.761 60.0613 305.547L72.2919 312.583C73.6528 313.369 74.7623 312.738 74.771 311.174L74.8143 297.163C74.8143 295.599 73.7135 293.698 72.3526 292.911L60.122 285.876Z" fill="#AAD1CD" stroke="#050001" stroke-miterlimit="10"/>
<path d="M22.1127 276.281C20.8212 275.537 19.7723 276.134 19.7637 277.612C19.7637 279.09 20.8038 280.896 22.0954 281.64L47.536 296.29C48.8276 297.033 49.8764 296.437 49.8851 294.959C49.8851 293.481 48.8449 291.674 47.5534 290.931L22.1127 276.289V276.281Z" fill="#CCCCCC" stroke="black" stroke-miterlimit="10"/>
<path d="M6.64884 257.681C5.3573 256.938 4.30847 257.534 4.2998 259.012C4.2998 260.49 5.33997 262.297 6.6315 263.04L47.5619 286.601C48.8535 287.344 49.9023 286.748 49.911 285.27C49.911 283.792 48.8708 281.986 47.5793 281.242L6.64884 257.681Z" fill="#CCCCCC" stroke="black" stroke-miterlimit="10"/>
</g>
<defs>
<linearGradient id="paint0_linear_1_6933" x1="162.723" y1="4.97726" x2="217.767" y2="32.0664" gradientUnits="userSpaceOnUse">
<stop stop-color="#AFB6E5"/>
<stop offset="0.43" stop-color="#E5E9FF"/>
<stop offset="1" stop-color="white"/>
</linearGradient>
<linearGradient id="paint1_linear_1_6933" x1="174.782" y1="27.9291" x2="201.254" y2="24.3179" gradientUnits="userSpaceOnUse">
<stop stop-color="#AFB6E5"/>
<stop offset="0.43" stop-color="#E5E9FF"/>
<stop offset="1" stop-color="white"/>
</linearGradient>
<linearGradient id="paint2_linear_1_6933" x1="167.235" y1="222.073" x2="149.951" y2="58.8841" gradientUnits="userSpaceOnUse">
<stop offset="0.08" stop-color="#00C7C5"/>
<stop offset="0.17" stop-color="#08BECA"/>
<stop offset="0.33" stop-color="#20A6D9"/>
<stop offset="0.52" stop-color="#4780F0"/>
<stop offset="0.56" stop-color="#5277F7"/>
<stop offset="1" stop-color="#836DF3"/>
</linearGradient>
<clipPath id="clip0_1_6933">
<rect width="90.2313" height="229.236" fill="white" transform="translate(139.005)"/>
</clipPath>
<clipPath id="clip1_1_6933">
<rect width="125.214" height="111.814" fill="white" transform="translate(0 171.929)"/>
</clipPath>
<clipPath id="clip2_1_6933">
<rect width="89.012" height="79.2572" fill="white" transform="translate(0 245.088)"/>
</clipPath>
</defs>
</svg>
