<svg width="267" height="216" viewBox="-43 0 267 216" fill="none" xmlns="http://www.w3.org/2000/svg">
    <path d="M1.5 100.161V196.073C1.50087 201.092 3.50173 205.906 7.0626 209.455C10.6235 213.005 15.4528 214.999 20.4886 215H160.511C165.547 214.999 170.377 213.005 173.937 209.455C177.498 205.906 179.499 201.092 179.5 196.073V100.161H1.5Z" fill="white" stroke="black" stroke-width="1.5" stroke-linejoin="round"/>
    <path d="M172.842 140.166H10.2363" stroke="black" stroke-width="1.5" stroke-linecap="round" stroke-linejoin="round"/>
    <path d="M179.494 80.2621C179.488 75.246 177.484 70.4375 173.924 66.8925C170.364 63.3477 165.538 61.356 160.505 61.3555H20.4826C15.4477 61.3579 10.6198 63.3531 7.06026 66.9023C3.50069 70.4515 1.50073 75.2644 1.5 80.2829V100.174H179.494V80.2621Z" fill="#FECA53" stroke="black" stroke-width="1.5" stroke-linejoin="round"/>
    <path d="M39.9116 112.736V204.169M73.7468 112.736V204.169M107.584 112.736V204.169M141.419 112.736V204.169" stroke="black" stroke-width="1.5" stroke-linecap="round" stroke-linejoin="round"/>
    <path d="M172.835 174.968H10.2295" stroke="black" stroke-width="1.5" stroke-linecap="round" stroke-linejoin="round"/>
    <path d="M155.424 67.2994L90.2271 2.48145" stroke="black" stroke-width="1.5" stroke-linecap="round" stroke-linejoin="round"/>
    <path d="M25.5691 74.9526C27.6866 74.9526 29.4038 73.241 29.4038 71.1298C29.4038 69.0187 27.6866 67.3076 25.5691 67.3076C23.4516 67.3076 21.7339 69.0187 21.7339 71.1298C21.7339 73.241 23.4511 74.9526 25.5691 74.9526Z" fill="black" stroke="black" stroke-width="2.107" stroke-linejoin="round"/>
    <path d="M45.5364 71.5868C45.797 69.4921 44.3041 67.5832 42.202 67.3234C40.1 67.0636 38.1854 68.5521 37.9247 70.6474C37.8005 71.6534 38.082 72.6674 38.7072 73.4668C39.3325 74.2662 40.2505 74.7855 41.2596 74.9108C43.3611 75.17 45.2763 73.682 45.5364 71.5868Z" fill="black" stroke="black" stroke-width="2.107" stroke-linejoin="round"/>
    <path d="M58.1726 74.9526C60.2907 74.9526 62.0073 73.241 62.0073 71.1298C62.0073 69.0187 60.2907 67.3076 58.1726 67.3076C56.0546 67.3076 54.3374 69.0187 54.3374 71.1298C54.3374 73.241 56.0546 74.9526 58.1726 74.9526Z" fill="black" stroke="black" stroke-width="2.107" stroke-linejoin="round"/>
    <path d="M74.6066 74.9526C76.7247 74.9526 78.4419 73.241 78.4419 71.1298C78.4419 69.0187 76.7247 67.3076 74.6066 67.3076C72.4886 67.3076 70.772 69.0187 70.772 71.1298C70.772 73.241 72.4886 74.9526 74.6066 74.9526ZM90.7696 74.9526C92.8876 74.9526 94.6043 73.241 94.6043 71.1298C94.6043 69.0187 92.8876 67.3076 90.7696 67.3076C88.6515 67.3076 86.9343 69.0187 86.9343 71.1298C86.9343 73.241 88.6515 74.9526 90.7696 74.9526Z" fill="black" stroke="black" stroke-width="2.107" stroke-linejoin="round"/>
    <path d="M106.392 74.9525C108.51 74.9525 110.227 73.2408 110.227 71.1297C110.227 69.0185 108.51 67.3075 106.392 67.3075C104.274 67.3075 102.557 69.0185 102.557 71.1297C102.557 73.2408 104.274 74.9525 106.392 74.9525ZM126.352 71.5868C126.612 69.4921 125.119 67.5832 123.017 67.3234C120.916 67.0636 119 68.5521 118.74 70.6474C118.48 72.7426 119.973 74.651 122.074 74.9108C124.176 75.1706 126.091 73.682 126.352 71.5868ZM138.992 74.9525C141.11 74.9525 142.827 73.2408 142.827 71.1297C142.827 69.0185 141.11 67.3075 138.992 67.3075C136.874 67.3075 135.157 69.0185 135.157 71.1297C135.157 73.2408 136.874 74.9525 138.992 74.9525ZM155.43 74.9525C157.547 74.9525 159.265 73.2408 159.265 71.1297C159.265 69.0185 157.547 67.3075 155.43 67.3075C153.312 67.3075 151.595 69.0185 151.595 71.1297C151.595 73.2408 153.312 74.9525 155.43 74.9525Z" fill="black" stroke="black" stroke-width="2.107" stroke-linejoin="round"/>
    <path d="M106.423 73.8796C105.822 73.9136 105.232 73.7102 104.781 73.3129C104.33 72.916 104.054 72.3576 104.014 71.7591V56.2275C104.067 55.6263 104.344 55.0668 104.791 54.659C105.237 54.2517 105.82 54.0254 106.426 54.0254C107.032 54.0254 107.615 54.2517 108.062 54.659C108.508 55.0662 108.786 55.6263 108.839 56.2275V71.7591C108.795 72.3575 108.517 72.9148 108.066 73.3112C107.614 73.7075 107.024 73.9114 106.423 73.8796Z" fill="#CFD8DC" stroke="black" stroke-width="1.5" stroke-linejoin="round"/>
    <path d="M122.712 73.8796C122.111 73.9136 121.521 73.7102 121.069 73.3129C120.618 72.916 120.342 72.3576 120.302 71.7591V56.2275C120.356 55.6263 120.633 55.0668 121.079 54.659C121.526 54.2517 122.109 54.0254 122.715 54.0254C123.321 54.0254 123.904 54.2517 124.35 54.659C124.797 55.0662 125.074 55.6263 125.128 56.2275V71.7591C125.084 72.3575 124.806 72.9148 124.354 73.3112C123.903 73.7075 123.313 73.9114 122.712 73.8796ZM139.012 73.8741C138.411 73.9079 137.82 73.7043 137.369 73.3074C136.918 72.9106 136.642 72.3521 136.6 71.7536V56.222C136.657 55.6235 136.936 55.0679 137.383 54.6635C137.829 54.2591 138.411 54.035 139.014 54.035C139.617 54.035 140.198 54.2591 140.645 54.6635C141.091 55.0679 141.37 55.6235 141.428 56.222V71.7536C141.384 72.352 141.106 72.9094 140.654 73.3059C140.202 73.7024 139.613 73.9064 139.012 73.8741ZM155.29 73.8735C154.69 73.9075 154.1 73.7041 153.648 73.3074C153.197 72.9101 152.921 72.3516 152.881 71.7531V56.2215C152.949 55.7879 153.131 55.3799 153.408 55.0388C153.685 54.6978 154.047 54.4354 154.458 54.278C154.869 54.1202 155.314 54.0736 155.749 54.1416C156.184 54.2095 156.593 54.3915 156.935 54.6672C157.387 55.0645 157.665 55.6225 157.709 56.2215V71.7531C157.664 72.3516 157.387 72.9095 156.935 73.3058C156.482 73.7025 155.892 73.9063 155.29 73.8735Z" fill="#CFD8DC" stroke="black" stroke-width="1.5" stroke-linejoin="round"/>
    <path d="M22.5654 70.2994L87.4145 5.48145" stroke="black" stroke-width="1.5" stroke-linecap="round" stroke-linejoin="round"/>
    <path d="M90.2113 18.6356C95.0973 18.6356 99.0579 14.6879 99.0579 9.8178C99.0579 4.9477 95.0973 1 90.2113 1C85.3253 1 81.3647 4.94825 81.3647 9.8178C81.3647 14.6874 85.3259 18.6356 90.2113 18.6356Z" fill="#9DA3A8" stroke="black" stroke-width="1.5" stroke-linejoin="round"/>
    <path d="M25.6094 73.8727C25.0084 73.9061 24.4184 73.7028 23.967 73.306C23.5156 72.9092 23.2395 72.3507 23.1978 71.7522V56.2206C23.2395 55.6223 23.516 55.0644 23.9675 54.6679C24.419 54.2717 25.009 54.0684 25.6094 54.1018C26.2109 54.0673 26.802 54.27 27.254 54.6663C27.7065 55.0629 27.9837 55.6214 28.0255 56.2206V71.7522C27.9815 72.3501 27.7038 72.9075 27.2524 73.3043C26.8002 73.7004 26.2105 73.9044 25.6094 73.8727ZM41.9032 73.8738C41.3021 73.9078 40.7119 73.7042 40.2604 73.3073C39.8089 72.9103 39.5327 72.352 39.4915 71.7533V56.2217C39.5476 55.6221 39.8258 55.0653 40.2729 54.6597C40.6061 54.3574 41.0173 54.1536 41.4603 54.0713C41.9033 53.9889 42.3605 54.0312 42.7807 54.1934C43.2009 54.3556 43.5674 54.6313 43.8392 54.9896C44.111 55.3479 44.2772 55.7745 44.3192 56.2217V71.7533C44.2752 72.3517 43.9974 72.909 43.5456 73.3054C43.0942 73.7022 42.5042 73.9061 41.9032 73.8738Z" fill="#CFD8DC" stroke="black" stroke-width="1.5" stroke-linejoin="round"/>
    <path d="M58.1861 73.8736C57.5851 73.9075 56.995 73.7039 56.5437 73.3069C56.0922 72.9101 55.8162 72.3516 55.7744 71.7531V56.2216C55.8306 55.6221 56.1091 55.0652 56.5556 54.6597C57.0021 54.2542 57.5843 54.0294 58.1883 54.0293C58.7923 54.0294 59.3745 54.2542 59.8209 54.6597C60.2674 55.0652 60.546 55.6221 60.6021 56.2216V71.7531C60.5582 72.3515 60.2805 72.9089 59.8287 73.3054C59.377 73.7019 58.7871 73.9059 58.1861 73.8736Z" fill="#CFD8DC" stroke="black" stroke-width="1.5" stroke-linejoin="round"/>
    <path d="M74.4742 73.8741C73.8732 73.9079 73.2831 73.7043 72.8318 73.3074C72.3803 72.9106 72.1043 72.3521 72.0625 71.7536V56.222C72.1199 55.6235 72.399 55.0679 72.8453 54.6635C73.2917 54.2591 73.8732 54.035 74.4764 54.035C75.0795 54.035 75.6611 54.2591 76.1074 54.6635C76.5537 55.0679 76.8328 55.6235 76.8902 56.222V71.7536C76.8463 72.352 76.5686 72.9094 76.1168 73.3059C75.665 73.7024 75.0753 73.9064 74.4742 73.8741ZM90.7641 73.8796C90.1631 73.9136 89.5726 73.7102 89.1217 73.3129C88.6708 72.9158 88.395 72.3575 88.3541 71.7591V56.2275C88.4074 55.6263 88.6846 55.0667 89.1316 54.659C89.5786 54.2512 90.1615 54.0254 90.7669 54.0254C91.3722 54.026 91.9555 54.2523 92.4019 54.6598C92.8484 55.0673 93.1258 55.6265 93.1796 56.2275V71.7591C93.1356 72.357 92.8579 72.9144 92.4065 73.3112C91.9548 73.7077 91.3651 73.9118 90.7641 73.8796Z" fill="#CFD8DC" stroke="black" stroke-width="1.5" stroke-linejoin="round"/>
    <path d="M119.031 154.706C122.868 157.369 126.306 160.512 129.251 164.047" stroke="black" stroke-width="4" stroke-linecap="round" stroke-linejoin="round"/>
    <path d="M119.883 164.897L127.548 153.008" stroke="black" stroke-width="4" stroke-linecap="round" stroke-linejoin="round"/>
    <g clip-path="url(#clip0_0_1)">
        <path d="M187.42 83.7523C207.073 83.9786 223.088 100.095 223.249 119.915C223.411 139.846 207.478 155.964 187.671 155.926C181.513 155.914 175.707 154.344 170.622 151.586L170.38 151.455L170.112 151.511L157.969 154.033L157.969 154.033C157.815 154.065 157.663 154.08 157.515 154.08C156.093 154.077 154.981 152.646 155.443 151.202L154.729 150.973L155.443 151.202L158.534 141.538L158.65 141.177L158.427 140.869C154.173 134.995 151.616 127.805 151.496 120.035L151.496 120.035C151.187 100.139 167.043 83.8526 186.812 83.7505C186.844 83.7505 186.874 83.7504 186.903 83.7504C186.959 83.7503 187.012 83.7502 187.068 83.7505L187.42 83.7523Z" fill="#FF8B57" stroke="black" stroke-width="1.5"/>
        <path fill-rule="evenodd" clip-rule="evenodd" d="M154.728 150.974C154.108 152.914 155.597 154.827 157.513 154.83C157.71 154.83 157.912 154.811 158.116 154.769L158.119 154.768L170.262 152.245C175.453 155.061 181.382 156.664 187.667 156.677C191.082 156.683 194.385 156.219 197.514 155.346L192.776 156.669C189.646 157.543 186.343 158.007 182.926 158C176.641 157.988 170.712 156.384 165.521 153.569L153.384 156.09L153.38 156.091C153.174 156.134 152.971 156.154 152.772 156.154C150.856 156.15 149.367 154.238 149.987 152.297L153.078 142.633C148.736 136.639 146.127 129.3 146.004 121.37C145.742 104.39 157.014 89.9793 172.518 85.6506L177.258 84.3271C161.754 88.6559 150.482 103.067 150.745 120.046C150.868 127.976 153.477 135.315 157.819 141.31L154.728 150.974Z" fill="black"/>
        <path d="M188.159 132.779L188.168 132.779C188.925 132.784 189.685 132.394 190.229 131.766L190.23 131.766C190.536 131.413 190.748 130.96 190.889 130.412L190.889 130.411C190.96 130.137 191.022 129.853 191.057 129.528L188.159 132.779ZM188.159 132.779C187.398 132.783 186.641 132.395 186.097 131.766L186.097 131.766M188.159 132.779L186.097 131.766M186.097 131.766C185.791 131.413 185.578 130.959 185.437 130.413C185.313 129.924 185.218 129.295 185.218 128.777V128.777M186.097 131.766L185.218 128.777M185.218 128.777C185.218 128.655 185.117 126.486 184.98 123.559C184.955 123.029 184.929 122.475 184.903 121.903L184.903 121.903M185.218 128.777L184.903 121.903M184.903 121.903C184.717 117.943 184.498 113.252 184.327 109.487C184.241 107.605 184.168 105.955 184.116 104.744C184.091 104.138 184.071 103.644 184.058 103.285C184.051 103.106 184.047 102.962 184.044 102.856C184.042 102.803 184.041 102.761 184.041 102.73C184.04 102.703 184.041 102.69 184.041 102.686C184.041 102.685 184.041 102.685 184.041 102.686L184.041 102.685M184.903 121.903L184.041 102.685M184.041 102.685C184.051 102.347 184.103 102.019 184.194 101.708M184.041 102.685L184.194 101.708M192.124 123.071L191.375 123.033C191.627 117.996 191.862 113.009 192.031 109.223C192.115 107.331 192.183 105.739 192.227 104.593C192.249 104.02 192.266 103.559 192.276 103.229C192.281 103.063 192.284 102.932 192.286 102.837C192.287 102.765 192.287 102.727 192.287 102.712C192.287 102.704 192.287 102.702 192.287 102.705C192.263 102.355 192.202 102.019 192.112 101.706L192.124 123.071ZM192.124 123.071L191.375 123.033C191.285 124.835 191.242 126.026 191.21 126.911M192.124 123.071L191.21 126.911M184.194 101.708C184.537 100.527 185.56 99.5629 186.803 99.1127L184.194 101.708ZM191.21 126.911C191.168 128.081 191.145 128.718 191.057 129.527L191.21 126.911ZM186.803 99.1127C188.911 98.3495 191.51 99.606 192.112 101.706L186.803 99.1127Z" fill="#F6F6F9" stroke="black" stroke-width="1.5"/>
        <path d="M190.345 137.469C191.585 138.696 191.585 140.685 190.345 141.912C189.105 143.139 187.094 143.139 185.854 141.912C184.613 140.685 184.613 138.696 185.854 137.469C187.094 136.242 189.105 136.242 190.345 137.469Z" fill="#F7F7FA" stroke="black" stroke-width="1.5"/>
    </g>
    <g clip-path="url(#clip1_0_1)">
        <path d="M143.929 154.503C144.596 151.152 144.165 147.909 142.637 145.093C140.709 141.544 136.931 139.057 132.271 138.268C127.985 137.541 119.306 137.683 109.343 146.786C108.836 147.249 108.708 147.974 108.974 148.569C105.875 151.692 104 155.754 104 160.188C104 170.01 113.195 178 124.5 178C135.805 178 145 170.01 145 160.188C145 158.201 144.623 156.29 143.929 154.503ZM110.471 167.941C109.163 166.16 108.291 164.116 107.989 161.92C108.23 160.679 108.807 159.301 109.692 157.897C112.188 153.936 116.403 150.797 119.944 150.261C120.786 150.133 121.365 149.344 121.24 148.496C121.113 147.65 120.327 147.065 119.485 147.193C116.862 147.591 114.043 149.028 111.562 151.119C114.613 147.838 119.279 145.736 124.502 145.736C131.935 145.736 138.244 149.994 140.37 155.85C140.21 156.308 140.026 156.77 139.817 157.231C138.016 161.2 134.628 164.699 130.282 167.087C124.466 170.282 117.358 171.105 112.594 169.137C111.788 168.803 111.083 168.404 110.474 167.941H110.471ZM131.76 141.326C135.481 141.956 138.459 143.871 139.93 146.58C140.444 147.527 140.793 148.543 140.98 149.609C137.243 145.224 131.247 142.377 124.498 142.377C123.541 142.377 122.599 142.436 121.675 142.547C125.143 141.225 128.583 140.788 131.76 141.326ZM124.5 174.642C121.985 174.642 119.6 174.153 117.46 173.28C117.823 173.297 118.188 173.31 118.559 173.31C122.874 173.31 127.57 172.111 131.757 169.81C135.651 167.672 138.871 164.716 141.078 161.317C140.413 168.761 133.234 174.644 124.498 174.644L124.5 174.642Z" fill="#FF8B57"/>
    </g>
    <defs>
        <clipPath id="clip0_0_1">
            <rect width="78" height="75" fill="white" transform="translate(146 83)"/>
        </clipPath>
        <clipPath id="clip1_0_1">
            <rect width="41" height="40" fill="white" transform="translate(104 138)"/>
        </clipPath>
    </defs>
</svg>
