<svg width="46" height="92" viewBox="0 0 46 92" fill="none" xmlns="http://www.w3.org/2000/svg">
<path d="M45.7278 46.1162C45.726 20.776 25.254 0.234084 -4.01129e-06 0.232346L0 92C25.2547 92 45.7278 71.4571 45.7278 46.1162Z" fill="white"/>
<path d="M10.3262 66.9433L10.3262 74.5796C10.3262 74.8371 10.6892 75.06 11.0052 74.6047C11.096 74.476 11.3557 74.0364 11.484 73.8983C11.6065 73.7656 11.7588 73.6644 11.9283 73.6031C12.1458 73.5348 12.3736 73.5061 12.6011 73.5183L22.7086 73.5183C22.843 73.5397 22.9797 73.4967 23.0779 73.4022C23.182 73.2761 23.2295 73.1125 23.2093 72.95L23.2093 68.9717C23.2295 68.8093 23.182 68.6456 23.0779 68.5196C22.9374 68.427 22.7694 68.3859 22.6022 68.4034L19.16 68.4034C19.1339 68.4031 19.1094 68.3903 19.0943 68.3688C19.0831 68.3461 19.0831 68.3194 19.0943 68.2966C19.7602 66.5049 19.42 64.4927 18.2025 63.0215C17.4139 62.1141 16.1716 61.6933 14.8135 61.6933C13.3271 61.6933 12.2288 62.2146 11.4683 63.0529C10.7079 63.8913 10.3262 65.2917 10.3262 66.9433ZM17.6392 67.4928C17.7803 67.4871 17.9195 67.5267 18.0366 67.6058C18.1489 67.6826 18.214 67.8119 18.2088 67.9481C18.2203 68.1164 18.1504 68.28 18.021 68.3877C18.0046 68.3922 17.9873 68.3922 17.9709 68.3877L11.4871 68.3877C11.4466 68.3925 11.4056 68.3925 11.3651 68.3877C11.2357 68.28 11.1658 68.1164 11.1773 67.9481C11.1726 67.8127 11.2361 67.6841 11.3463 67.6058C11.4647 67.527 11.6048 67.4875 11.7469 67.4928L17.6392 67.4928Z" fill="#101010"/>
<path d="M14.0817 18.0758C13.5264 18.6097 13.2343 19.3624 13.2837 20.1325C13.2392 21.117 13.663 22.0644 14.4259 22.6852L14.6512 22.8705L9.95735 22.8705C9.81435 22.8555 9.67105 22.8959 9.5568 22.9835C9.46572 23.112 9.42455 23.2694 9.44102 23.4263L9.44102 28.4187C9.42454 28.5271 9.44552 28.6379 9.50048 28.7327C9.56367 28.7948 9.65005 28.8271 9.73829 28.8217C9.82652 28.8163 9.90837 28.7737 9.96361 28.7045C10.0325 28.616 10.0933 28.5214 10.1451 28.4219C10.361 28.0545 10.458 27.7939 10.7146 27.662C11.0278 27.5178 11.3725 27.4562 11.716 27.483L22.6684 27.483C22.8117 27.4962 22.9547 27.4547 23.0689 27.3669C23.162 27.2715 23.2049 27.1377 23.1847 27.0058L23.1847 23.4011C23.2027 23.2559 23.1609 23.1096 23.0689 22.9961C22.9547 22.9085 22.8114 22.868 22.6684 22.883L15.784 22.883L15.759 22.8673C15.6207 22.7755 15.5428 22.6157 15.5556 22.4497C15.5527 22.3091 15.6195 22.1762 15.7339 22.0949C15.8558 22.013 16.0005 21.9723 16.147 21.9787L22.6778 21.9787C22.8212 21.9935 22.9648 21.9519 23.0783 21.8626C23.1703 21.7357 23.2116 21.5789 23.1941 21.423L23.1941 17.8592C23.2139 17.7253 23.1712 17.5898 23.0783 17.4918C22.9636 17.405 22.8207 17.3647 22.6778 17.3787L16.3817 17.3787C15.396 17.3662 14.6262 17.6048 14.0817 18.0758Z" fill="#101010"/>
<path d="M19.6139 39.5025C19.6071 39.6202 19.6747 39.7295 19.7828 39.7757C19.8976 39.8156 20.0181 39.8368 20.1396 39.8385C20.3527 39.8534 20.563 39.8956 20.7654 39.9641C20.8948 40.0123 20.9775 40.1399 20.9688 40.2781C20.9761 40.395 20.9099 40.5041 20.803 40.5513C20.6471 40.6092 20.4806 40.6328 20.3148 40.6203L17.9084 40.6203C16.4001 40.6203 15.2423 41.0411 14.4662 41.8763C13.6902 42.7115 13.2959 43.955 13.2959 45.5752C13.2959 46.9316 13.5556 48.0337 14.0626 48.8532C14.5695 49.6728 15.2204 50.0653 16.0528 50.0653C16.6271 50.0697 17.1699 49.8021 17.5173 49.3431C17.9004 48.8559 18.085 48.2409 18.0336 47.6224C18.0459 46.991 17.8681 46.3705 17.5235 45.8421C17.2268 45.3994 16.7479 45.1136 16.2186 45.0634C15.7945 45.0356 15.3817 45.2074 15.1015 45.5281C14.8232 45.8695 14.6905 46.3073 14.7322 46.7464L14.7322 46.784C14.6565 46.8379 14.5653 46.8655 14.4725 46.8625C14.3317 46.8625 14.1314 46.7589 14.1283 46.313C14.1238 45.8001 14.3064 45.3032 14.6415 44.9158C15.01 44.4971 15.5465 44.2665 16.1028 44.2878C17.6675 44.2878 18.5437 45.4433 18.8566 47.8736C18.9336 48.6104 19.2083 49.3125 19.6514 49.9051C20.0002 50.327 20.5265 50.5596 21.0721 50.5331C21.7168 50.5558 22.3333 50.2675 22.7306 49.7575C23.1733 49.155 23.3945 48.4172 23.3564 47.6695C23.3701 47.127 23.2554 46.5889 23.0216 46.0995C22.8478 45.7144 22.5862 45.3756 22.2581 45.1104L22.0954 44.9754L22.2237 44.875C23.2281 44.0429 23.3815 43.5154 23.3815 42.2594C23.4241 41.4129 23.1239 40.5851 22.5491 39.9641C22.0109 39.4492 21.2317 39.1885 20.2334 39.1885C20.0699 39.177 19.9056 39.1951 19.7484 39.2419C19.6591 39.2973 19.6074 39.3974 19.6139 39.5025ZM20.9657 45.2141L20.9939 45.2329C21.121 45.3223 21.195 45.4697 21.191 45.6254C21.191 45.7855 21.1253 46.0587 20.6997 46.0587L19.739 46.0587C19.3134 46.0587 19.2509 45.7855 19.2509 45.6254C19.2478 45.4706 19.3202 45.3241 19.4449 45.2329L19.473 45.2141L20.9657 45.2141Z" fill="#101010"/>
<path d="M18.6318 51.18C18.6318 51.2522 18.5786 51.3747 18.8133 51.5631C19.7271 52.3393 20.2205 53.5041 20.1432 54.703C20.1426 55.3014 20.0101 55.8922 19.7552 56.4331C19.4829 56.9795 19.1856 57.2464 18.8446 57.2464C18.7348 57.2494 18.6286 57.2074 18.5504 57.1302C18.4749 57.0582 18.4319 56.9584 18.4315 56.8539L18.4315 56.8099L18.4659 56.7785C19.0644 56.2084 19.3903 55.4081 19.3609 54.5806C19.3973 53.7149 19.094 52.8694 18.516 52.2256C17.9853 51.6827 17.2554 51.3829 16.4976 51.3967C15.8892 51.3891 15.2972 51.5945 14.8235 51.9776C14.3141 52.3988 13.9253 52.9481 13.6969 53.5695C13.421 54.3037 13.2851 55.0834 13.2964 55.8679C13.2744 56.8957 13.4998 57.9135 13.9535 58.8352C14.355 59.6389 14.9743 60.3126 15.7403 60.7788C16.5255 61.2399 17.4218 61.4756 18.3314 61.4602C20.1967 61.4936 21.9139 60.4443 22.7405 58.7661C23.1665 57.9019 23.381 56.9482 23.3663 55.9841C23.379 55.0757 23.1706 54.1779 22.7593 53.3686C22.3963 52.6362 21.8454 52.0141 21.1633 51.5662C20.572 51.1538 19.8682 50.9345 19.1481 50.9383C19.0427 50.9342 18.9372 50.9459 18.8352 50.9728C18.7355 51.0007 18.658 51.0796 18.6318 51.18ZM14.3948 56.5807L14.3666 56.5619C14.2419 56.4707 14.1695 56.3241 14.1726 56.1694C14.1726 55.8774 14.3447 55.7172 14.6607 55.7172L17.1016 55.7172C17.4145 55.7172 17.5897 55.8774 17.5897 56.1694C17.5933 56.3243 17.5208 56.471 17.3957 56.5619L17.3675 56.5807L14.3948 56.5807Z" fill="#101010"/>
<path d="M17.8372 28.623C17.8559 28.7486 17.8904 28.8051 18.0687 28.9684C18.4582 29.3185 18.7704 29.7463 18.9856 30.2244C19.1644 30.6589 19.2486 31.1267 19.2328 31.5965C19.2366 32.1725 19.0967 32.7403 18.826 33.2481C18.5691 33.7304 18.1847 34.1324 17.7151 34.4099C17.2934 34.6519 16.8146 34.7755 16.3289 34.7679C15.7436 34.7824 15.178 34.5554 14.7642 34.1399C14.3337 33.7434 14.0924 33.1813 14.1008 32.595C14.1008 32.1523 14.3355 32.0864 14.4732 32.0864C14.5483 32.082 14.6229 32.1018 14.686 32.1429L14.7361 32.1743L14.7361 32.2308C14.7318 32.7053 14.9061 33.1639 15.2242 33.515C15.5187 33.8317 15.9387 33.9999 16.3695 33.9735C16.923 33.9565 17.4436 33.7056 17.8027 33.2827C18.2072 32.8009 18.4181 32.1852 18.3942 31.5557C18.4061 30.9031 18.184 30.268 17.7683 29.766C17.3534 29.2685 16.7305 28.9944 16.0848 29.0249C15.5604 29.0076 15.0484 29.1867 14.6484 29.5273C14.1903 29.9172 13.8419 30.4206 13.6377 30.9874C13.395 31.6757 13.2763 32.4019 13.2872 33.132C13.268 34.1657 13.5034 35.1881 13.9725 36.1086C14.3813 36.922 15.0104 37.6033 15.7875 38.0742C16.5704 38.5355 17.4645 38.7722 18.3723 38.7587C19.2955 38.7775 20.2061 38.5407 21.004 38.0742C21.7477 37.6306 22.3527 36.9866 22.7501 36.2154C23.1713 35.3988 23.3862 34.491 23.3759 33.5716C23.4211 32.5455 23.1817 31.5271 22.6844 30.6294C22.2427 29.8772 21.6013 29.263 20.8319 28.8554C20.0451 28.4327 19.1608 28.2268 18.269 28.2588C18.1492 28.2525 18.0309 28.288 17.9342 28.3593C17.87 28.4318 17.8353 28.526 17.8372 28.623Z" fill="#101010"/>
</svg>
