<svg width="123" height="24" viewBox="0 0 123 24" fill="none" xmlns="http://www.w3.org/2000/svg">
<path d="M23.2953 10.2981L13.6991 0.705113C12.7594 -0.232433 11.2384 -0.232433 10.3017 0.705113C9.36495 1.6456 9.36495 3.16801 10.3017 4.10555L18.1977 11.9997L10.3017 19.8939C9.36201 20.8315 9.36201 22.3539 10.3017 23.2944C10.7715 23.7646 11.3852 23.9997 12.0018 23.9997C12.6185 23.9997 13.2322 23.7646 13.6991 23.2973L23.2953 13.7014C23.7475 13.2518 24 12.6375 24 11.9997C24 11.362 23.7475 10.7507 23.2953 10.2981Z" fill="#FF860D"/>
<path d="M14.4038 11.9734C14.4038 11.3357 14.1483 10.7243 13.6961 10.2717L4.09996 0.702303C3.16031 -0.235243 1.63925 -0.232304 0.702536 0.708181C-0.234179 1.64867 -0.231242 3.17108 0.708408 4.10862L8.60147 11.9822L0.702536 19.897C-0.234179 20.8375 -0.234179 22.3599 0.702536 23.2975C1.17236 23.7677 1.78607 23.9999 2.39978 23.9999C3.01642 23.9999 3.63013 23.7648 4.09996 23.2945L13.6961 13.6751C14.1454 13.2225 14.4009 12.6112 14.3979 11.9734H14.4038Z" fill="#FF860D"/>
<path d="M21.5981 4.00626C22.482 4.00626 23.1985 3.28913 23.1985 2.4045C23.1985 1.51987 22.482 0.802734 21.5981 0.802734C20.7143 0.802734 19.9978 1.51987 19.9978 2.4045C19.9978 3.28913 20.7143 4.00626 21.5981 4.00626Z" fill="#FF860D"/>
<path d="M21.5981 23.1977C22.482 23.1977 23.1985 22.4805 23.1985 21.5959C23.1985 20.7113 22.482 19.9941 21.5981 19.9941C20.7143 19.9941 19.9978 20.7113 19.9978 21.5959C19.9978 22.4805 20.7143 23.1977 21.5981 23.1977Z" fill="#FF860D"/>
<path d="M2.40271 4.80823C3.72929 4.80823 4.8047 3.73187 4.8047 2.40412C4.8047 1.07636 3.72929 0 2.40271 0C1.07614 0 0.000732422 1.07636 0.000732422 2.40412C0.000732422 3.73187 1.07614 4.80823 2.40271 4.80823Z" fill="#FFD919"/>
<path d="M2.40271 23.9996C3.72929 23.9996 4.8047 22.9233 4.8047 21.5955C4.8047 20.2678 3.72929 19.1914 2.40271 19.1914C1.07614 19.1914 0.000732422 20.2678 0.000732422 21.5955C0.000732422 22.9233 1.07614 23.9996 2.40271 23.9996Z" fill="#FFD919"/>
<path d="M2.40283 13.602C3.28668 13.602 4.00318 12.8848 4.00318 12.0002C4.00318 11.1156 3.28668 10.3984 2.40283 10.3984C1.51899 10.3984 0.80249 11.1156 0.80249 12.0002C0.80249 12.8848 1.51899 13.602 2.40283 13.602Z" fill="#FF860D"/>
<path d="M12.0018 4.80823C13.3284 4.80823 14.4038 3.73187 14.4038 2.40412C14.4038 1.07636 13.3284 0 12.0018 0C10.6753 0 9.59985 1.07636 9.59985 2.40412C9.59985 3.73187 10.6753 4.80823 12.0018 4.80823Z" fill="#FFD919"/>
<path d="M12.0018 23.9996C13.3284 23.9996 14.4038 22.9233 14.4038 21.5955C14.4038 20.2678 13.3284 19.1914 12.0018 19.1914C10.6753 19.1914 9.59985 20.2678 9.59985 21.5955C9.59985 22.9233 10.6753 23.9996 12.0018 23.9996Z" fill="#FFD919"/>
<path d="M41.366 4.89355C44.4436 4.89355 46.2883 6.35895 46.2883 9.43352C46.2883 12.5081 44.0184 14.0163 41.0264 14.0163H38.2272V19.7433H36V4.89355H41.366ZM38.2272 12.0002H40.8153C42.9782 12.0002 44.0612 11.0886 44.0612 9.43352C44.0612 7.77845 43.4249 6.90962 41.1549 6.90962H38.2272V12.0002Z" fill="black"/>
<path d="M57.8799 13.569C57.8799 13.9728 57.8585 14.4592 57.8585 14.4592H49.3293C49.4363 16.4753 50.709 18.0019 52.8291 18.0019C54.5484 18.0019 55.7782 16.772 56.3503 15.9001H56.4574L57.3904 17.9162C56.6256 18.9563 54.9063 19.9965 52.8291 19.9965C49.1579 19.9965 47.2275 17.3655 47.2275 13.7801C47.2275 10.1946 49.7086 7.60645 52.6577 7.60645C55.6069 7.60645 57.8769 10.0477 57.8769 13.569H57.8799ZM49.4149 12.6787H55.7599C55.6314 10.7483 54.3801 9.51849 52.6639 9.51849C50.8161 9.51849 49.6505 11.0237 49.418 12.6787H49.4149Z" fill="black"/>
<path d="M68.2356 11.4497V19.7465H66.4949L66.2409 18.1771H66.1767C65.4761 19.2815 64.3105 20.0004 62.6555 20.0004C60.4069 20.0004 59.1985 18.7492 59.1985 16.7331C59.1985 14.8669 60.1316 13.6126 62.9124 13.0406C65.7545 12.4685 66.1155 11.9362 66.1155 11.1102C66.1155 10.1557 65.4363 9.51934 63.9098 9.51934C62.3832 9.51934 61.2788 10.5167 60.514 11.9178H60.4283L59.2199 10.1343C60.153 8.66886 61.8509 7.61035 63.9281 7.61035C66.6876 7.61035 68.2356 9.15834 68.2356 11.4497ZM66.0727 13.5912C65.7973 14.1021 65.265 14.3346 63.4845 14.7568C61.701 15.1821 61.236 15.797 61.236 16.6444C61.236 17.5775 62.0008 18.1098 62.9339 18.1098C64.4207 18.1098 66.1155 17.1125 66.1155 15.6685V13.5882H66.0727V13.5912Z" fill="black"/>
<path d="M80.3534 10.6421L78.8666 12.1075H78.7596C78.2915 10.5809 77.3156 9.51934 75.7248 9.51934C73.5618 9.51934 72.2249 11.5996 72.2249 13.8482C72.2249 16.3507 73.4548 18.0058 75.7248 18.0058C77.5083 18.0058 78.5454 16.6046 78.9278 14.971H79.0349L80.7756 16.3079C79.971 18.4708 78.3557 20.0004 75.7248 20.0004C72.0536 20.0004 70.1018 17.4765 70.1018 13.8482C70.1018 10.2199 72.6685 7.61035 75.7248 7.61035C78.2089 7.61035 79.714 9.0941 80.3504 10.6452L80.3534 10.6421Z" fill="black"/>
<path d="M84.4283 9.49751C85.1717 8.37476 86.3373 7.60994 88.0352 7.60994C90.7518 7.60994 91.9816 9.66883 91.9816 11.9174V19.7461H89.8616V12.3855C89.8616 10.6019 89.2252 9.52199 87.4631 9.52199C85.7009 9.52199 84.3885 10.9231 84.3885 13.5327V19.7491H82.2654V4H84.3885V9.49446H84.4314L84.4283 9.49751Z" fill="black"/>
<path d="M108.722 8.307L106.538 10.5984H106.391C105.647 8.77507 104.714 7.60643 103.016 7.60643C100.746 7.60643 99.2597 9.68673 99.2597 12.3789C99.2597 14.7988 100.447 16.9831 103.056 16.9831C104.265 16.9831 105.54 16.3896 105.963 15.5605V14.4776H103.564V11.8252H109.144V19.7395H107.15L106.556 18.1701H106.513C105.984 19.0175 104.711 19.9934 102.61 19.9934C98.2379 19.9934 96.075 16.0898 96.075 12.4829C96.075 8.30394 98.8344 4.63281 103.013 4.63281C106.091 4.63281 107.893 6.5418 108.722 8.30394V8.307Z" fill="black"/>
<path d="M122.167 13.9085C122.167 17.3655 119.897 19.9965 116.333 19.9965C112.769 19.9965 110.521 17.4084 110.521 13.9085C110.521 10.4087 112.98 7.60645 116.355 7.60645C119.729 7.60645 122.167 10.3231 122.167 13.9085ZM113.488 13.93C113.488 15.8175 114.614 17.2401 116.309 17.2401C118.111 17.2401 119.194 15.6707 119.194 13.8657C119.194 12.0607 118.111 10.3659 116.352 10.3659C114.593 10.3659 113.488 12.0424 113.488 13.93Z" fill="black"/>
</svg>
