<svg width="615" height="336" viewBox="0 0 615 336" fill="none" xmlns="http://www.w3.org/2000/svg">
<mask id="mask0_1_43007" style="mask-type:alpha" maskUnits="userSpaceOnUse" x="0" y="0" width="615" height="336">
<rect width="615" height="336" fill="#D9D9D9"/>
</mask>
<g mask="url(#mask0_1_43007)">
<path d="M10.8319 267.525C10.8319 270.309 8.57504 272.566 5.79096 272.566C3.00687 272.566 0.75 270.309 0.75 267.525C0.75 264.742 3.00687 262.485 5.79096 262.485C8.57504 262.485 10.8319 264.742 10.8319 267.525Z" fill="#FBF39B" stroke="black" stroke-width="1.5"/>
<path d="M471.215 206.245C471.215 209.668 468.44 212.443 465.016 212.443C461.592 212.443 458.817 209.668 458.817 206.245C458.817 202.821 461.592 200.046 465.016 200.046C468.44 200.046 471.215 202.821 471.215 206.245Z" fill="#FFC664" stroke="black" stroke-width="1.5"/>
<path d="M614.25 283.16C614.25 285.624 612.252 287.621 609.788 287.621C607.324 287.621 605.326 285.624 605.326 283.16C605.326 280.696 607.324 278.698 609.788 278.698C612.252 278.698 614.25 280.696 614.25 283.16Z" fill="#FBF39B" stroke="black" stroke-width="1.5"/>
<path d="M505.38 32.4262C505.38 36.4892 502.086 39.7831 498.022 39.7831C493.959 39.7831 490.665 36.4892 490.665 32.4262C490.665 28.3632 493.959 25.0693 498.022 25.0693C502.086 25.0693 505.38 28.3632 505.38 32.4262Z" fill="#CFA4FF" stroke="black" stroke-width="1.5"/>
<path d="M287.122 9.59855C284.138 10.6024 282.273 13.6205 281.713 15.004C280.893 12.8418 278.636 10.7569 276.118 9.59855C278.953 8.28578 280.687 6.12359 281.713 4C282.534 6.70275 285.661 8.85851 287.122 9.59855Z" fill="#FFBF00" stroke="black" stroke-width="1.5"/>
<path d="M198.279 179.891C194.937 181.016 192.849 184.395 192.222 185.944C191.303 183.523 188.776 181.189 185.957 179.891C189.131 178.422 191.073 176 192.222 173.623C193.141 176.649 196.643 179.063 198.279 179.891Z" fill="white" stroke="black" stroke-width="1.5"/>
<path d="M449.01 250.655C444.453 252.188 441.605 256.797 440.751 258.909C439.498 255.608 436.052 252.424 432.207 250.655C436.536 248.651 439.185 245.349 440.751 242.107C442.004 246.234 446.779 249.525 449.01 250.655Z" fill="#FFBF00" stroke="black" stroke-width="1.5"/>
<path d="M129.057 155.63C129.057 160.746 124.91 164.893 119.794 164.893C114.678 164.893 110.531 160.746 110.531 155.63C110.531 150.515 114.678 146.368 119.794 146.368C124.91 146.368 129.057 150.515 129.057 155.63Z" fill="#CFA4FF" stroke="black" stroke-width="1.5"/>
<path d="M256.665 108.04C256.665 111.312 254.013 113.965 250.74 113.965C247.468 113.965 244.815 111.312 244.815 108.04C244.815 104.767 247.468 102.115 250.74 102.115C254.013 102.115 256.665 104.767 256.665 108.04Z" fill="#FBF39B" stroke="black" stroke-width="1.5"/>
<path d="M315.407 157.434C315.407 159.969 313.352 162.024 310.817 162.024C308.282 162.024 306.227 159.969 306.227 157.434C306.227 154.899 308.282 152.844 310.817 152.844C313.352 152.844 315.407 154.899 315.407 157.434Z" fill="#FFC664" stroke="black" stroke-width="1.5"/>
<path d="M360.563 145.765L360.545 145.77L360.526 145.776C359.109 146.239 358.099 145.772 357.834 145.572L355.212 143.186L377.525 123.376L379.474 125.615C379.483 125.63 379.491 125.64 379.495 125.646L379.497 125.648C379.518 125.678 379.542 125.709 379.561 125.734L379.57 125.746C379.609 125.796 379.649 125.848 379.693 125.911C379.789 126.046 379.895 126.215 379.977 126.414C380.136 126.795 380.217 127.295 379.921 127.91C374.03 140.147 364.134 144.8 360.563 145.765Z" fill="#F78400" stroke="black" stroke-width="1.5"/>
<path d="M376.878 122.666C377.122 122.93 377.274 123.431 377.117 124.313C376.963 125.182 376.529 126.279 375.815 127.542C374.39 130.059 371.938 133.079 368.785 135.982C365.632 138.886 362.421 141.082 359.796 142.295C358.479 142.903 357.349 143.245 356.471 143.328C355.578 143.412 355.092 143.218 354.849 142.954C354.605 142.69 354.453 142.19 354.609 141.307C354.764 140.438 355.198 139.341 355.912 138.078C357.337 135.562 359.789 132.541 362.942 129.638C366.094 126.734 369.306 124.539 371.931 123.326C373.248 122.717 374.378 122.375 375.256 122.292C376.149 122.209 376.635 122.402 376.878 122.666Z" fill="#FFC664" stroke="black" stroke-width="1.5"/>
<path d="M198.689 108.806L198.689 108.787L198.688 108.767C198.532 105.944 199.894 104.268 200.485 103.821L206.245 100.118L230.179 147.823L224.971 150.371C224.936 150.382 224.909 150.392 224.893 150.398L224.891 150.399C224.842 150.417 224.786 150.44 224.735 150.461L224.709 150.472C224.608 150.514 224.492 150.562 224.356 150.612C224.062 150.722 223.685 150.838 223.256 150.896C222.417 151.007 221.366 150.897 220.315 149.994C202.152 134.393 198.708 115.406 198.689 108.806Z" fill="#F78400" stroke="black" stroke-width="1.5"/>
<path d="M231.174 147.293C230.392 147.703 229.275 147.662 227.784 146.965C226.306 146.275 224.596 144.999 222.762 143.199C219.1 139.605 215.071 134.047 211.569 127.373C208.067 120.699 205.782 114.226 204.906 109.171C204.467 106.639 204.388 104.506 204.66 102.898C204.934 101.276 205.535 100.333 206.317 99.9228C207.099 99.5126 208.216 99.5542 209.707 100.25C211.185 100.941 212.895 102.217 214.729 104.017C218.391 107.611 222.419 113.169 225.921 119.843C229.424 126.517 231.708 132.99 232.585 138.045C233.024 140.577 233.102 142.71 232.831 144.318C232.556 145.94 231.956 146.883 231.174 147.293Z" fill="#FFC664" stroke="black" stroke-width="1.5"/>
<mask id="path-16-inside-1_1_43007" fill="white">
<path fill-rule="evenodd" clip-rule="evenodd" d="M96.5641 282.081C92.7134 282.425 89.8704 285.825 90.2141 289.675L94.4494 337.122L414.98 337.125L408.211 261.298C407.868 257.447 404.467 254.604 400.617 254.948L96.5641 282.081Z"/>
</mask>
<path fill-rule="evenodd" clip-rule="evenodd" d="M96.5641 282.081C92.7134 282.425 89.8704 285.825 90.2141 289.675L94.4494 337.122L414.98 337.125L408.211 261.298C407.868 257.447 404.467 254.604 400.617 254.948L96.5641 282.081Z" fill="#A041FF"/>
<path d="M90.2141 289.675L88.7201 289.809L90.2141 289.675ZM96.5641 282.081L96.4307 280.587L96.5641 282.081ZM94.4494 337.122L92.9553 337.256L93.0773 338.622L94.4494 338.622L94.4494 337.122ZM414.98 337.125L414.98 338.625L416.62 338.625L416.474 336.992L414.98 337.125ZM408.211 261.298L406.717 261.431L406.717 261.431L408.211 261.298ZM400.617 254.948L400.75 256.442L400.617 254.948ZM91.7082 289.542C91.4381 286.517 93.6719 283.845 96.6974 283.575L96.4307 280.587C91.7549 281.004 88.3027 285.133 88.7201 289.809L91.7082 289.542ZM95.9434 336.989L91.7082 289.542L88.7201 289.809L92.9553 337.256L95.9434 336.989ZM94.4494 338.622L414.98 338.625L414.98 335.625L94.4494 335.622L94.4494 338.622ZM406.717 261.431L413.486 337.258L416.474 336.992L409.705 261.164L406.717 261.431ZM400.75 256.442C403.776 256.172 406.447 258.405 406.717 261.431L409.705 261.164C409.288 256.489 405.159 253.036 400.483 253.454L400.75 256.442ZM96.6974 283.575L400.75 256.442L400.483 253.454L96.4307 280.587L96.6974 283.575Z" fill="black" mask="url(#path-16-inside-1_1_43007)"/>
<mask id="path-18-inside-2_1_43007" fill="white">
<path fill-rule="evenodd" clip-rule="evenodd" d="M90.985 282.579C87.1343 282.923 84.2913 286.323 84.635 290.173L88.7364 336.121L89.0383 339.502L89.0383 337.123L409.356 337.125L409.267 336.124L402.632 261.796C402.288 257.945 398.888 255.102 395.038 255.446L90.985 282.579Z"/>
</mask>
<path fill-rule="evenodd" clip-rule="evenodd" d="M90.985 282.579C87.1343 282.923 84.2913 286.323 84.635 290.173L88.7364 336.121L89.0383 339.502L89.0383 337.123L409.356 337.125L409.267 336.124L402.632 261.796C402.288 257.945 398.888 255.102 395.038 255.446L90.985 282.579Z" fill="#CFA4FF"/>
<path d="M84.635 290.173L83.141 290.307L84.635 290.173ZM90.985 282.579L90.8516 281.085L90.985 282.579ZM88.7364 336.121L90.2305 335.988L88.7364 336.121ZM89.0383 339.502L87.5442 339.636L90.5383 339.502L89.0383 339.502ZM89.0383 337.123L89.0382 335.623L87.5382 335.623L87.5383 337.123L89.0383 337.123ZM409.356 337.125L409.356 338.625L410.996 338.625L410.85 336.992L409.356 337.125ZM409.267 336.124L410.761 335.991L410.761 335.991L409.267 336.124ZM402.632 261.796L404.126 261.662L404.126 261.662L402.632 261.796ZM395.038 255.446L395.171 256.94L395.038 255.446ZM86.1291 290.04C85.859 287.015 88.0928 284.343 91.1183 284.073L90.8516 281.085C86.1758 281.502 82.7236 285.631 83.141 290.307L86.1291 290.04ZM90.2305 335.988L86.1291 290.04L83.141 290.307L87.2424 336.254L90.2305 335.988ZM90.5323 339.369L90.2305 335.988L87.2424 336.254L87.5442 339.636L90.5323 339.369ZM90.5383 339.502L90.5383 337.123L87.5383 337.123L87.5383 339.502L90.5383 339.502ZM89.0383 338.623L409.356 338.625L409.356 335.625L89.0382 335.623L89.0383 338.623ZM407.773 336.257L407.862 337.259L410.85 336.992L410.761 335.991L407.773 336.257ZM401.138 261.929L407.773 336.257L410.761 335.991L404.126 261.662L401.138 261.929ZM395.171 256.94C398.196 256.67 400.868 258.904 401.138 261.929L404.126 261.662C403.709 256.987 399.58 253.534 394.904 253.952L395.171 256.94ZM91.1183 284.073L395.171 256.94L394.904 253.952L90.8516 281.085L91.1183 284.073Z" fill="#1E1E1E" mask="url(#path-18-inside-2_1_43007)"/>
<rect x="0.813709" y="0.680362" width="293.117" height="14.1827" rx="3.25" transform="matrix(0.996041 -0.0888904 0.0889044 0.99604 95.8099 290.092)" fill="#A041FF" stroke="#1E1E1E" stroke-width="1.5"/>
<mask id="mask1_1_43007" style="mask-type:alpha" maskUnits="userSpaceOnUse" x="85" y="143" width="306" height="162">
<rect width="294.616" height="135.541" transform="matrix(0.996042 -0.088885 -0.0889098 -0.99604 97.1626 304.522)" fill="#D9D9D9"/>
</mask>
<g mask="url(#mask1_1_43007)">
<path d="M105.736 217.989L348.774 188.193C354.162 187.532 359.061 191.355 359.72 196.728L377.178 339.088C377.837 344.461 374.007 349.354 368.619 350.014L125.581 379.81C120.194 380.471 115.295 376.648 114.636 371.275L97.1775 228.916C96.5186 223.543 100.349 218.649 105.736 217.989Z" fill="#F3F5F7" stroke="black" stroke-width="1.5"/>
<path d="M239.286 228.814L247.482 307.504C247.566 308.317 246.505 309.244 244.287 310.135C239.679 312.01 231.779 312.994 226.647 312.38C223.991 312.085 222.587 311.408 222.493 310.512L214.297 231.824C214.382 232.637 215.794 233.388 218.451 233.69C223.583 234.306 231.483 233.32 236.091 231.446C238.31 230.563 239.371 229.629 239.286 228.814Z" fill="#A041FF" stroke="black" stroke-width="1.5" stroke-linejoin="round"/>
<path d="M235.138 226.953C240.27 227.569 240.699 229.57 236.096 231.445C231.488 233.319 223.587 234.304 218.455 233.689C213.322 233.074 212.892 231.072 217.496 229.198C222.105 227.325 230.005 226.339 235.138 226.953Z" fill="#CFA4FF" stroke="black" stroke-width="1.5" stroke-linejoin="round"/>
<path d="M259.224 251.578L265.199 308.945C265.284 309.758 264.223 310.685 262.005 311.576C257.397 313.451 249.496 314.435 244.364 313.821C241.709 313.526 240.304 312.849 240.211 311.953L234.236 254.588C234.321 255.402 235.733 256.152 238.389 256.454C243.521 257.07 251.422 256.084 256.029 254.21C258.249 253.327 259.309 252.393 259.224 251.578Z" fill="#FBE62E" stroke="black" stroke-width="1.5" stroke-linejoin="round"/>
<path d="M255.074 249.718C260.207 250.333 260.636 252.335 256.032 254.209C251.424 256.084 243.523 257.068 238.391 256.454C233.259 255.838 232.829 253.837 237.433 251.963C242.042 250.089 249.941 249.103 255.074 249.718Z" fill="#FBE62E" stroke="black" stroke-width="1.5" stroke-linejoin="round"/>
<path d="M229.523 280.15L231.374 297.915C231.458 298.729 230.397 299.655 228.179 300.547C223.571 302.422 215.67 303.406 210.538 302.791C207.883 302.497 206.478 301.819 206.385 300.924L204.534 283.16C204.619 283.973 206.031 284.723 208.688 285.026C213.82 285.641 221.72 284.656 226.328 282.781C228.548 281.899 229.608 280.965 229.523 280.15Z" fill="#F78400" stroke="black" stroke-width="1.5" stroke-linejoin="round"/>
<path d="M225.373 278.289C230.505 278.905 230.934 280.907 226.33 282.781C221.722 284.656 213.822 285.64 208.69 285.026C203.557 284.41 203.127 282.409 207.731 280.534C212.34 278.661 220.24 277.675 225.373 278.289Z" fill="#FFC664" stroke="black" stroke-width="1.5" stroke-linejoin="round"/>
<path d="M269.758 227.517L366.166 215.66C370.876 215.08 375.199 218.503 375.794 223.331L386.507 310.405C387.002 314.423 384.196 318.061 380.281 318.543L281.004 330.753C277.089 331.235 273.485 328.385 272.991 324.366L262.277 237.293C261.683 232.464 265.048 228.096 269.758 227.517Z" fill="#FFC664" stroke="black" stroke-width="1.5"/>
<g clip-path="url(#clip0_1_43007)">
<path d="M303.949 274.965C304.115 276.507 302.994 277.891 301.445 278.057C299.896 278.224 298.507 277.109 298.341 275.567" stroke="black" stroke-width="2" stroke-linecap="round" stroke-linejoin="round"/>
<path d="M303.949 274.965C303.783 273.423 304.904 272.039 306.453 271.873C308.001 271.706 309.391 272.821 309.556 274.363" stroke="black" stroke-width="2" stroke-linecap="round" stroke-linejoin="round"/>
<path d="M315.169 273.76C315.334 275.302 314.213 276.686 312.665 276.852C311.116 277.019 309.727 275.904 309.561 274.362" stroke="black" stroke-width="2" stroke-linecap="round" stroke-linejoin="round"/>
<path d="M315.169 273.76C315.003 272.218 316.124 270.834 317.672 270.668C319.221 270.501 320.61 271.616 320.776 273.157" stroke="black" stroke-width="2" stroke-linecap="round" stroke-linejoin="round"/>
<path d="M326.386 272.555C326.552 274.096 325.431 275.481 323.883 275.647C322.334 275.814 320.945 274.699 320.779 273.157" stroke="black" stroke-width="2" stroke-linecap="round" stroke-linejoin="round"/>
<path d="M315.169 273.76C315.003 272.218 316.124 270.834 317.672 270.668C319.221 270.501 320.61 271.616 320.776 273.157" stroke="black" stroke-width="2" stroke-linecap="round" stroke-linejoin="round"/>
<path d="M326.386 272.555C326.552 274.096 325.431 275.481 323.883 275.647C322.334 275.814 320.945 274.699 320.779 273.157" stroke="black" stroke-width="2" stroke-linecap="round" stroke-linejoin="round"/>
<path d="M326.386 272.555C326.22 271.013 327.341 269.629 328.89 269.462C330.438 269.296 331.828 270.411 331.993 271.952" stroke="black" stroke-width="2" stroke-linecap="round" stroke-linejoin="round"/>
<path d="M337.606 271.349C337.772 272.891 336.651 274.275 335.102 274.442C333.554 274.608 332.164 273.493 331.999 271.952" stroke="black" stroke-width="2" stroke-linecap="round" stroke-linejoin="round"/>
<path d="M337.606 271.349C337.44 269.808 338.561 268.423 340.109 268.257C341.658 268.091 343.048 269.205 343.213 270.747" stroke="black" stroke-width="2" stroke-linecap="round" stroke-linejoin="round"/>
<path d="M348.826 270.144C348.992 271.686 347.871 273.07 346.322 273.237C344.773 273.403 343.384 272.288 343.218 270.747" stroke="black" stroke-width="2" stroke-linecap="round" stroke-linejoin="round"/>
<path d="M348.101 262.929C346.6 248.96 334.006 238.856 319.973 240.364C305.94 241.872 296.063 254.084 297.236 267.828L297.222 267.83L297.282 268.389C297.376 269.263 298.164 269.893 299.04 269.799L346.633 264.686C347.511 264.592 348.144 263.807 348.051 262.935L348.101 262.929Z" fill="#FBF39B" stroke="black" stroke-width="2" stroke-linecap="round" stroke-linejoin="round"/>
<path d="M348.053 276.048L300.682 281.137C298.372 281.386 296.699 283.452 296.946 285.752L297.109 287.264C297.356 289.564 299.429 291.227 301.74 290.979L349.111 285.89C351.421 285.642 353.094 283.576 352.847 281.276L352.684 279.764C352.437 277.464 350.363 275.8 348.053 276.048Z" fill="#FF8CEE" stroke="black" stroke-width="2" stroke-linecap="round" stroke-linejoin="round"/>
<path d="M303.844 290.744L346.562 286.154C348.765 285.918 350.743 287.504 350.978 289.697L351.183 291.603C351.523 294.766 349.22 297.611 346.041 297.953L306.735 302.176C303.557 302.517 300.702 300.226 300.362 297.062L300.17 295.279C299.927 293.019 301.572 290.988 303.842 290.744L303.844 290.744Z" fill="#FBF39B" stroke="black" stroke-width="2" stroke-linecap="round" stroke-linejoin="round"/>
</g>
</g>
<g clip-path="url(#clip1_1_43007)">
<mask id="path-44-inside-3_1_43007" fill="white">
<path fill-rule="evenodd" clip-rule="evenodd" d="M53.0556 181.044C52.9473 180.913 52.8308 180.791 52.7062 180.68L52.7082 180.678C50.9572 179.717 48.9839 180.359 47.8422 181.926C46.1308 184.273 47.1305 187.246 49.3954 187.969L49.3952 187.97L49.4173 187.976C49.474 187.993 49.5314 188.01 49.5897 188.025L57.3836 190.23C57.3836 190.23 57.8939 190.437 57.819 189.928L57.8193 189.927L53.1505 181.038L53.0556 181.044Z"/>
</mask>
<path fill-rule="evenodd" clip-rule="evenodd" d="M53.0556 181.044C52.9473 180.913 52.8308 180.791 52.7062 180.68L52.7082 180.678C50.9572 179.717 48.9839 180.359 47.8422 181.926C46.1308 184.273 47.1305 187.246 49.3954 187.969L49.3952 187.97L49.4173 187.976C49.474 187.993 49.5314 188.01 49.5897 188.025L57.3836 190.23C57.3836 190.23 57.8939 190.437 57.819 189.928L57.8193 189.927L53.1505 181.038L53.0556 181.044Z" fill="#F0C2B8"/>
<path d="M52.7062 180.68L52.0851 179.896L51.1521 180.635L52.0416 181.427L52.7062 180.68ZM53.0556 181.044L52.2841 181.68L52.6086 182.074L53.1176 182.042L53.0556 181.044ZM52.7082 180.678L53.3293 181.462L54.5097 180.527L53.1894 179.802L52.7082 180.678ZM47.8422 181.926L48.6503 182.515L48.6503 182.515L47.8422 181.926ZM49.3954 187.969L50.3343 188.313L50.6933 187.334L49.6994 187.016L49.3954 187.969ZM49.3952 187.97L48.4563 187.625L48.0851 188.638L49.1232 188.932L49.3952 187.97ZM49.4173 187.976L49.7148 187.021L49.7021 187.017L49.6894 187.014L49.4173 187.976ZM49.5897 188.025L49.8617 187.062L49.8489 187.059L49.8361 187.055L49.5897 188.025ZM57.3836 190.23L57.7602 189.304L57.7089 189.283L57.6556 189.268L57.3836 190.23ZM57.819 189.928L56.8259 189.812L56.8105 189.943L56.8297 190.073L57.819 189.928ZM57.8193 189.927L58.8124 190.043L58.8485 189.736L58.7045 189.462L57.8193 189.927ZM53.1505 181.038L54.0357 180.573L53.7346 180L53.0884 180.04L53.1505 181.038ZM52.0416 181.427C52.1255 181.502 52.2066 181.586 52.2841 181.68L53.8271 180.408C53.688 180.239 53.536 180.08 53.3709 179.933L52.0416 181.427ZM52.0871 179.895L52.0851 179.896L53.3274 181.464L53.3293 181.462L52.0871 179.895ZM48.6503 182.515C49.5499 181.281 50.993 180.877 52.227 181.555L53.1894 179.802C50.9214 178.556 48.4179 179.438 47.0341 181.336L48.6503 182.515ZM49.6994 187.016C48.17 186.528 47.2862 184.386 48.6503 182.515L47.0341 181.336C44.9754 184.161 46.0909 187.963 49.0914 188.922L49.6994 187.016ZM48.4565 187.625L48.4563 187.625L50.3341 188.314L50.3343 188.313L48.4565 187.625ZM49.1232 188.932L49.1453 188.938L49.6894 187.014L49.6672 187.007L49.1232 188.932ZM49.8361 187.055C49.795 187.045 49.7546 187.034 49.7148 187.021L49.1199 188.931C49.1934 188.953 49.2679 188.975 49.3432 188.994L49.8361 187.055ZM49.3176 188.987L57.1116 191.192L57.6556 189.268L49.8617 187.062L49.3176 188.987ZM57.3836 190.23C57.007 191.156 57.0074 191.156 57.0078 191.156C57.0079 191.156 57.0083 191.157 57.0085 191.157C57.009 191.157 57.0095 191.157 57.0101 191.157C57.0111 191.158 57.0122 191.158 57.0134 191.159C57.0156 191.16 57.0181 191.161 57.0206 191.162C57.0258 191.164 57.0317 191.166 57.0381 191.168C57.051 191.173 57.0666 191.179 57.0845 191.185C57.1198 191.197 57.1671 191.211 57.2231 191.225C57.3207 191.249 57.5079 191.287 57.7285 191.265C57.958 191.242 58.3333 191.139 58.5957 190.772C58.8447 190.425 58.8461 190.04 58.8084 189.783L56.8297 190.073C56.8294 190.071 56.7951 189.852 56.9694 189.608C57.1572 189.346 57.419 189.286 57.5303 189.275C57.6327 189.265 57.697 189.282 57.7013 189.283C57.7106 189.286 57.7186 189.288 57.7263 189.291C57.7304 189.292 57.7351 189.294 57.7406 189.296C57.7433 189.297 57.7463 189.298 57.7495 189.299C57.7512 189.3 57.7529 189.301 57.7547 189.301C57.7555 189.302 57.7565 189.302 57.7574 189.302C57.7578 189.303 57.7583 189.303 57.7588 189.303C57.759 189.303 57.7594 189.303 57.7595 189.303C57.7599 189.303 57.7602 189.304 57.3836 190.23ZM58.8122 190.045L58.8124 190.043L56.8261 189.81L56.8259 189.812L58.8122 190.045ZM58.7045 189.462L54.0357 180.573L52.2652 181.503L56.934 190.391L58.7045 189.462ZM53.0884 180.04L52.9936 180.046L53.1176 182.042L53.2125 182.036L53.0884 180.04Z" fill="black" mask="url(#path-44-inside-3_1_43007)"/>
<path d="M54.9327 184.731C55.0117 184.975 57.8193 189.927 57.8193 189.927L57.8175 189.926C57.8923 190.435 57.3821 190.228 57.3821 190.228L52.4023 188.824C52.0284 186.48 54.3888 184.62 54.9327 184.731Z" fill="#030303"/>
<path d="M48.0837 184.314C47.9067 184.752 47.7394 185.283 47.6599 185.861L10.028 153.251L10.0162 153.241L10.004 153.231C8.87836 152.335 8.48359 150.411 9.6698 148.784L9.66996 148.783C10.6028 147.502 12.1707 147.083 13.5498 147.84C13.708 147.927 13.7104 147.929 13.7165 147.935C13.7176 147.937 13.719 147.938 13.7216 147.94C13.733 147.949 13.7461 147.96 13.7619 147.973C13.8417 148.038 13.9879 148.157 14.3068 148.397L49.9965 179.292L49.9978 179.293L51.5231 180.619C50.7481 180.945 49.8262 181.569 48.9389 182.736L48.9388 182.736L48.9319 182.745L49.5359 183.19C48.9319 182.745 48.9318 182.745 48.9316 182.746L48.9313 182.746L48.9305 182.747L48.9285 182.75L48.9227 182.758L48.9042 182.784C48.8889 182.806 48.8679 182.836 48.8423 182.874C48.7911 182.95 48.7208 183.059 48.6397 183.195C48.4781 183.467 48.2701 183.853 48.0837 184.314Z" fill="#00C400" stroke="black" stroke-width="1.5"/>
<path d="M14.6438 154.459L15.6568 153.375C16.3777 152.604 17.2473 152.128 18.149 151.821L13.4172 147.74C13.0813 147.488 12.931 147.365 12.8479 147.297C12.833 147.285 12.8203 147.275 12.8091 147.266C12.8061 147.263 12.8043 147.261 12.8027 147.26C12.7942 147.252 12.7909 147.249 12.6284 147.16L14.6438 154.459ZM14.6438 154.459L14.782 154.475M14.6438 154.459L14.782 154.475M14.782 154.475C14.28 155.219 13.9048 156.017 13.633 156.845L8.95135 152.804L8.94011 152.794L8.92849 152.785C7.75124 151.847 7.34182 149.84 8.57737 148.145L14.782 154.475ZM8.57756 148.144C9.55249 146.808 11.19 146.37 12.6281 147.159L8.57756 148.144Z" fill="#F1C966" stroke="black" stroke-width="1.5"/>
<path d="M47.8642 186.372L15.433 158.37C15.5975 157.791 15.7955 157.23 16.0297 156.691L48.282 184.49C48.0729 185.026 47.8915 185.678 47.8642 186.372Z" fill="#009E00" stroke="black"/>
<path d="M49.2917 182.3C49.1738 182.436 49.0564 182.58 48.9395 182.734L48.9395 182.734L48.9325 182.743L49.5363 183.188C48.9325 182.743 48.9324 182.743 48.9324 182.743L48.9322 182.743L48.9319 182.744L48.9313 182.745L48.9295 182.747L48.9246 182.754L48.9092 182.775C48.8965 182.793 48.8791 182.818 48.8578 182.85C48.8152 182.913 48.7566 183.002 48.6879 183.114C48.551 183.338 48.3717 183.656 48.1992 184.041L48.199 184.041C47.9804 184.53 47.7549 185.163 47.6588 185.864L15.7181 158.285C15.9324 157.563 16.2002 156.87 16.5268 156.218C16.7769 155.719 17.0611 155.245 17.3829 154.799L49.2917 182.3Z" fill="#00FF00" stroke="black" stroke-width="1.5"/>
<path d="M20.2417 153.647L22.5027 153.869L20.8183 152.344L16.4487 148.388L16.216 148.177L15.9027 148.195L15.9454 148.944C15.9027 148.195 15.9023 148.195 15.9018 148.195L15.9008 148.195L15.8984 148.196L15.8924 148.196L15.8751 148.197C15.8613 148.198 15.8429 148.2 15.8204 148.202C15.7753 148.206 15.7131 148.213 15.6361 148.224C15.4823 148.245 15.2682 148.282 15.012 148.345C14.5014 148.471 13.8124 148.705 13.098 149.135C11.641 150.013 10.1448 151.675 9.78831 154.713L9.74196 155.108L10.0429 155.368L14.6621 159.359L16.377 160.841L15.8882 158.646C15.8881 158.645 15.8879 158.643 15.8877 158.641C15.8858 158.624 15.8825 158.585 15.883 158.524C15.8839 158.403 15.8998 158.195 15.9736 157.902C16.1204 157.32 16.5016 156.387 17.479 155.145L17.4839 155.139C17.4929 155.129 17.5077 155.112 17.5278 155.09C17.5682 155.045 17.63 154.979 17.7101 154.899C17.8715 154.739 18.1024 154.527 18.3803 154.322C18.962 153.894 19.6257 153.586 20.2417 153.647Z" fill="#1551F1" stroke="black" stroke-width="1.5"/>
<path d="M18.2862 154.35L18.9411 153.808L18.322 153.226L14.0489 149.205L13.6393 148.819L13.1546 149.105C11.6796 149.973 10.1498 151.634 9.78855 154.713L9.7422 155.108L10.0432 155.368L14.6623 159.359L16.3773 160.841L15.8885 158.646C15.8883 158.645 15.8881 158.643 15.8879 158.641C15.886 158.624 15.8827 158.585 15.8832 158.524C15.8842 158.403 15.9 158.195 15.9738 157.902C16.1209 157.319 16.503 156.384 17.4838 155.139L17.4909 155.131C17.4989 155.121 17.512 155.106 17.5298 155.085C17.5654 155.044 17.6199 154.983 17.6907 154.908C17.8331 154.757 18.038 154.555 18.2862 154.35Z" fill="#1551F1" stroke="black" stroke-width="1.5"/>
<path d="M16.5696 156.488L16.8634 155.966L16.4205 155.564C15.8174 155.016 15.2211 154.458 14.6223 153.897C13.7626 153.092 12.8979 152.283 12.0007 151.492L11.2833 150.86L10.8403 151.707C10.4604 152.434 9.9354 153.46 9.7886 154.711L9.74225 155.106L10.0432 155.366L14.6624 159.357L16.3605 160.825L15.8893 158.648C15.8882 158.639 15.8862 158.619 15.8851 158.588C15.8826 158.518 15.8845 158.393 15.9121 158.214C15.967 157.857 16.1257 157.275 16.5696 156.488Z" fill="#1551F1" stroke="black" stroke-width="1.5"/>
</g>
</g>
<defs>
<clipPath id="clip0_1_43007">
<rect width="57.686" height="61.6636" fill="white" transform="matrix(0.994279 -0.106816 0.106865 0.994273 291.491 242.609)"/>
</clipPath>
<clipPath id="clip1_1_43007">
<rect width="57.7222" height="42.7819" fill="white" transform="matrix(0.993157 0.116788 -0.116538 0.993186 5.08301 144.238)"/>
</clipPath>
</defs>
</svg>
