<svg width="213" height="111" viewBox="0 0 213 111" fill="none" xmlns="http://www.w3.org/2000/svg">
    <path d="M183.944 34.498C190.678 39.1717 196.71 44.6856 201.878 50.8897" stroke="black" stroke-width="4" stroke-linecap="round" stroke-linejoin="round"/>
    <path d="M185.439 52.3797L198.889 31.5176" stroke="black" stroke-width="4" stroke-linecap="round" stroke-linejoin="round"/>
    <circle cx="56.4905" cy="55.4998" r="54.9998" fill="white" stroke="white"/>
    <mask id="path-4-inside-1_2883_65474" fill="white">
        <path fill-rule="evenodd" clip-rule="evenodd" d="M2.12684 44.2655C10.4536 38.2605 20.6776 34.7226 31.7279 34.7226C59.7074 34.7226 82.3893 57.4045 82.3893 85.3839C82.3893 93.0479 80.6875 100.314 77.6411 106.826C71.1222 109.516 63.9789 110.999 56.489 110.999C25.8374 110.999 0.989258 86.1512 0.989258 55.4995C0.989258 51.6507 1.38102 47.8935 2.12684 44.2655Z"/>
    </mask>
    <path fill-rule="evenodd" clip-rule="evenodd" d="M2.12684 44.2655C10.4536 38.2605 20.6776 34.7226 31.7279 34.7226C59.7074 34.7226 82.3893 57.4045 82.3893 85.3839C82.3893 93.0479 80.6875 100.314 77.6411 106.826C71.1222 109.516 63.9789 110.999 56.489 110.999C25.8374 110.999 0.989258 86.1512 0.989258 55.4995C0.989258 51.6507 1.38102 47.8935 2.12684 44.2655Z" fill="#030000"/>
    <path d="M2.12684 44.2655L1.54192 43.4544L1.2258 43.6824L1.14732 44.0642L2.12684 44.2655ZM77.6411 106.826L78.0225 107.751L78.3821 107.602L78.5469 107.25L77.6411 106.826ZM2.71177 45.0766C10.8739 39.1904 20.8945 35.7227 31.7279 35.7227V33.7227C20.4607 33.7227 10.0333 37.3308 1.54192 43.4544L2.71177 45.0766ZM31.7279 35.7227C59.1551 35.7227 81.3893 57.9568 81.3893 85.384H83.3893C83.3893 56.8522 60.2597 33.7227 31.7279 33.7227V35.7227ZM81.3893 85.384C81.3893 92.8985 79.7209 100.021 76.7354 106.403L78.5469 107.25C81.654 100.608 83.3893 93.1974 83.3893 85.384H81.3893ZM77.2598 105.902C70.8597 108.542 63.8458 109.999 56.489 109.999V111.999C64.112 111.999 71.3847 110.489 78.0225 107.751L77.2598 105.902ZM56.489 109.999C26.3896 109.999 1.98926 85.5989 1.98926 55.4995H-0.0107422C-0.0107422 86.7035 25.2851 111.999 56.489 111.999V109.999ZM1.98926 55.4995C1.98926 51.7188 2.37408 48.0291 3.10636 44.4669L1.14732 44.0642C0.387961 47.7581 -0.0107422 51.5828 -0.0107422 55.4995H1.98926Z" fill="white" mask="url(#path-4-inside-1_2883_65474)"/>
    <circle cx="69.2975" cy="52.9381" r="17.6461" fill="white"/>
    <circle cx="156.512" cy="55.4998" r="54.9998" fill="white" stroke="white"/>
    <mask id="path-8-inside-2_2883_65474" fill="white">
        <path fill-rule="evenodd" clip-rule="evenodd" d="M102.148 44.2655C110.475 38.2606 120.699 34.7227 131.749 34.7227C159.729 34.7227 182.411 57.4045 182.411 85.384C182.411 93.048 180.709 100.315 177.663 106.826C171.144 109.516 164 110.999 156.511 110.999C125.859 110.999 101.011 86.1512 101.011 55.4995C101.011 51.6508 101.403 47.8936 102.148 44.2655Z"/>
    </mask>
    <path fill-rule="evenodd" clip-rule="evenodd" d="M102.148 44.2655C110.475 38.2606 120.699 34.7227 131.749 34.7227C159.729 34.7227 182.411 57.4045 182.411 85.384C182.411 93.048 180.709 100.315 177.663 106.826C171.144 109.516 164 110.999 156.511 110.999C125.859 110.999 101.011 86.1512 101.011 55.4995C101.011 51.6508 101.403 47.8936 102.148 44.2655Z" fill="#030000"/>
    <path d="M102.148 44.2655L101.563 43.4544L101.247 43.6824L101.169 44.0642L102.148 44.2655ZM177.663 106.826L178.044 107.751L178.404 107.602L178.568 107.25L177.663 106.826ZM102.733 45.0766C110.895 39.1904 120.916 35.7227 131.749 35.7227V33.7227C120.482 33.7227 110.055 37.3308 101.563 43.4544L102.733 45.0766ZM131.749 35.7227C159.177 35.7227 181.411 57.9568 181.411 85.384H183.411C183.411 56.8522 160.281 33.7227 131.749 33.7227V35.7227ZM181.411 85.384C181.411 92.8985 179.742 100.021 176.757 106.403L178.568 107.25C181.675 100.608 183.411 93.1974 183.411 85.384H181.411ZM177.281 105.902C170.881 108.542 163.867 109.999 156.511 109.999V111.999C164.133 111.999 171.406 110.489 178.044 107.751L177.281 105.902ZM156.511 109.999C126.411 109.999 102.011 85.5989 102.011 55.4995H100.011C100.011 86.7035 125.307 111.999 156.511 111.999V109.999ZM102.011 55.4995C102.011 51.7188 102.396 48.029 103.128 44.4669L101.169 44.0642C100.409 47.7581 100.011 51.5828 100.011 55.4995H102.011Z" fill="white" mask="url(#path-8-inside-2_2883_65474)"/>
    <circle cx="169.319" cy="52.9381" r="17.6461" fill="white"/>
</svg>
