<svg width="513" height="468" viewBox="0 0 513 468" fill="none" xmlns="http://www.w3.org/2000/svg">
<path d="M354.677 117.556C376.125 116.538 398.24 129.733 415.873 157.343C450.926 212.24 454.994 303.272 424.963 360.709C410.051 389.241 389.528 404.109 368.355 405.114L342.738 406.332L329.059 118.774L354.677 117.556Z" fill="black" stroke="black" stroke-width="3" stroke-miterlimit="10"/>
<path d="M390.255 158.562C374.928 134.557 356.197 121.448 337.471 119.105C313.396 116.096 289.316 130.888 272.429 163.196C242.409 220.611 246.494 311.666 281.53 366.539C316.583 421.436 369.325 419.343 399.345 361.928C429.377 304.491 425.308 213.458 390.255 158.562Z" fill="#EEA7AB" stroke="black" stroke-width="3" stroke-miterlimit="10"/>
<path d="M324.342 244.931C327.007 239.827 330.761 237.068 334.734 236.912C338.705 236.756 342.693 239.21 345.808 244.088C348.926 248.969 350.651 255.446 350.943 261.952C351.234 268.458 350.094 275.049 347.42 280.158C344.753 285.268 340.998 288.027 337.026 288.182C333.056 288.336 329.07 285.879 325.954 281.001C322.837 276.121 321.111 269.643 320.819 263.137C320.528 256.631 321.668 250.04 324.342 244.931ZM324.342 244.931L324.785 245.163L324.343 244.931C324.342 244.931 324.342 244.931 324.342 244.931ZM354.864 292.731L354.865 292.73C359.406 284.05 361.379 272.775 360.878 261.569C360.378 250.413 357.428 239.38 352.177 231.095L352.167 231.09L352.095 230.977C346.794 222.683 340.218 218.803 333.93 219.053C327.643 219.303 321.44 223.69 316.903 232.375C312.367 241.058 310.395 252.324 310.897 263.52C311.399 274.715 314.372 285.787 319.668 294.084C324.969 302.378 331.547 306.267 337.838 306.026C344.127 305.785 350.331 301.41 354.864 292.731Z" fill="white" stroke="black"/>
<path d="M310.521 310.539L310.943 310.27L310.521 310.539C302.434 297.88 297.934 281.032 297.174 264.065C296.414 247.098 299.392 229.957 306.32 216.71C313.252 203.454 322.888 196.478 332.918 196.089C342.947 195.701 353.168 201.904 361.253 214.56C369.348 227.23 373.852 244.073 374.611 261.034C375.37 277.996 372.388 295.131 365.455 308.389C358.534 321.637 348.902 328.618 338.871 329.012C328.842 329.406 318.615 323.207 310.521 310.539ZM372.9 320.962C381.694 304.143 385.505 282.318 384.535 260.65C383.565 238.984 377.816 217.53 367.55 201.455C357.283 185.377 344.466 177.75 332.112 178.234C319.76 178.717 307.671 187.317 298.875 204.138C290.08 220.956 286.269 242.782 287.239 264.449C288.21 286.116 293.958 307.569 304.224 323.644C314.497 339.725 327.314 347.352 339.666 346.868C352.017 346.384 364.104 337.782 372.9 320.962Z" fill="white" stroke="black"/>
<path d="M382.995 171.895L382.345 170.876C367.214 147.716 348.442 136.68 330.294 137.392C311.882 138.114 293.91 150.937 280.852 175.912C267.8 200.875 262.151 233.254 263.589 265.383C265.027 297.512 273.55 329.336 288.785 353.19C304.025 377.054 323.083 388.431 341.497 387.714C359.91 386.997 377.882 374.181 390.934 349.217C403.991 324.243 409.643 291.859 408.205 259.724C406.766 227.589 398.239 195.76 382.995 171.895ZM383.495 336.633C372.306 358.034 356.783 369.236 340.685 369.867C324.589 370.498 308.121 360.552 295.06 340.101C281.997 319.647 274.719 292.422 273.49 264.989C272.261 237.556 277.079 209.859 288.269 188.456C299.457 167.056 314.981 155.854 331.079 155.222C347.175 154.591 363.643 164.537 376.704 184.989C389.766 205.443 397.045 232.667 398.274 260.1C399.503 287.534 394.685 315.231 383.495 336.633Z" fill="white" stroke="black"/>
<path d="M334.31 265.558C335.326 267.148 336.862 267.081 337.725 265.419C338.588 263.757 338.471 261.118 337.455 259.528C336.439 257.939 334.909 257.994 334.04 259.668C333.177 261.33 333.294 263.969 334.31 265.558Z" fill="#BD55DF"/>
<path d="M52.7226 279.762L43.7712 287.309L57.6276 286.689L69.5687 278.192L70.1809 278.982L61.2308 286.527C64.6085 286.374 69.8551 286.135 71.6388 286.061C77.6545 285.789 83.2624 282.97 87.4588 280.114C90.3705 278.132 92.5786 276.148 93.7406 275.03L38.7337 277.497L29.3772 285.389L29.3769 285.389L26.1734 288.087L40.1863 287.463L52.1103 278.973L52.7226 279.762Z" fill="white" stroke="black" stroke-miterlimit="10"/>
<path d="M34.2267 278.134C33.6591 279.228 32.6576 279.274 31.9931 278.235C31.3286 277.196 31.2481 275.469 31.8157 274.376C32.3833 273.282 33.3848 273.236 34.0493 274.275C34.7138 275.314 34.7944 277.041 34.2267 278.134Z" fill="#FCD475" stroke="black" stroke-miterlimit="10"/>
<path d="M32.8973 273.519L335.662 259.959C336.073 259.932 336.497 260.18 336.832 260.708C337.496 261.747 337.577 263.474 337.009 264.568C336.731 265.103 336.339 265.395 335.945 265.417L33.1685 278.971C33.5624 278.949 33.949 278.668 34.2328 278.122C34.8005 277.028 34.7199 275.301 34.0554 274.262C33.7205 273.734 33.2969 273.486 32.8861 273.513L32.8973 273.519Z" fill="#FCD475" stroke="black" stroke-miterlimit="10"/>
<path d="M23.9891 278.957C24.3779 279.555 24.7845 279.733 25.0791 279.72C25.3719 279.707 25.7576 279.496 26.0857 278.864C26.4125 278.235 26.5682 277.389 26.5304 276.526C26.4925 275.663 26.2633 274.838 25.8789 274.247C25.4902 273.65 25.0836 273.472 24.789 273.485C24.4962 273.497 24.1105 273.708 23.7824 274.34C23.4556 274.969 23.2999 275.816 23.3377 276.678C23.3756 277.542 23.6048 278.366 23.9891 278.957Z" fill="#EEA7AB" stroke="black"/>
<path d="M26.9734 279.326C26.9152 279.438 26.8529 279.545 26.7867 279.646L36.0149 279.23C36.3099 279.207 36.686 278.991 37.0064 278.373C37.3326 277.745 37.4847 276.901 37.4448 276.038C37.405 275.177 37.1764 274.351 36.7988 273.755C36.404 273.155 36.0003 272.981 35.7052 272.998L35.7052 272.998L35.6989 272.998L26.5117 273.412C26.5843 273.505 26.6537 273.603 26.7196 273.706C27.2201 274.488 27.4831 275.496 27.5274 276.487C27.5717 277.478 27.3997 278.505 26.9734 279.326Z" fill="#EEA7AB" stroke="black"/>
<path d="M38.9188 266.718L38.9191 266.72L40.3291 273.816L49.527 273.404L48.5085 271.147L45.0909 263.576C41.7837 263.727 39.3992 263.832 38.3448 263.876L38.9188 266.718ZM49.9593 273.384L60.6969 272.903L59.6766 270.642L56.2591 263.071C53.6669 263.19 51.1806 263.3 48.9184 263.4C48.6023 263.414 48.2907 263.428 47.9838 263.441L49.4546 270.844L49.9593 273.384ZM60.6228 270.339L61.1283 272.883L79.0112 272.082L77.9902 269.825L74.5615 262.247C73.3208 262.303 72.0369 262.361 70.7253 262.421C66.9765 262.59 63.0004 262.77 59.152 262.937L60.6228 270.339ZM78.9362 269.522L79.441 272.062L95.8881 271.325C95.8866 270.419 95.7565 268.348 94.7091 266.37C94.0525 265.129 93.0367 263.928 91.4593 263.066C89.8799 262.202 87.7043 261.661 84.7009 261.797L84.7007 261.797C83.9113 261.832 83.0293 261.871 82.0693 261.913C80.6823 261.974 79.1328 262.043 77.4652 262.118L78.9362 269.522Z" fill="white" stroke="black" stroke-miterlimit="10"/>
<path d="M70.5706 239.531L60.6019 245.668C63.9614 246.018 69.1925 246.566 70.9617 246.753C76.9558 247.377 82.9171 245.418 87.4879 243.214C90.6517 241.689 93.1234 240.059 94.444 239.125L39.6877 233.411L29.2696 239.83L29.269 239.83L25.6994 242.023L39.6601 243.48L52.7081 236.849L53.1968 237.72L43.2278 243.858L57.017 245.296L70.082 238.659L70.5706 239.531Z" fill="white" stroke="black" stroke-miterlimit="10"/>
<path d="M35.1431 233.37C34.4139 234.366 33.4315 234.266 32.9258 233.14C32.42 232.013 32.6036 230.296 33.3216 229.294C34.0508 228.299 35.0332 228.398 35.5389 229.525C36.0447 230.652 35.8611 232.369 35.1431 233.37Z" fill="#FCD475" stroke="black" stroke-miterlimit="10"/>
<path d="M34.5069 228.619L335.952 260.052C336.356 260.092 336.74 260.39 336.995 260.962C337.501 262.089 337.317 263.806 336.599 264.807C336.243 265.302 335.818 265.521 335.425 265.487L33.98 234.053C34.3731 234.088 34.7981 233.869 35.1542 233.374C35.8834 232.379 36.0558 230.655 35.5501 229.529C35.2945 228.957 34.9169 228.648 34.5069 228.619Z" fill="#FCD475" stroke="black" stroke-miterlimit="10"/>
<path d="M25.3846 228.084L25.3846 228.084L25.383 228.086C24.9693 228.658 24.6912 229.468 24.6003 230.326C24.5095 231.183 24.6116 232.033 24.9014 232.681C25.1927 233.332 25.568 233.566 25.8605 233.597C26.1531 233.627 26.5667 233.474 26.9813 232.901C27.395 232.329 27.6731 231.519 27.764 230.662C27.8548 229.804 27.7527 228.954 27.4629 228.307L27.4629 228.307L27.4617 228.304C27.1719 227.646 26.7917 227.41 26.4993 227.388L26.4993 227.388L26.4931 227.387C26.202 227.361 25.7876 227.521 25.3846 228.084Z" fill="#EEA7AB" stroke="black"/>
<path d="M28.2195 227.574C28.2801 227.679 28.3362 227.79 28.3875 227.907C28.7599 228.75 28.868 229.785 28.7652 230.77C28.6623 231.755 28.3431 232.745 27.8032 233.492C27.7296 233.595 27.6522 233.692 27.5715 233.783L36.7529 234.745C37.0389 234.769 37.4427 234.609 37.8613 234.043C38.2742 233.471 38.5518 232.662 38.6425 231.806C38.7333 230.949 38.6313 230.099 38.3418 229.452C38.0433 228.792 37.6668 228.561 37.3672 228.532L37.3642 228.531L28.2195 227.574Z" fill="#EEA7AB" stroke="black"/>
<path d="M41.3419 219.898C41.3314 219.897 41.3209 219.896 41.3107 219.895L41.363 220.958L41.378 220.929L41.4656 222.783L41.8068 230.006L50.9612 230.962L50.289 228.585L48.0284 220.594C46.0742 220.392 44.4458 220.222 43.2264 220.095L42.8808 220.059C42.2232 219.99 41.7051 219.936 41.3419 219.898ZM51.3915 231.006L62.0878 232.123L61.415 229.744L59.1545 221.753C57.2201 221.555 55.3459 221.358 53.5808 221.173C52.6598 221.076 51.7684 220.982 50.9137 220.893L51.2696 228.426L51.3915 231.006ZM62.3956 229.585L62.5176 232.167L80.3233 234.025L79.6478 231.647L77.3762 223.649C72.9013 223.185 67.8451 222.655 62.9552 222.143L62.0395 222.047L62.3956 229.585ZM80.6282 231.487L80.7502 234.07L97.1177 235.778C97.25 234.881 97.4278 232.814 96.686 230.703C96.2207 229.379 95.3947 228.041 93.9631 226.954C92.5297 225.867 90.4591 225.009 87.4694 224.699L87.4685 224.699C86.5515 224.602 85.5101 224.494 84.3663 224.376C84.2296 224.362 84.0915 224.347 83.952 224.333C82.813 224.215 81.5793 224.088 80.2722 223.95L80.6282 231.487Z" fill="white" stroke="black" stroke-miterlimit="10"/>
</svg>
