<svg width="141" height="141" viewBox="0 0 141 141" fill="none" xmlns="http://www.w3.org/2000/svg">
<path d="M47.1553 62.301H54.9333V70.089H47.1553V62.301Z" fill="black"/>
<path d="M86.0518 62.301H93.8298V70.089H86.0518V62.301Z" fill="black"/>
<path d="M47.1592 7.78809H54.9372V15.5761H47.1592V7.78809Z" fill="black"/>
<path d="M54.9268 7.78809H62.7048V15.5761H54.9268V7.78809Z" fill="black"/>
<path d="M62.709 7.78809H70.487V15.5761H62.709V7.78809Z" fill="black"/>
<path d="M70.4902 7.78809H78.2683V15.5761H70.4902V7.78809Z" fill="black"/>
<path d="M78.2588 7.78809H86.0368V15.5761H78.2588V7.78809Z" fill="black"/>
<path d="M86.04 7.78809H93.8181V15.5761H86.04V7.78809Z" fill="black"/>
<path d="M31.5947 15.576H39.3728V23.364H31.5947V15.576Z" fill="black"/>
<path d="M39.377 15.576H47.155V23.364H39.377V15.576Z" fill="black"/>
<path d="M93.8223 15.576H101.6V23.364H93.8223V15.576Z" fill="black"/>
<path d="M101.59 15.576H109.368V23.364H101.59V15.576Z" fill="black"/>
<path d="M23.8125 23.3641H31.5905V31.1521H23.8125V23.3641Z" fill="black"/>
<path d="M109.372 23.3641H117.15V31.1521H109.372V23.3641Z" fill="black"/>
<path d="M16.0303 31.152H23.8083V38.94H16.0303V31.152Z" fill="black"/>
<path d="M117.154 31.152H124.932V38.94H117.154V31.152Z" fill="black"/>
<path d="M16.0303 38.9399H23.8083V46.7279H16.0303V38.9399Z" fill="black"/>
<path d="M47.1592 38.9399H54.9372V46.7279H47.1592V38.9399Z" fill="black"/>
<path d="M86.04 38.9399H93.8181V46.7279H86.04V38.9399Z" fill="black"/>
<path d="M117.154 38.9399H124.932V46.7279H117.154V38.9399Z" fill="black"/>
<path d="M8.2627 46.728H16.0407V54.516H8.2627V46.728Z" fill="black"/>
<path d="M47.1592 46.728H54.9372V54.516H47.1592V46.728Z" fill="black"/>
<path d="M86.04 46.728H93.8181V54.516H86.04V46.728Z" fill="black"/>
<path d="M124.922 46.728H132.7V54.516H124.922V46.728Z" fill="black"/>
<path d="M8.2627 54.5131H16.0407V62.301H8.2627V54.5131Z" fill="black"/>
<path d="M47.1592 54.5131H54.9372V62.301H47.1592V54.5131Z" fill="black"/>
<path d="M86.04 54.5131H93.8181V62.301H86.04V54.5131Z" fill="black"/>
<path d="M124.922 54.5131H132.7V62.301H124.922V54.5131Z" fill="black"/>
<path d="M8.2627 62.301H16.0407V70.089H8.2627V62.301Z" fill="black"/>
<path d="M124.922 62.301H132.7V70.089H124.922V62.301Z" fill="black"/>
<path d="M8.2627 70.089H16.0407V77.877H8.2627V70.089Z" fill="black"/>
<path d="M124.922 70.089H132.7V77.877H124.922V70.089Z" fill="black"/>
<path d="M8.2627 77.877H16.0407V85.6649H8.2627V77.877Z" fill="black"/>
<path d="M124.922 77.877H132.7V85.6649H124.922V77.877Z" fill="black"/>
<path d="M8.2627 85.6649H16.0407V93.4529H8.2627V85.6649Z" fill="black"/>
<path d="M124.922 85.6649H132.7V93.4529H124.922V85.6649Z" fill="black"/>
<path d="M16.0303 93.453H23.8083V101.241H16.0303V93.453Z" fill="black"/>
<path d="M117.154 93.453H124.932V101.241H117.154V93.453Z" fill="black"/>
<path d="M16.0303 101.241H23.8083V109.029H16.0303V101.241Z" fill="black"/>
<path d="M117.154 101.241H124.932V109.029H117.154V101.241Z" fill="black"/>
<path d="M23.8125 109.029H31.5905V116.817H23.8125V109.029Z" fill="black"/>
<path d="M109.372 109.029H117.15V116.817H109.372V109.029Z" fill="black"/>
<path d="M31.5947 116.817H39.3728V124.605H31.5947V116.817Z" fill="black"/>
<path d="M39.377 116.817H47.155V124.605H39.377V116.817Z" fill="black"/>
<path d="M93.8223 116.817H101.6V124.605H93.8223V116.817Z" fill="black"/>
<path d="M101.59 116.817H109.368V124.605H101.59V116.817Z" fill="black"/>
<path d="M47.1592 124.605H54.9372V132.393H47.1592V124.605Z" fill="black"/>
<path d="M54.9268 124.605H62.7048V132.393H54.9268V124.605Z" fill="black"/>
<path d="M62.709 124.605H70.487V132.393H62.709V124.605Z" fill="black"/>
<path d="M70.4902 124.605H78.2683V132.393H70.4902V124.605Z" fill="black"/>
<path d="M78.2588 124.605H86.0368V132.393H78.2588V124.605Z" fill="black"/>
<path d="M86.04 124.605H93.8181V132.393H86.04V124.605Z" fill="black"/>
<path d="M47.1484 15.576H54.9265V23.364H47.1484V15.576Z" fill="#FF9565"/>
<path d="M54.9307 15.576H62.7087V23.364H54.9307V15.576Z" fill="#FF9565"/>
<path d="M62.6982 15.576H70.4763V23.364H62.6982V15.576Z" fill="#FF9565"/>
<path d="M70.4805 15.576H78.2585V23.364H70.4805V15.576Z" fill="#FF9565"/>
<path d="M78.2617 15.576H86.0398V23.364H78.2617V15.576Z" fill="#FF9565"/>
<path d="M86.0303 15.576H93.8083V23.364H86.0303V15.576Z" fill="#FF9565"/>
<path d="M31.5986 23.364H39.3767V31.152H31.5986V23.364Z" fill="#FF9565"/>
<path d="M39.3662 23.364H47.1443V31.152H39.3662V23.364Z" fill="#FF9565"/>
<path d="M47.1484 23.364H54.9265V31.152H47.1484V23.364Z" fill="#FF9565"/>
<path d="M54.9307 23.364H62.7087V31.152H54.9307V23.364Z" fill="#FF9565"/>
<path d="M62.6982 23.364H70.4763V31.152H62.6982V23.364Z" fill="#FF9565"/>
<path d="M70.4805 23.364H78.2585V31.152H70.4805V23.364Z" fill="#FF9565"/>
<path d="M78.2617 23.364H86.0398V31.152H78.2617V23.364Z" fill="#FF9565"/>
<path d="M86.0303 23.364H93.8083V31.152H86.0303V23.364Z" fill="#FF9565"/>
<path d="M93.8115 23.364H101.59V31.152H93.8115V23.364Z" fill="#FF9565"/>
<path d="M101.594 23.364H109.372V31.152H101.594V23.364Z" fill="#FF9565"/>
<path d="M23.8018 31.1521H31.5798V38.9401H23.8018V31.1521Z" fill="#FF9565"/>
<path d="M31.5986 31.1521H39.3767V38.9401H31.5986V31.1521Z" fill="#FF9565"/>
<path d="M39.3662 31.1521H47.1443V38.9401H39.3662V31.1521Z" fill="#FF9565"/>
<path d="M47.1484 31.1521H54.9265V38.9401H47.1484V31.1521Z" fill="#FF9565"/>
<path d="M54.9307 31.1521H62.7087V38.9401H54.9307V31.1521Z" fill="#FF9565"/>
<path d="M62.6982 31.1521H70.4763V38.9401H62.6982V31.1521Z" fill="#FF9565"/>
<path d="M70.4805 31.1521H78.2585V38.9401H70.4805V31.1521Z" fill="#FF9565"/>
<path d="M78.2617 31.1521H86.0398V38.9401H78.2617V31.1521Z" fill="#FF9565"/>
<path d="M86.0303 31.1521H93.8083V38.9401H86.0303V31.1521Z" fill="#FF9565"/>
<path d="M93.8115 31.1521H101.59V38.9401H93.8115V31.1521Z" fill="#FF9565"/>
<path d="M101.594 31.1521H109.372V38.9401H101.594V31.1521Z" fill="#FF9565"/>
<path d="M109.376 31.1521H117.154V38.9401H109.376V31.1521Z" fill="#FF9565"/>
<path d="M23.8018 38.9399H31.5798V46.7279H23.8018V38.9399Z" fill="#FF9565"/>
<path d="M31.5986 38.9399H39.3767V46.7279H31.5986V38.9399Z" fill="#FF9565"/>
<path d="M39.3662 38.9399H47.1443V46.7279H39.3662V38.9399Z" fill="#FF9565"/>
<path d="M54.9307 38.9399H62.7087V46.7279H54.9307V38.9399Z" fill="#FF9565"/>
<path d="M62.6982 38.9399H70.4763V46.7279H62.6982V38.9399Z" fill="#FF9565"/>
<path d="M70.4805 38.9399H78.2585V46.7279H70.4805V38.9399Z" fill="#FF9565"/>
<path d="M78.2617 38.9399H86.0398V46.7279H78.2617V38.9399Z" fill="#FF9565"/>
<path d="M93.8115 38.9399H101.59V46.7279H93.8115V38.9399Z" fill="#FF9565"/>
<path d="M101.594 38.9399H109.372V46.7279H101.594V38.9399Z" fill="#FF9565"/>
<path d="M109.376 38.9399H117.154V46.7279H109.376V38.9399Z" fill="#FF9565"/>
<path d="M16.0342 46.7279H23.8122V54.5159H16.0342V46.7279Z" fill="#FF9565"/>
<path d="M23.8018 46.7279H31.5798V54.5159H23.8018V46.7279Z" fill="#FF9565"/>
<path d="M31.5986 46.7279H39.3767V54.5159H31.5986V46.7279Z" fill="#FF9565"/>
<path d="M39.3662 46.7279H47.1443V54.5159H39.3662V46.7279Z" fill="#FF9565"/>
<path d="M54.9307 46.7279H62.7087V54.5159H54.9307V46.7279Z" fill="#FF9565"/>
<path d="M62.6982 46.7279H70.4763V54.5159H62.6982V46.7279Z" fill="#FF9565"/>
<path d="M70.4805 46.7279H78.2585V54.5159H70.4805V46.7279Z" fill="#FF9565"/>
<path d="M78.2617 46.7279H86.0398V54.5159H78.2617V46.7279Z" fill="#FF9565"/>
<path d="M93.8115 46.7279H101.59V54.5159H93.8115V46.7279Z" fill="#FF9565"/>
<path d="M101.594 46.7279H109.372V54.5159H101.594V46.7279Z" fill="#FF9565"/>
<path d="M109.376 46.7279H117.154V54.5159H109.376V46.7279Z" fill="#FF9565"/>
<path d="M117.144 46.7279H124.922V54.5159H117.144V46.7279Z" fill="#FF9565"/>
<path d="M16.0342 54.516H23.8122V62.304H16.0342V54.516Z" fill="#FF9565"/>
<path d="M23.8018 54.516H31.5798V62.304H23.8018V54.516Z" fill="#FF9565"/>
<path d="M31.5986 54.516H39.3767V62.304H31.5986V54.516Z" fill="#FF9565"/>
<path d="M39.3662 54.516H47.1443V62.304H39.3662V54.516Z" fill="#FF9565"/>
<path d="M54.9307 54.516H62.7087V62.304H54.9307V54.516Z" fill="#FF9565"/>
<path d="M62.6982 54.516H70.4763V62.304H62.6982V54.516Z" fill="#FF9565"/>
<path d="M70.4805 54.516H78.2585V62.304H70.4805V54.516Z" fill="#FF9565"/>
<path d="M78.2617 54.516H86.0398V62.304H78.2617V54.516Z" fill="#FF9565"/>
<path d="M93.8115 54.516H101.59V62.304H93.8115V54.516Z" fill="#FF9565"/>
<path d="M101.594 54.516H109.372V62.304H101.594V54.516Z" fill="#FF9565"/>
<path d="M109.376 54.516H117.154V62.304H109.376V54.516Z" fill="#FF9565"/>
<path d="M117.144 54.516H124.922V62.304H117.144V54.516Z" fill="#FF9565"/>
<path d="M16.0342 62.304H23.8122V70.0919H16.0342V62.304Z" fill="#FF9565"/>
<path d="M23.8018 62.304H31.5798V70.0919H23.8018V62.304Z" fill="#FF9565"/>
<path d="M31.5986 62.304H39.3767V70.0919H31.5986V62.304Z" fill="#FF9565"/>
<path d="M39.3662 62.304H47.1443V70.0919H39.3662V62.304Z" fill="#FF9565"/>
<path d="M54.9307 62.304H62.7087V70.0919H54.9307V62.304Z" fill="#FF9565"/>
<path d="M62.6982 62.304H70.4763V70.0919H62.6982V62.304Z" fill="#FF9565"/>
<path d="M70.4805 62.304H78.2585V70.0919H70.4805V62.304Z" fill="#FF9565"/>
<path d="M78.2617 62.304H86.0398V70.0919H78.2617V62.304Z" fill="#FF9565"/>
<path d="M93.8115 62.304H101.59V70.0919H93.8115V62.304Z" fill="#FF9565"/>
<path d="M101.594 62.304H109.372V70.0919H101.594V62.304Z" fill="#FF9565"/>
<path d="M109.376 62.304H117.154V70.0919H109.376V62.304Z" fill="#FF9565"/>
<path d="M117.144 62.304H124.922V70.0919H117.144V62.304Z" fill="#FF9565"/>
<path d="M16.0342 70.0919H23.8122V77.8799H16.0342V70.0919Z" fill="#FF9565"/>
<path d="M23.8018 70.0919H31.5798V77.8799H23.8018V70.0919Z" fill="#FF9565"/>
<path d="M31.5986 70.0919H39.3767V77.8799H31.5986V70.0919Z" fill="#FF9565"/>
<path d="M39.3662 70.0919H47.1443V77.8799H39.3662V70.0919Z" fill="#FF9565"/>
<path d="M47.1484 70.0919H54.9265V77.8799H47.1484V70.0919Z" fill="#FF9565"/>
<path d="M54.9307 70.0919H62.7087V77.8799H54.9307V70.0919Z" fill="#FF9565"/>
<path d="M62.6982 70.0919H70.4763V77.8799H62.6982V70.0919Z" fill="#FF9565"/>
<path d="M70.4805 70.0919H78.2585V77.8799H70.4805V70.0919Z" fill="#FF9565"/>
<path d="M78.2617 70.0919H86.0398V77.8799H78.2617V70.0919Z" fill="#FF9565"/>
<path d="M86.0303 70.0919H93.8083V77.8799H86.0303V70.0919Z" fill="#FF9565"/>
<path d="M93.8115 70.0919H101.59V77.8799H93.8115V70.0919Z" fill="#FF9565"/>
<path d="M101.594 70.0919H109.372V77.8799H101.594V70.0919Z" fill="#FF9565"/>
<path d="M109.376 70.0919H117.154V77.8799H109.376V70.0919Z" fill="#FF9565"/>
<path d="M117.144 70.0919H124.922V77.8799H117.144V70.0919Z" fill="#FF9565"/>
<path d="M16.0342 77.8799H23.8122V85.6679H16.0342V77.8799Z" fill="#FF9565"/>
<path d="M23.8018 77.8799H31.5798V85.6679H23.8018V77.8799Z" fill="#FF9565"/>
<path d="M39.3662 77.8799H47.1443V85.6679H39.3662V77.8799Z" fill="#FF9565"/>
<path d="M47.1484 77.8799H54.9265V85.6679H47.1484V77.8799Z" fill="#FF9565"/>
<path d="M54.9307 77.8799H62.7087V85.6679H54.9307V77.8799Z" fill="#FF9565"/>
<path d="M62.6982 77.8799H70.4763V85.6679H62.6982V77.8799Z" fill="#FF9565"/>
<path d="M70.4805 77.8799H78.2585V85.6679H70.4805V77.8799Z" fill="#FF9565"/>
<path d="M78.2617 77.8799H86.0398V85.6679H78.2617V77.8799Z" fill="#FF9565"/>
<path d="M86.0303 77.8799H93.8083V85.6679H86.0303V77.8799Z" fill="#FF9565"/>
<path d="M93.8115 77.8799H101.59V85.6679H93.8115V77.8799Z" fill="#FF9565"/>
<path d="M109.376 77.8799H117.154V85.6679H109.376V77.8799Z" fill="#FF9565"/>
<path d="M117.144 77.8799H124.922V85.6679H117.144V77.8799Z" fill="#FF9565"/>
<path d="M16.0342 85.6649H23.8122V93.4529H16.0342V85.6649Z" fill="#FF9565"/>
<path d="M23.8018 85.6649H31.5798V93.4529H23.8018V85.6649Z" fill="#FF9565"/>
<path d="M109.376 85.6649H117.154V93.4529H109.376V85.6649Z" fill="#FF9565"/>
<path d="M117.144 85.6649H124.922V93.4529H117.144V85.6649Z" fill="#FF9565"/>
<path d="M23.8018 93.4558H31.5798V101.244H23.8018V93.4558Z" fill="#FF9565"/>
<path d="M31.5986 93.4558H39.3767V101.244H31.5986V93.4558Z" fill="#FF9565"/>
<path d="M101.594 93.4558H109.372V101.244H101.594V93.4558Z" fill="#FF9565"/>
<path d="M109.376 93.4558H117.154V101.244H109.376V93.4558Z" fill="#FF9565"/>
<path d="M23.8018 101.241H31.5798V109.029H23.8018V101.241Z" fill="#FF9565"/>
<path d="M31.5986 101.241H39.3767V109.029H31.5986V101.241Z" fill="#FF9565"/>
<path d="M39.3662 101.241H47.1443V109.029H39.3662V101.241Z" fill="#FF9565"/>
<path d="M93.8115 101.241H101.59V109.029H93.8115V101.241Z" fill="#FF9565"/>
<path d="M101.594 101.241H109.372V109.029H101.594V101.241Z" fill="#FF9565"/>
<path d="M109.376 101.241H117.154V109.029H109.376V101.241Z" fill="#FF9565"/>
<path d="M31.5986 109.029H39.3767V116.817H31.5986V109.029Z" fill="#FF9565"/>
<path d="M39.3662 109.029H47.1443V116.817H39.3662V109.029Z" fill="#FF9565"/>
<path d="M47.1484 109.029H54.9265V116.817H47.1484V109.029Z" fill="#FF9565"/>
<path d="M54.9307 109.029H62.7087V116.817H54.9307V109.029Z" fill="#FF9565"/>
<path d="M62.6982 109.029H70.4763V116.817H62.6982V109.029Z" fill="#FF9565"/>
<path d="M70.4805 109.029H78.2585V116.817H70.4805V109.029Z" fill="#FF9565"/>
<path d="M78.2617 109.029H86.0398V116.817H78.2617V109.029Z" fill="#FF9565"/>
<path d="M86.0303 109.029H93.8083V116.817H86.0303V109.029Z" fill="#FF9565"/>
<path d="M93.8115 109.029H101.59V116.817H93.8115V109.029Z" fill="#FF9565"/>
<path d="M101.594 109.029H109.372V116.817H101.594V109.029Z" fill="#FF9565"/>
<path d="M47.1484 116.817H54.9265V124.605H47.1484V116.817Z" fill="#FF9565"/>
<path d="M54.9307 116.817H62.7087V124.605H54.9307V116.817Z" fill="#FF9565"/>
<path d="M62.6982 116.817H70.4763V124.605H62.6982V116.817Z" fill="#FF9565"/>
<path d="M70.4805 116.817H78.2585V124.605H70.4805V116.817Z" fill="#FF9565"/>
<path d="M78.2617 116.817H86.0398V124.605H78.2617V116.817Z" fill="#FF9565"/>
<path d="M86.0303 116.817H93.8083V124.605H86.0303V116.817Z" fill="#FF9565"/>
<path d="M31.5986 77.8799H39.3767V85.6679H31.5986V77.8799Z" fill="#FF9565"/>
<path d="M101.594 77.8799H109.372V85.6679H101.594V77.8799Z" fill="#FF9565"/>
<path d="M31.5986 85.6678H39.3767V93.4558H31.5986V85.6678Z" fill="#FF9565"/>
<path d="M101.594 85.6678H109.372V93.4558H101.594V85.6678Z" fill="#FF9565"/>
<path d="M47.1484 101.244H54.9265V109.032H47.1484V101.244Z" fill="#FF9565"/>
<path d="M54.9307 101.244H62.7087V109.032H54.9307V101.244Z" fill="#FF9565"/>
<path d="M62.6982 101.244H70.4763V109.032H62.6982V101.244Z" fill="#FF9565"/>
<path d="M70.4805 101.244H78.2585V109.032H70.4805V101.244Z" fill="#FF9565"/>
<path d="M78.2617 101.244H86.0398V109.032H78.2617V101.244Z" fill="#FF9565"/>
<path d="M86.0303 101.244H93.8083V109.032H86.0303V101.244Z" fill="#FF9565"/>
<path d="M39.3662 85.6678H47.1443V93.4558H39.3662V85.6678Z" fill="#FF9565"/>
<path d="M93.8115 85.6678H101.59V93.4558H93.8115V85.6678Z" fill="#FF9565"/>
<path d="M47.1484 93.4558H54.9265V101.244H47.1484V93.4558Z" fill="#FF9565"/>
<path d="M54.9307 93.4558H62.7087V101.244H54.9307V93.4558Z" fill="#FF9565"/>
<path d="M62.6982 93.4558H70.4763V101.244H62.6982V93.4558Z" fill="#FF9565"/>
<path d="M70.4805 93.4558H78.2585V101.244H70.4805V93.4558Z" fill="#FF9565"/>
<path d="M78.2617 93.4558H86.0398V101.244H78.2617V93.4558Z" fill="#FF9565"/>
<path d="M86.0303 93.4558H93.8083V101.244H86.0303V93.4558Z" fill="#FF9565"/>
<path d="M47.1377 85.6678H54.9157V93.4558H47.1377V85.6678Z" fill="black"/>
<path d="M54.9346 85.6678H62.7126V93.4558H54.9346V85.6678Z" fill="black"/>
<path d="M62.7021 85.6678H70.4802V93.4558H62.7021V85.6678Z" fill="black"/>
<path d="M70.4844 85.6678H78.2624V93.4558H70.4844V85.6678Z" fill="black"/>
<path d="M78.2666 85.6678H86.0446V93.4558H78.2666V85.6678Z" fill="black"/>
<path d="M86.0342 85.6678H93.8122V93.4558H86.0342V85.6678Z" fill="black"/>
<path d="M39.3701 93.4558H47.1482V101.244H39.3701V93.4558Z" fill="black"/>
<path d="M93.8164 93.4558H101.594V101.244H93.8164V93.4558Z" fill="black"/>
<path d="M47.1631 0H54.9411V7.78798H47.1631V0Z" fill="white"/>
<path d="M54.9453 0H62.7234V7.78798H54.9453V0Z" fill="white"/>
<path d="M62.7266 0H70.5046V7.78798H62.7266V0Z" fill="white"/>
<path d="M39.3955 7.78796H47.1735V15.5759H39.3955V7.78796Z" fill="white"/>
<path d="M31.6133 7.78796H39.3913V15.5759H31.6133V7.78796Z" fill="white"/>
<path d="M23.8311 15.576H31.6091V23.364H23.8311V15.576Z" fill="white"/>
<path d="M16.0635 23.3639H23.8415V31.1519H16.0635V23.3639Z" fill="white"/>
<path d="M8.2666 31.1519H16.0446V38.9398H8.2666V31.1519Z" fill="white"/>
<path d="M8.2666 38.9399H16.0446V46.7279H8.2666V38.9399Z" fill="white"/>
<path d="M0.499023 46.7279H8.27707V54.5159H0.499023V46.7279Z" fill="white"/>
<path d="M0.499023 54.5159H8.27707V62.3038H0.499023V54.5159Z" fill="white"/>
<path d="M0.499023 62.3038H8.27707V70.0918H0.499023V62.3038Z" fill="white"/>
<path d="M93.8366 0H86.0586V7.78798H93.8366V0Z" fill="white"/>
<path d="M86.0544 0H78.2764V7.78798H86.0544V0Z" fill="white"/>
<path d="M78.2732 0H70.4951V7.78798H78.2732V0Z" fill="white"/>
<path d="M101.604 7.78796H93.8262V15.5759H101.604V7.78796Z" fill="white"/>
<path d="M109.386 7.78796H101.608V15.5759H109.386V7.78796Z" fill="white"/>
<path d="M117.169 15.576H109.391V23.364H117.169V15.576Z" fill="white"/>
<path d="M124.936 23.3639H117.158V31.1519H124.936V23.3639Z" fill="white"/>
<path d="M132.718 31.1519H124.94V38.9398H132.718V31.1519Z" fill="white"/>
<path d="M132.718 38.9399H124.94V46.7279H132.718V38.9399Z" fill="white"/>
<path d="M140.501 46.7279H132.723V54.5159H140.501V46.7279Z" fill="white"/>
<path d="M140.501 54.5159H132.723V62.3038H140.501V54.5159Z" fill="white"/>
<path d="M140.501 62.3038H132.723V70.0918H140.501V62.3038Z" fill="white"/>
<path d="M47.1631 140.181H54.9411V132.393H47.1631V140.181Z" fill="white"/>
<path d="M54.9453 140.181H62.7234V132.393H54.9453V140.181Z" fill="white"/>
<path d="M62.7266 140.181H70.5046V132.393H62.7266V140.181Z" fill="white"/>
<path d="M39.3955 132.393H47.1735V124.605H39.3955V132.393Z" fill="white"/>
<path d="M31.6133 132.393H39.3913V124.605H31.6133V132.393Z" fill="white"/>
<path d="M23.8311 124.605H31.6091V116.817H23.8311V124.605Z" fill="white"/>
<path d="M16.0635 116.817H23.8415V109.029H16.0635V116.817Z" fill="white"/>
<path d="M8.2666 109.029H16.0446V101.241H8.2666V109.029Z" fill="white"/>
<path d="M8.2666 101.241H16.0446V93.4528H8.2666V101.241Z" fill="white"/>
<path d="M0.499023 93.4557H8.27707V85.6677H0.499023V93.4557Z" fill="white"/>
<path d="M0.499023 85.6648H8.27707V77.8768H0.499023V85.6648Z" fill="white"/>
<path d="M0.499023 77.8798H8.27707V70.0918H0.499023V77.8798Z" fill="white"/>
<path d="M93.8366 140.181H86.0586V132.393H93.8366V140.181Z" fill="white"/>
<path d="M86.0544 140.181H78.2764V132.393H86.0544V140.181Z" fill="white"/>
<path d="M78.2732 140.181H70.4951V132.393H78.2732V140.181Z" fill="white"/>
<path d="M101.604 132.393H93.8262V124.605H101.604V132.393Z" fill="white"/>
<path d="M109.386 132.393H101.608V124.605H109.386V132.393Z" fill="white"/>
<path d="M117.169 124.605H109.391V116.817H117.169V124.605Z" fill="white"/>
<path d="M124.936 116.817H117.158V109.029H124.936V116.817Z" fill="white"/>
<path d="M132.718 109.029H124.94V101.241H132.718V109.029Z" fill="white"/>
<path d="M132.718 101.241H124.94V93.4528H132.718V101.241Z" fill="white"/>
<path d="M140.501 93.4557H132.723V85.6677H140.501V93.4557Z" fill="white"/>
<path d="M140.501 85.6648H132.723V77.8768H140.501V85.6648Z" fill="white"/>
<path d="M140.501 77.8798H132.723V70.0918H140.501V77.8798Z" fill="white"/>
</svg>
