<svg width="191" height="264" viewBox="0 0 191 264" fill="none" xmlns="http://www.w3.org/2000/svg">
<g clip-path="url(#clip0_797_15983)">
<path d="M185.349 194.695L189.001 192.253V150.955L185.349 153.039V194.695Z" fill="#F6E9DA" stroke="#111010" stroke-miterlimit="10"/>
<path d="M83.9043 161.399L185.348 194.696V153.04L83.9043 95.0981V161.399Z" fill="#F6E9DA" stroke="#111010" stroke-miterlimit="10"/>
<path d="M185.348 153.039L189.001 150.956L87.5652 93.0134L83.9043 95.097L185.348 153.039Z" fill="white"/>
<path d="M185.348 153.039L189.001 150.956L87.5652 93.0134L83.9043 95.097L185.348 153.039Z" stroke="black" stroke-miterlimit="10"/>
<path d="M137.23 136.556C137.23 137.777 136.366 138.274 135.297 137.663C134.227 137.053 133.363 135.572 133.363 134.343C133.363 133.114 134.227 132.625 135.297 133.236C136.366 133.846 137.23 135.327 137.23 136.556Z" fill="#CBCCCD"/>
<path d="M101.855 153.868L186.533 202.239L100.49 251.594L11.7891 191.902L101.855 153.868Z" fill="#282A35"/>
<path d="M97.742 96.665L5.77539 149.195V191.014L97.742 138.484V96.665Z" fill="#E8BB52" stroke="#111010" stroke-miterlimit="10"/>
<path d="M2.44336 189.112L5.77519 191.016V149.198L2.44336 147.301V189.112Z" fill="#CBCCCD"/>
<path d="M5.77519 149.196L97.7418 96.6664L94.41 94.77L2.44336 147.3L5.77519 149.196Z" fill="#282A35"/>
<path d="M176.833 147.993V156.677V157.141V200.889L80.4902 145.86V102.113V101.641V92.9644L176.833 147.993Z" fill="#F6E9DA" stroke="#111010" stroke-miterlimit="10"/>
<path d="M160.051 157.584V166.268V166.732V210.48L63.708 155.451V111.703V111.231V102.547L160.051 157.584Z" fill="#F6E9DA" stroke="#111010" stroke-miterlimit="10"/>
<path d="M93.8339 128.959C94.9281 128.332 96.4418 128.413 98.1036 129.365L118.786 141.183C122.093 143.072 124.783 147.687 124.775 151.447C124.775 153.311 124.1 154.629 123.014 155.248L120.513 156.68C121.591 156.062 122.266 154.743 122.274 152.879C122.282 149.119 119.592 144.504 116.285 142.616L95.6027 130.798C93.9409 129.846 92.4272 129.764 91.333 130.391L93.8339 128.959Z" fill="#F6E9DA" stroke="#111010" stroke-miterlimit="10"/>
<path d="M116.293 142.616L95.6113 130.798C92.3041 128.91 89.5975 130.44 89.5811 134.2C89.5729 137.309 91.4156 140.996 93.9166 143.251C95.3151 145.969 91.8599 149.388 91.8599 149.388C91.8599 149.388 95.9897 149.201 97.3471 145.481L116.26 156.282C119.568 158.17 122.274 156.64 122.291 152.879C122.299 149.119 119.609 144.504 116.302 142.616H116.293ZM116.26 155.525L97.5363 144.83C97.5939 144.602 97.6433 144.358 97.6844 144.106C96.4833 142.722 94.8709 142.559 94.04 142.575C91.8352 140.565 90.231 137.318 90.2392 134.575C90.2474 131.221 92.6579 129.862 95.603 131.547L116.293 143.365C119.238 145.05 121.632 149.144 121.624 152.497C121.616 155.842 119.206 157.201 116.26 155.517V155.525Z" fill="#F6E9DA" stroke="#111010" stroke-miterlimit="10"/>
<path d="M95.6119 131.547C92.6667 129.862 90.2563 131.221 90.2481 134.575C90.2398 137.92 92.6256 142.022 95.579 143.707L116.269 155.525C119.214 157.209 121.625 155.85 121.633 152.505C121.641 149.152 119.256 145.058 116.302 143.373L95.6119 131.555V131.547Z" fill="black" stroke="#111010" stroke-miterlimit="10"/>
<path d="M112.936 144.969C112.319 144.619 111.76 144.587 111.357 144.815L110.592 145.254C110.995 145.018 111.554 145.051 112.171 145.409C113.397 146.109 114.393 147.81 114.384 149.21C114.384 149.901 114.138 150.39 113.734 150.618L114.499 150.178C114.903 149.95 115.149 149.462 115.149 148.77C115.149 147.37 114.162 145.669 112.936 144.969Z" fill="#F6E9DA"/>
<path d="M112.171 145.408C110.945 144.708 109.941 145.27 109.941 146.67C109.941 148.061 110.929 149.771 112.154 150.47C113.38 151.17 114.384 150.609 114.384 149.209C114.384 147.809 113.397 146.108 112.171 145.408Z" fill="#E8BB52" stroke="#111010" stroke-miterlimit="10"/>
<path d="M105.945 140.971C105.328 140.621 104.769 140.589 104.366 140.817L103.601 141.256C104.004 141.02 104.563 141.053 105.18 141.411C106.414 142.111 107.401 143.812 107.393 145.212C107.393 145.904 107.146 146.392 106.743 146.62L107.508 146.18C107.911 145.953 108.158 145.464 108.158 144.772C108.158 143.372 107.171 141.679 105.945 140.971Z" fill="#F6E9DA"/>
<path d="M105.187 141.41C103.962 140.71 102.958 141.272 102.958 142.672C102.958 144.063 103.945 145.773 105.171 146.473C106.405 147.173 107.4 146.611 107.4 145.211C107.4 143.811 106.413 142.118 105.187 141.41Z" fill="#E8BB52" stroke="#111010" stroke-miterlimit="10"/>
<path d="M97.3803 136.83L96.6152 137.27C97.0183 137.034 97.5778 137.066 98.1948 137.424L98.9599 136.985C98.3428 136.635 97.7834 136.602 97.3803 136.83Z" stroke="#111010" stroke-miterlimit="10"/>
<path d="M98.9599 136.985C98.3428 136.635 97.7834 136.602 97.3803 136.83L96.6152 137.27C97.0183 137.034 97.5778 137.066 98.1948 137.424C99.4288 138.124 100.416 139.825 100.408 141.225C100.408 141.917 100.161 142.405 99.7578 142.633L100.523 142.194C100.926 141.966 101.173 141.478 101.173 140.786C101.173 139.386 100.186 137.693 98.9599 136.985Z" fill="#F6E9DA"/>
<path d="M98.1943 137.424C96.9685 136.724 95.9648 137.285 95.9648 138.685C95.9648 140.077 96.952 141.786 98.1778 142.486C99.4118 143.186 100.407 142.624 100.407 141.225C100.407 139.825 99.4201 138.132 98.1943 137.424Z" fill="#E8BB52" stroke="#111010" stroke-miterlimit="10"/>
<path d="M139.616 165.613V174.298V174.762V218.509L43.2725 163.481V119.733V119.261V110.585L139.616 165.613Z" fill="#F6E9DA" stroke="#111010" stroke-miterlimit="10"/>
<path d="M122.833 175.203V183.887V184.351V228.099L26.4893 173.07V129.322V128.85V120.174L122.833 175.203Z" fill="#F6E9DA" stroke="#111010" stroke-miterlimit="10"/>
<path d="M189.405 150.645L97.4385 203.175L98.763 258.097L104.662 259.18L189.405 210.777V150.645Z" fill="#1E1F27"/>
<path d="M94.1143 254.511L97.4379 256.407V214.596L94.1143 212.692V254.511Z" fill="#CBCCCD"/>
<path d="M97.4379 203.2L189.404 150.67L186.073 148.766L94.1143 201.295L97.4379 203.2Z" fill="#282A35"/>
<path d="M92.772 170.643L53.1356 148.008C51.6959 147.186 50.3879 147.113 49.45 147.658L47.7471 148.635C48.6931 148.09 50.0012 148.163 51.4326 148.985L91.069 171.62C93.9237 173.248 96.2519 177.244 96.2436 180.491L96.0298 189.501C96.0298 191.113 95.4456 192.252 94.5078 192.79L96.2107 191.813C97.1486 191.276 97.7245 190.136 97.7327 188.525L97.9466 179.515C97.9548 176.267 95.6266 172.279 92.772 170.643Z" fill="#FFEFD4" stroke="black" stroke-miterlimit="10"/>
<path d="M51.441 148.986C48.5863 147.358 46.2417 148.676 46.2334 151.924L46.0196 160.934C46.0113 164.181 48.3395 168.17 51.1942 169.806L90.8306 192.44C93.6852 194.068 96.0299 192.75 96.0381 189.502L96.252 180.492C96.2602 177.245 93.932 173.257 91.0774 171.621L51.441 148.986Z" fill="white"/>
<path d="M51.441 148.986C48.5863 147.358 46.2417 148.676 46.2334 151.924L46.0196 160.934C46.0113 164.181 48.3395 168.17 51.1942 169.806L90.8306 192.44C93.6852 194.068 96.0299 192.75 96.0381 189.502L96.252 180.492C96.2602 177.245 93.932 173.257 91.0774 171.621L51.441 148.986Z" stroke="black" stroke-miterlimit="10"/>
<path d="M89.3896 188.128L90.5743 187.444C90.8375 187.298 90.9939 186.972 91.0021 186.525L89.8174 187.208C89.8174 187.664 89.6529 187.982 89.3896 188.128Z" fill="black" stroke="#111010" stroke-miterlimit="10"/>
<path d="M80.9493 171.409L79.7646 172.093C80.0279 171.939 80.3981 171.963 80.8012 172.191L81.9859 171.515C81.5828 171.287 81.2126 171.263 80.9493 171.418V171.409Z" fill="black"/>
<path d="M89.8174 187.206L91.002 186.523L91.0185 178.335L89.8421 179.01L89.8174 187.206Z" fill="black"/>
<path d="M88.395 176.53L89.5714 175.854L81.9863 171.516L80.6865 172.134L88.395 176.53Z" fill="black"/>
<path d="M89.8424 179.012L91.0271 178.329C91.0271 177.417 90.3772 176.302 89.5792 175.846L88.3945 176.53C89.2008 176.986 89.8507 178.101 89.8424 179.012Z" fill="black"/>
<path d="M81.1878 172.41C80.3816 171.954 79.7317 172.321 79.7317 173.232L79.707 181.42C79.707 182.332 80.3569 183.447 81.1549 183.903L88.3616 188.021C89.1678 188.477 89.8177 188.111 89.8177 187.199L89.8424 179.011C89.8424 178.099 89.1924 176.984 88.3945 176.529L81.1878 172.41Z" fill="#AAD1CD" stroke="#050001" stroke-miterlimit="10"/>
<path d="M74.9773 170.766L50.8648 156.995C50.4781 156.775 50.1326 156.759 49.8858 156.897L48.7012 157.581C48.948 157.434 49.3017 157.459 49.6802 157.678L73.7927 171.45C74.5496 171.881 75.1666 172.939 75.1666 173.802C75.1666 174.233 75.0103 174.534 74.7634 174.673L75.9481 173.989C76.1949 173.851 76.3512 173.541 76.3512 173.118C76.3512 172.255 75.7424 171.197 74.9773 170.766Z" fill="black" stroke="#111010" stroke-miterlimit="10"/>
<path d="M49.6799 157.671C48.9231 157.239 48.2979 157.581 48.2979 158.452C48.2979 159.315 48.9066 160.373 49.6717 160.804L73.7843 174.575C74.5411 175.007 75.1664 174.665 75.1664 173.794C75.1664 172.931 74.5576 171.873 73.7925 171.442L49.6799 157.671Z" fill="#CCCCCC" stroke="black" stroke-miterlimit="10"/>
<path d="M108.091 227.821L108.132 225.99L188.622 180.94V182.738L108.091 227.821Z" fill="white"/>
<path d="M108.091 233.918L108.132 228.978L188.696 183.553V188.461L108.091 233.918Z" fill="#EDC774"/>
<path d="M102.268 263.291L105.92 261.207V194.906L102.268 196.998V263.291Z" fill="#F6E9DA" stroke="#111010" stroke-miterlimit="10"/>
<path d="M0.823242 205.349L102.267 263.291V196.998L0.823242 139.056V205.349Z" fill="#F6E9DA" stroke="#111010" stroke-miterlimit="10"/>
<path d="M102.267 196.998L105.92 194.907L4.47591 136.964L0.823242 139.056L102.267 196.998Z" fill="#F6E9DA" stroke="#111010" stroke-miterlimit="10"/>
<path d="M21.3649 4.87462L31.8869 14.4788L96.9686 58.5357C96.9686 58.5357 90.634 113.768 97.6761 113.768C104.718 113.768 105.343 110.154 105.343 110.154C105.343 110.154 105.343 51.4059 105.343 47.8979C105.343 44.39 101.798 42.2168 101.798 42.2168C101.798 42.2168 31.3357 2.20499 29.1968 0.959709C27.0578 -0.285574 26.0953 0.959709 26.0953 0.959709L21.332 4.36999L21.3567 4.87462H21.3649Z" fill="#FFEFD4" stroke="black" stroke-miterlimit="10"/>
<path d="M21.752 64.1352L21.8013 50.3883V6.78707C21.8013 6.78707 22.0728 4.84182 23.8169 4.70346C25.5609 4.56509 97.4461 47.4745 97.4461 47.4745C97.4461 47.4745 99.8648 48.9069 99.8648 52.5288V109.283C99.8648 109.283 100.07 111.692 97.5366 111.692C95.2742 111.692 36.5847 77.5566 24.0801 70.264C24.0801 70.264 21.7684 68.4408 21.7684 64.1352H21.752Z" fill="#EEA7AB" stroke="black" stroke-width="2" stroke-miterlimit="10"/>
<path d="M74.4938 62.1832C74.4938 62.1832 74.4938 62.118 74.4938 62.0855C74.4938 62.0529 74.4938 62.0204 74.4938 61.9878C74.4938 61.9553 74.4938 61.9227 74.4856 61.8902C74.4856 61.8576 74.4774 61.825 74.4691 61.7843C74.4691 61.7518 74.4609 61.7192 74.4527 61.6867C74.4527 61.6541 74.4362 61.6134 74.428 61.5809C74.428 61.5483 74.4116 61.5076 74.4033 61.4751C74.3951 61.4425 74.3869 61.4018 74.3704 61.3693C74.3704 61.3448 74.354 61.3123 74.3457 61.2879C74.3457 61.2879 74.3457 61.2797 74.3457 61.2716C74.3375 61.239 74.3211 61.1983 74.3128 61.1658C74.3046 61.1332 74.2882 61.0925 74.2799 61.06C74.2717 61.0274 74.2553 60.9949 74.2388 60.9623C74.2223 60.9297 74.2141 60.8972 74.1977 60.8646C74.1894 60.8402 74.173 60.8158 74.1648 60.7914C74.1648 60.7914 74.1648 60.7832 74.1648 60.7751C74.1483 60.7425 74.1318 60.71 74.1154 60.6774C74.0989 60.6449 74.0825 60.6042 74.066 60.5716C74.0414 60.5309 74.0249 60.4902 74.0002 60.4495C73.9755 60.4088 73.9509 60.36 73.9262 60.3193C73.9262 60.3193 73.918 60.303 73.9097 60.2949C73.9097 60.2867 73.9015 60.2786 73.8933 60.2705C73.8439 60.1891 73.7946 60.1077 73.737 60.0263C73.6958 59.9612 73.6547 59.9042 73.6053 59.8391C73.5724 59.7984 73.5478 59.7577 73.5148 59.717C73.4902 59.6845 73.4655 59.6519 73.4326 59.6193C73.4079 59.5868 73.3832 59.5542 73.3503 59.5298C73.3256 59.4973 73.301 59.4728 73.268 59.4403C73.268 59.4403 73.2598 59.4321 73.2516 59.424C73.2269 59.3996 73.2105 59.3833 73.1858 59.3589C73.1529 59.3263 73.1282 59.3019 73.0953 59.2694C73.0624 59.2368 73.0377 59.2124 73.0048 59.188C72.9719 59.1636 72.9472 59.131 72.9143 59.1066C72.8978 59.0903 72.8814 59.0822 72.8649 59.0659C72.8649 59.0659 72.8649 59.0659 72.8567 59.0659C72.8485 59.0577 72.832 59.0496 72.8238 59.0333C72.7909 59.0089 72.7662 58.9845 72.7333 58.9682C72.7004 58.9438 72.6757 58.9275 72.6428 58.9031C72.6099 58.8868 72.5852 58.8624 72.5523 58.8461C72.5194 58.8299 72.4947 58.8136 72.4618 58.7892C72.4618 58.7892 72.4454 58.7892 72.4454 58.781L51.3849 46.7514C51.3849 46.7514 51.3438 46.727 51.3191 46.7107C51.2945 46.6944 51.2615 46.6782 51.2369 46.67C51.2122 46.6537 51.1793 46.6456 51.1546 46.6293C51.1299 46.6131 51.097 46.6049 51.0723 46.5968C51.0476 46.5886 51.0147 46.5724 50.9901 46.5642C50.9901 46.5642 50.9818 46.5642 50.9736 46.5642C50.9489 46.5642 50.9325 46.5479 50.9078 46.5479C50.8749 46.5398 50.8502 46.5317 50.8255 46.5235C50.8008 46.5235 50.7679 46.5072 50.7433 46.5072C50.7104 46.5072 50.6857 46.4991 50.6528 46.491C50.6363 46.491 50.6116 46.491 50.5952 46.491C50.5952 46.491 50.5952 46.491 50.587 46.491C50.587 46.491 50.5705 46.491 50.5623 46.491C50.5294 46.491 50.4965 46.491 50.4635 46.491C50.4306 46.491 50.3895 46.491 50.3566 46.491C50.3155 46.491 50.2743 46.4991 50.2332 46.5072C50.1838 46.5154 50.1427 46.5317 50.0933 46.5479C50.0358 46.5724 49.9782 46.5968 49.9288 46.6212L44.2441 49.885C44.3346 49.828 44.4416 49.7954 44.5485 49.771C44.6555 49.7466 44.7789 49.7466 44.9023 49.7547C44.9023 49.7547 44.9023 49.7547 44.9105 49.7547C45.0339 49.7629 45.1655 49.7954 45.2972 49.8361C45.4288 49.885 45.5769 49.9419 45.7167 50.0315L66.7772 62.0611C66.917 62.1425 67.0569 62.2401 67.1885 62.3459H67.1967C67.3283 62.4599 67.4517 62.582 67.5751 62.7041C67.822 62.9645 68.0358 63.2575 68.2251 63.5749C68.2251 63.5749 68.2333 63.5912 68.2415 63.5994C68.332 63.754 68.4143 63.9168 68.4883 64.0796C68.5624 64.2424 68.6282 64.4133 68.6775 64.5842C68.7269 64.7551 68.768 64.926 68.7927 65.0888C68.8174 65.2597 68.8338 65.4225 68.8338 65.5853L68.7845 81.8228C68.7845 81.9856 68.768 82.1321 68.7433 82.2623C68.7433 82.2623 68.7433 82.2623 68.7433 82.2705C68.7187 82.4007 68.6775 82.5228 68.6282 82.6367C68.587 82.7263 68.5295 82.7995 68.4719 82.8728C68.4554 82.8972 68.439 82.9216 68.4143 82.946C68.3485 83.0193 68.2744 83.0844 68.1839 83.1332L73.8686 79.8694C73.9509 79.8206 74.0249 79.7555 74.0989 79.6822C74.1236 79.6578 74.1401 79.6334 74.1565 79.609C74.1812 79.5764 74.2059 79.552 74.2306 79.5194C74.2553 79.4788 74.2882 79.4299 74.3128 79.3811C74.3293 79.3485 74.3457 79.316 74.354 79.2753C74.3704 79.2427 74.3787 79.202 74.3869 79.1695C74.3951 79.1369 74.4033 79.1044 74.4116 79.0637C74.4116 79.0474 74.4116 79.0311 74.4198 79.0148C74.4198 79.0148 74.4198 79.0148 74.4198 79.0067C74.4198 78.9904 74.4198 78.9741 74.428 78.966C74.428 78.9334 74.4362 78.9009 74.4445 78.8683C74.4445 78.8358 74.4445 78.8032 74.4527 78.7707C74.4527 78.7381 74.4527 78.7055 74.4527 78.673C74.4527 78.6404 74.4527 78.6079 74.4527 78.5753L74.5021 62.3297C74.5021 62.2971 74.5021 62.2646 74.5021 62.2401L74.4938 62.1832Z" fill="#F5E8DB" stroke="black" stroke-miterlimit="10"/>
<path d="M66.7361 61.9966C67.8796 62.6477 68.8092 64.243 68.8092 65.5452L68.7598 81.7828C68.7598 83.085 67.822 83.6141 66.6785 82.9548L45.6181 70.9252C44.4663 70.2659 43.5449 68.6788 43.5449 67.3765L43.5943 51.139C43.5943 49.8368 44.5321 49.3077 45.6839 49.967L66.7443 61.9966H66.7361Z" fill="#FCD475" stroke="black" stroke-miterlimit="10"/>
<path d="M55.7777 59.9357C57.3161 60.8148 58.5665 62.9553 58.5583 64.6971C58.5583 65.6738 58.1634 66.3087 57.5547 66.5447L57.5382 71.5177C57.5382 72.6409 56.732 73.0967 55.7365 72.5269C54.7493 71.9653 53.9431 70.5898 53.9513 69.4666L53.9678 64.4936C53.3672 63.5658 52.9724 62.4833 52.9806 61.5147C52.9806 59.7648 54.2393 59.0567 55.7777 59.9357Z" fill="black"/>
<path d="M54.4627 41.3484C54.4627 41.3484 54.4709 41.2996 54.4792 41.2751C54.5121 41.1042 54.5532 40.9496 54.6026 40.7949C54.6108 40.7624 54.619 40.738 54.6355 40.7054C54.6848 40.5589 54.7424 40.4205 54.8 40.2822C54.8 40.2659 54.8082 40.2578 54.8165 40.2415C54.8905 40.095 54.9645 39.9485 55.055 39.8182C55.0633 39.802 55.0797 39.7857 55.0962 39.7613C55.1702 39.6555 55.2443 39.5578 55.3183 39.4683C55.3512 39.4357 55.3759 39.4031 55.4088 39.3706C55.4828 39.2973 55.5569 39.2241 55.6309 39.159C55.6638 39.1346 55.6967 39.102 55.7296 39.0776C55.8366 38.9881 55.9518 38.9148 56.0669 38.8416L53.6236 40.2496C53.5002 40.3147 53.3932 40.3961 53.2863 40.4857C53.2534 40.5101 53.2205 40.5426 53.1876 40.567C53.1135 40.6322 53.0395 40.7054 52.9655 40.7787C52.9325 40.8112 52.9079 40.8438 52.875 40.8763C52.7927 40.9659 52.7187 41.0635 52.6528 41.1693C52.6364 41.1856 52.6282 41.2019 52.6117 41.2263C52.6117 41.2263 52.6117 41.2344 52.6035 41.2426C52.5212 41.3647 52.4472 41.503 52.3814 41.6414C52.3814 41.6414 52.3814 41.6495 52.3814 41.6577C52.3814 41.674 52.3731 41.6902 52.3649 41.6984C52.3238 41.7879 52.2826 41.8774 52.2497 41.9751C52.2333 42.0239 52.2168 42.0728 52.2004 42.1135C52.1921 42.146 52.1839 42.1704 52.1757 42.203C52.1675 42.2274 52.1592 42.2518 52.151 42.2844C52.1263 42.3821 52.0934 42.4797 52.0687 42.5855C52.0687 42.6181 52.0523 42.6588 52.0441 42.6913C52.0441 42.7158 52.0358 42.7402 52.0276 42.7646C52.0276 42.7972 52.0112 42.8379 52.0029 42.8704C51.9865 42.9599 51.97 43.0576 51.9618 43.1471C51.9618 43.196 51.9536 43.2529 51.9453 43.3018C51.9453 43.3181 51.9453 43.3425 51.9453 43.3588C51.9453 43.3832 51.9453 43.3994 51.9453 43.4239C51.9453 43.5134 51.9289 43.6029 51.9289 43.7006C51.9289 43.7901 51.9289 43.8878 51.9289 43.9773C51.9289 43.9773 51.9289 43.9855 51.9289 43.9936L51.9124 50.863C51.9124 50.9851 51.9042 51.099 51.8795 51.1967C51.8795 51.1967 51.8795 51.1967 51.8795 51.2049C51.8548 51.3025 51.8302 51.4002 51.789 51.4816C51.7561 51.5548 51.715 51.6118 51.6739 51.6606C51.6574 51.6769 51.6492 51.7013 51.6327 51.7176C51.5834 51.7746 51.5258 51.8234 51.46 51.856L53.9033 50.4479C53.9691 50.4072 54.0267 50.3584 54.0761 50.3096C54.0925 50.2933 54.109 50.277 54.1172 50.2526C54.1336 50.2282 54.1583 50.2119 54.1748 50.1793C54.1995 50.1468 54.2159 50.1061 54.2324 50.0735C54.2406 50.0491 54.257 50.0247 54.2653 49.9921C54.2735 49.9677 54.2817 49.9352 54.29 49.9107C54.29 49.8863 54.3064 49.8619 54.3146 49.8293C54.3146 49.8212 54.3146 49.8049 54.3146 49.7968C54.3146 49.7968 54.3146 49.7968 54.3146 49.7886C54.3146 49.7805 54.3146 49.7642 54.3146 49.7561C54.3146 49.7317 54.3146 49.7073 54.3229 49.6828C54.3229 49.6584 54.3229 49.634 54.3229 49.6096C54.3229 49.5852 54.3229 49.5608 54.3229 49.5363C54.3229 49.5119 54.3229 49.4875 54.3229 49.4631L54.3393 42.5937C54.3393 42.3739 54.3475 42.1623 54.3722 41.9588C54.3722 41.9426 54.3722 41.9181 54.3722 41.9019C54.3887 41.7147 54.4216 41.5356 54.4545 41.3565L54.4627 41.3484Z" fill="black"/>
<path d="M69.2945 50.7232C69.2945 50.5767 69.2863 50.4383 69.2781 50.2918C69.2781 50.2267 69.2698 50.1616 69.2616 50.0883C69.2616 50.0558 69.2616 50.0314 69.2616 50.007C69.2616 49.9581 69.2616 49.9093 69.2534 49.8604C69.2369 49.7139 69.2205 49.5674 69.204 49.4209C69.1876 49.2744 69.1629 49.1198 69.1382 48.9733C69.1382 48.9733 69.1382 48.9651 69.1382 48.957C69.1382 48.957 69.1382 48.9407 69.1382 48.9326C69.1135 48.7942 69.0888 48.6559 69.0642 48.5175C69.0312 48.3629 69.0066 48.2082 68.9654 48.0536C68.949 47.9966 68.9408 47.9396 68.9243 47.8826C68.9243 47.8501 68.9079 47.8175 68.8996 47.785C68.8832 47.7199 68.8667 47.6548 68.8503 47.5815C68.8091 47.4269 68.768 47.2641 68.7269 47.1094C68.694 46.9873 68.6611 46.8734 68.6199 46.7513C68.6199 46.7269 68.6117 46.7106 68.6035 46.6862C68.6035 46.6699 68.5952 46.6455 68.587 46.6292C68.5377 46.4746 68.4883 46.3199 68.4389 46.1653C68.3896 46.0107 68.332 45.856 68.2744 45.7095C68.2662 45.6769 68.2497 45.6525 68.2415 45.62C68.2333 45.5956 68.225 45.5711 68.2168 45.5467C68.1839 45.4572 68.151 45.3595 68.1099 45.27C68.0523 45.1235 67.9947 44.977 67.9289 44.8305C67.8877 44.7247 67.8384 44.6189 67.789 44.5131C67.789 44.4968 67.7726 44.4805 67.7643 44.4642C67.7561 44.4479 67.7479 44.4235 67.7397 44.4072C67.6738 44.2607 67.608 44.1142 67.5422 43.9759C67.4682 43.8131 67.3859 43.6585 67.3119 43.5038C67.3036 43.4794 67.2872 43.455 67.2707 43.4306C67.2543 43.398 67.2378 43.3654 67.2214 43.341C67.1556 43.2189 67.0897 43.0887 67.0239 42.9666C66.9417 42.812 66.8512 42.6573 66.7607 42.5027C66.7195 42.4213 66.6702 42.3481 66.629 42.2667C66.6126 42.2341 66.5961 42.2016 66.5797 42.1771C66.4974 42.0469 66.4151 41.9167 66.3329 41.7865C66.2095 41.5911 66.0943 41.3958 65.9627 41.2086C65.9462 41.176 65.9215 41.1435 65.9051 41.1191C65.7241 40.8505 65.5349 40.59 65.3457 40.3296C65.3457 40.3296 65.3375 40.3133 65.3292 40.3051C65.1976 40.1261 65.066 39.9552 64.9261 39.7761C64.8192 39.6377 64.704 39.5075 64.597 39.3691C64.597 39.3691 64.597 39.361 64.5888 39.3529C64.5888 39.3529 64.5888 39.3529 64.5888 39.3447C64.4736 39.2064 64.3585 39.0761 64.2351 38.9378C64.1199 38.8075 64.0047 38.6773 63.8813 38.5552C63.8649 38.539 63.8402 38.5145 63.8237 38.4983C63.8073 38.4738 63.7826 38.4576 63.7661 38.4331C63.6839 38.3436 63.5934 38.2541 63.5111 38.1727C63.3877 38.0425 63.2561 37.9204 63.1327 37.7983C63.0915 37.7657 63.0586 37.725 63.0175 37.6925C62.9846 37.6681 62.9599 37.6355 62.927 37.6111C62.8612 37.5541 62.7954 37.489 62.7378 37.432C62.6062 37.31 62.4745 37.196 62.3347 37.0821C62.2771 37.0332 62.2195 36.9844 62.1619 36.9437C62.129 36.9193 62.1043 36.8949 62.0714 36.8704C62.0221 36.8379 61.9809 36.7972 61.9316 36.7565C61.8 36.6507 61.6683 36.553 61.5367 36.4553C61.438 36.3821 61.3475 36.317 61.2488 36.2519C61.2323 36.2356 61.2159 36.2274 61.1912 36.2112C61.1747 36.203 61.1583 36.1868 61.1418 36.1786C61.0184 36.0891 60.8868 36.0077 60.7552 35.9263C60.6318 35.8449 60.5001 35.7717 60.3767 35.6984C60.3438 35.6821 60.3191 35.6658 60.2862 35.6496C60.1875 35.5926 60.097 35.5438 59.9983 35.4868C59.9654 35.4705 59.9243 35.4461 59.8914 35.4298C59.842 35.4054 59.7926 35.381 59.7433 35.3566C59.7021 35.3403 59.6692 35.3159 59.6281 35.2996C59.5705 35.267 59.5047 35.2426 59.4471 35.2101C59.406 35.1856 59.3566 35.1694 59.3155 35.1531C59.299 35.1531 59.2826 35.1368 59.2661 35.1287C59.1427 35.0717 59.0275 35.0229 58.9041 34.974C58.9041 34.974 58.8959 34.974 58.8877 34.974C58.7725 34.9252 58.6573 34.8845 58.5422 34.8438C58.5257 34.8438 58.5093 34.8357 58.4928 34.8275C58.4517 34.8112 58.4023 34.795 58.3612 34.7868C58.3036 34.7705 58.2378 34.7461 58.1802 34.7299C58.1473 34.7217 58.1144 34.7136 58.0897 34.7054C58.0321 34.6892 57.9828 34.6729 57.9252 34.6647C57.884 34.6566 57.8429 34.6403 57.8018 34.6322C57.7606 34.624 57.7113 34.6159 57.6701 34.5996C57.6208 34.5915 57.5632 34.5752 57.5138 34.5671C57.4892 34.5671 57.4562 34.5508 57.4316 34.5508C57.3822 34.5427 57.3328 34.5345 57.2835 34.5264C57.2259 34.5182 57.1601 34.502 57.1025 34.4938C57.0778 34.4938 57.0614 34.4938 57.0367 34.4857C56.9873 34.4857 56.938 34.4775 56.8804 34.4694C56.8146 34.4694 56.7487 34.4531 56.6829 34.4531C56.6665 34.4531 56.65 34.4531 56.6253 34.4531C56.5842 34.4531 56.5348 34.4531 56.4937 34.4531C56.4197 34.4531 56.3374 34.4531 56.2634 34.4531C56.2387 34.4531 56.2222 34.4531 56.1975 34.4531C56.1646 34.4531 56.1317 34.4531 56.0988 34.4531C56.0001 34.4531 55.9096 34.4531 55.8109 34.4694C55.7862 34.4694 55.7533 34.4694 55.7286 34.4694C55.7039 34.4694 55.6875 34.4694 55.6628 34.4775C55.523 34.4938 55.3831 34.5101 55.2433 34.5345C55.2268 34.5345 55.2186 34.5345 55.2021 34.5345C55.0047 34.5752 54.8155 34.6322 54.6262 34.6892C54.6098 34.6892 54.5933 34.6973 54.5769 34.7054C54.5604 34.7054 54.5522 34.7136 54.5358 34.7217C54.4535 34.7543 54.3712 34.7868 54.2972 34.8194C54.256 34.8357 54.2231 34.8519 54.182 34.8682C54.0668 34.9252 53.9517 34.9822 53.8447 35.0391L51.4014 36.4472C51.5083 36.3821 51.6235 36.3251 51.7387 36.2763C51.7798 36.26 51.8127 36.2437 51.8538 36.2274C51.9361 36.1949 52.0101 36.1623 52.0924 36.1298C52.1253 36.1216 52.15 36.1135 52.1829 36.0972C52.3721 36.0321 52.5613 35.9833 52.7588 35.9426C52.7752 35.9426 52.7917 35.9426 52.8081 35.9426C52.948 35.9182 53.0878 35.8937 53.2277 35.8856C53.2771 35.8856 53.3264 35.8775 53.3758 35.8693C53.4663 35.8693 53.565 35.8612 53.6637 35.853C53.7213 35.853 53.7707 35.853 53.8283 35.853C53.9023 35.853 53.9846 35.853 54.0586 35.853C54.1244 35.853 54.182 35.8531 54.2478 35.8612C54.3136 35.8612 54.3794 35.8775 54.4453 35.8775C54.5193 35.8775 54.5851 35.8937 54.6592 35.9019C54.7167 35.91 54.7826 35.9182 54.8401 35.9344C54.9142 35.9507 54.9965 35.9589 55.0705 35.9751C55.1199 35.9833 55.1774 35.9996 55.2268 36.0077C55.3091 36.024 55.3913 36.0484 55.4736 36.0728C55.523 36.0891 55.5805 36.0972 55.6381 36.1135C55.7286 36.1379 55.8191 36.1705 55.9096 36.1949C55.9507 36.2112 56.0001 36.2193 56.0412 36.2356C56.1729 36.2844 56.3045 36.3251 56.4361 36.3821C56.4361 36.3821 56.4444 36.3821 56.4526 36.3821C56.5924 36.4391 56.7323 36.496 56.8639 36.5612C56.9051 36.5774 56.9462 36.6018 56.9955 36.6181C57.0943 36.667 57.193 36.7158 57.2917 36.7646C57.3411 36.789 57.3904 36.8135 57.4398 36.8379C57.5714 36.903 57.703 36.9762 57.8347 37.0495C58.1391 37.2204 58.4435 37.4158 58.7396 37.6192C58.7561 37.6355 58.7725 37.6437 58.7972 37.6599C59.0769 37.8553 59.3484 38.0587 59.6199 38.2704C59.6528 38.2948 59.6775 38.3192 59.7104 38.3436C59.9736 38.5552 60.2286 38.775 60.4837 39.011C60.5166 39.0354 60.5413 39.068 60.5742 39.0924C60.8292 39.3284 61.0842 39.5808 61.331 39.8412C61.3475 39.8656 61.3722 39.8819 61.3886 39.9063C61.6519 40.1831 61.9069 40.4679 62.1537 40.7691C62.1537 40.7691 62.1537 40.7772 62.1619 40.7853C62.417 41.0865 62.6638 41.3958 62.8941 41.7132C62.8941 41.7132 62.9023 41.7295 62.9106 41.7376C63.1245 42.0225 63.3301 42.3155 63.5276 42.6166C63.651 42.8038 63.7744 42.9992 63.8978 43.1945C63.9965 43.3573 64.1034 43.5119 64.2022 43.6747C64.2515 43.7561 64.2927 43.8294 64.3338 43.9108C64.4901 44.1875 64.6464 44.4642 64.7945 44.7491C64.8109 44.7816 64.8274 44.8142 64.8438 44.8386C65.0166 45.1805 65.1811 45.5304 65.3374 45.8804C65.3374 45.8967 65.3539 45.913 65.3621 45.9293C65.5102 46.2711 65.6501 46.6211 65.7817 46.9629C65.7899 46.9873 65.7981 47.0118 65.8064 47.0362C65.938 47.3943 66.0614 47.7443 66.1683 48.1024C66.1683 48.1187 66.1766 48.1431 66.1848 48.1594C66.2917 48.5012 66.3822 48.8512 66.4645 49.193C66.4645 49.2256 66.481 49.2582 66.4892 49.2907C66.5715 49.6407 66.6373 49.9988 66.6949 50.3407C66.6949 50.3407 66.6949 50.3569 66.6949 50.3651C66.7524 50.7151 66.7936 51.0732 66.8265 51.415C66.8265 51.4394 66.8265 51.472 66.8265 51.4964C66.8512 51.8464 66.8676 52.1882 66.8676 52.5301L66.8512 59.3995C66.8512 59.5216 66.8429 59.6355 66.8183 59.7332C66.8183 59.7332 66.8183 59.7332 66.8183 59.7413C66.7936 59.839 66.7689 59.9367 66.7278 60.018C66.6949 60.0913 66.6537 60.1483 66.6126 60.1971C66.5961 60.2134 66.5879 60.2378 66.5715 60.2541C66.5221 60.3111 66.4645 60.3599 66.3987 60.3924L68.842 58.9844C68.9079 58.9437 68.9654 58.8949 69.0148 58.846C69.0313 58.8297 69.0477 58.8135 69.0559 58.789C69.0724 58.7646 69.0971 58.7484 69.1135 58.7158C69.1382 58.6832 69.1547 58.6425 69.1711 58.61C69.1793 58.5856 69.1958 58.5612 69.204 58.5286C69.2122 58.5042 69.2205 58.4716 69.2287 58.4472C69.2287 58.4228 69.2451 58.3984 69.2534 58.3658C69.2534 58.3577 69.2534 58.3414 69.2534 58.3333C69.2534 58.3333 69.2534 58.3333 69.2534 58.3251C69.2534 58.317 69.2534 58.3007 69.2534 58.2926C69.2534 58.2681 69.2534 58.2437 69.2616 58.2193C69.2616 58.1949 69.2616 58.1705 69.2616 58.1461C69.2616 58.1216 69.2616 58.0972 69.2616 58.0728C69.2616 58.0484 69.2616 58.024 69.2616 57.9996L69.2781 51.1301C69.2781 50.9999 69.2781 50.8616 69.2781 50.7232H69.2945Z" fill="#F5E8DB" stroke="black" stroke-miterlimit="10"/>
<path d="M57.8268 37.0499C62.8286 39.9067 66.8762 46.8493 66.8597 52.5304L66.8433 59.3998C66.8433 60.3928 66.1276 60.7916 65.2555 60.2951C64.3753 59.7905 63.6678 58.5859 63.676 57.5848L63.6924 50.7154C63.7007 47.0203 61.0681 42.5031 57.8186 40.6473C54.569 38.7916 51.9118 40.2892 51.9035 43.9844L51.8871 50.8538C51.8871 51.8468 51.1714 52.2456 50.2993 51.7491C49.4191 51.2445 48.7116 50.0399 48.7198 49.0388L48.7363 42.1694C48.7527 36.4883 52.8332 34.1849 57.8268 37.0417V37.0499Z" fill="#FCD475" stroke="black" stroke-miterlimit="10"/>
<path d="M57.5459 62.8016C57.6035 62.7853 57.6529 62.769 57.7022 62.769C57.7022 62.769 57.7104 62.769 57.7187 62.769C57.7763 62.769 57.8256 62.769 57.875 62.7772C57.9243 62.7853 57.9737 62.8016 58.0148 62.826L55.8101 61.5563C55.7936 61.5482 55.7772 61.54 55.7607 61.5319C55.7442 61.5319 55.7278 61.5156 55.7113 61.5156C55.7031 61.5156 55.6867 61.5156 55.6784 61.5156C55.6784 61.5156 55.6702 61.5156 55.662 61.5156C55.6455 61.5156 55.6208 61.5156 55.6044 61.5156C55.5797 61.5156 55.5633 61.5156 55.5386 61.5156H55.5221C55.5221 61.5156 55.5139 61.5156 55.5057 61.5156C55.4892 61.5156 55.481 61.5156 55.4645 61.5156C55.4399 61.5156 55.407 61.5238 55.3823 61.5319C55.374 61.5319 55.3576 61.54 55.3494 61.54C55.3411 61.54 55.3247 61.54 55.3165 61.5482C55.3 61.5482 55.2836 61.5563 55.2753 61.5645C55.2342 61.5807 55.1848 61.6052 55.1437 61.6296L29.7725 76.1172L31.9772 77.3869L57.3485 62.8993C57.4143 62.8667 57.4719 62.8423 57.5295 62.8179C57.5377 62.8179 57.5541 62.8097 57.5624 62.8097L57.5459 62.8016Z" fill="#FFEFD4" stroke="black" stroke-miterlimit="10"/>
<path d="M28.4646 83.7193C28.4646 81.7008 27.7324 80.2765 26.5725 79.6091L24.3677 78.3394C25.5359 79.0068 26.2516 80.4311 26.2598 82.4496C26.2598 82.6856 26.2516 82.9217 26.2352 83.1577C26.2352 83.231 26.2187 83.3123 26.2105 83.3856C26.194 83.5402 26.1776 83.6949 26.1529 83.8414C26.1282 84.0123 26.0953 84.1832 26.0624 84.3542C26.0377 84.4681 26.0213 84.5902 25.9966 84.7041C25.9719 84.8099 25.9472 84.9239 25.9143 85.0297C25.8732 85.1843 25.8321 85.3308 25.7909 85.4855C25.7662 85.575 25.7333 85.6646 25.7087 85.7541C25.6511 85.925 25.5935 86.0959 25.5359 86.2668C25.5112 86.3401 25.4865 86.4052 25.4619 86.4785C25.3714 86.7145 25.2809 86.9505 25.1739 87.1784C25.1657 87.2028 25.1492 87.2354 25.1328 87.2598C25.0423 87.4714 24.9436 87.6749 24.8366 87.8784C24.8037 87.9435 24.7708 88.0086 24.7379 88.0737C24.6392 88.2691 24.5322 88.4563 24.4253 88.6516C24.4006 88.6923 24.3842 88.7249 24.3595 88.7655C24.2278 88.9853 24.0962 89.2051 23.9481 89.4248C23.907 89.4899 23.8659 89.5469 23.8247 89.612C23.7178 89.7667 23.6108 89.9213 23.5039 90.0678C23.4463 90.1492 23.3805 90.2306 23.3229 90.312C23.2242 90.4341 23.1255 90.5643 23.0267 90.6782C22.9445 90.784 22.8622 90.8817 22.7717 90.9794C22.6894 91.0771 22.6072 91.1666 22.5249 91.2561C22.3851 91.4108 22.2452 91.5654 22.0971 91.7119C22.0066 91.8014 21.9161 91.891 21.8256 91.9805C21.7516 92.0456 21.6776 92.1189 21.6035 92.184C21.4801 92.2898 21.3649 92.3956 21.2415 92.5014C21.1675 92.5584 21.0935 92.6235 21.0194 92.6805C20.8878 92.7863 20.7479 92.8839 20.6163 92.9816C20.5505 93.0304 20.4847 93.0793 20.4189 93.12C20.2132 93.2583 20.0075 93.3886 19.8019 93.5106C19.6044 93.6246 19.407 93.7223 19.2095 93.8118C19.1602 93.8362 19.1108 93.8606 19.0615 93.8769C18.8722 93.9583 18.683 94.0397 18.502 94.0967C18.4856 94.0967 18.4774 94.0967 18.4609 94.1048C18.3046 94.1536 18.1483 94.1943 17.992 94.235C17.9015 94.2594 17.8192 94.2757 17.7287 94.292C17.6136 94.3164 17.4984 94.3327 17.3832 94.3408C17.3174 94.3408 17.2516 94.3571 17.194 94.3571C17.0541 94.3653 16.9143 94.3734 16.7744 94.3571C16.7415 94.3571 16.7168 94.3571 16.6839 94.3571C16.5194 94.349 16.3631 94.3246 16.2068 94.3001C16.1657 94.3001 16.1327 94.2839 16.0916 94.2757C15.9682 94.2513 15.853 94.2106 15.7379 94.1781C15.705 94.1618 15.6638 94.1536 15.6309 94.1374C15.4828 94.0804 15.343 94.0153 15.2031 93.9339L17.4079 95.2036C17.4079 95.2036 17.4326 95.2199 17.4408 95.2199C17.5477 95.2768 17.6547 95.3338 17.7699 95.3745C17.7863 95.3826 17.811 95.3908 17.8357 95.3989C17.8686 95.4152 17.9097 95.4233 17.9426 95.4396C18.0002 95.4559 18.0578 95.4803 18.1154 95.4966C18.173 95.5129 18.2388 95.521 18.3046 95.5373C18.3457 95.5454 18.3786 95.5536 18.4198 95.5617C18.4445 95.5617 18.4609 95.5698 18.4856 95.578C18.6172 95.6024 18.7406 95.6187 18.8805 95.6268C18.8805 95.6268 18.8969 95.6268 18.9052 95.6268C18.9381 95.6268 18.9627 95.6268 18.9956 95.6268C19.1026 95.6268 19.2013 95.6268 19.3083 95.6268C19.3412 95.6268 19.3823 95.6268 19.4152 95.6187C19.481 95.6187 19.5468 95.6105 19.6044 95.6024C19.6702 95.6024 19.7278 95.5943 19.7854 95.5861C19.8348 95.5861 19.8924 95.5617 19.9417 95.5536C20.0322 95.5373 20.1145 95.521 20.205 95.4966C20.2543 95.4885 20.3037 95.4803 20.3531 95.464C20.46 95.4315 20.567 95.3989 20.6739 95.3664C20.6904 95.3664 20.6986 95.3664 20.715 95.3582C20.8467 95.3175 20.9783 95.2606 21.1181 95.2117C21.1675 95.1873 21.2251 95.1629 21.2745 95.1385C21.3238 95.114 21.3732 95.0896 21.4225 95.0734C21.62 94.9838 21.8174 94.8862 22.0149 94.7722C22.2205 94.6501 22.4262 94.5199 22.6319 94.3815C22.6977 94.3327 22.7635 94.2839 22.8293 94.2432C22.9692 94.1455 23.1008 94.0478 23.2324 93.942C23.3065 93.885 23.3805 93.8199 23.4545 93.763C23.5779 93.6571 23.7013 93.5513 23.8165 93.4455C23.8906 93.3804 23.9646 93.3153 24.0304 93.2421C24.0715 93.2014 24.1209 93.1607 24.162 93.12C24.2114 93.0711 24.2525 93.0223 24.3019 92.9735C24.45 92.827 24.5898 92.6723 24.7297 92.5177C24.7708 92.4688 24.8202 92.42 24.8695 92.3712C24.9107 92.3305 24.9436 92.2816 24.9847 92.2328C25.067 92.1351 25.1575 92.0293 25.2397 91.9317C25.2891 91.8665 25.3467 91.8014 25.4043 91.7363C25.4454 91.6793 25.4865 91.6224 25.5359 91.5654C25.5935 91.484 25.6593 91.4026 25.7169 91.3212C25.758 91.2643 25.7992 91.2154 25.8403 91.1584C25.9061 91.0608 25.9719 90.9631 26.0377 90.8654C26.0789 90.8003 26.12 90.7434 26.1611 90.6782C26.1776 90.6538 26.194 90.6294 26.2105 90.605C26.3257 90.4259 26.4408 90.2469 26.5478 90.0597C26.5478 90.0434 26.5642 90.0352 26.5725 90.019C26.5971 89.9783 26.6136 89.9376 26.6383 89.905C26.7123 89.7748 26.7864 89.6446 26.8522 89.5143C26.8851 89.4492 26.918 89.3923 26.9509 89.3271C26.9838 89.262 27.0167 89.1969 27.0496 89.1318C27.0743 89.0748 27.1072 89.0179 27.1319 88.9609C27.2059 88.8144 27.2717 88.6597 27.3375 88.5051C27.3458 88.4807 27.3622 88.4481 27.3787 88.4237C27.3787 88.4237 27.3787 88.4074 27.3869 88.3993C27.4692 88.2121 27.5514 88.0168 27.6255 87.8214C27.6419 87.7889 27.6502 87.7482 27.6666 87.7156C27.6913 87.6423 27.716 87.5772 27.7407 87.504C27.7736 87.4063 27.8147 87.3087 27.8476 87.211C27.8723 87.1377 27.8887 87.0645 27.9134 86.9912C27.9381 86.9017 27.971 86.8122 27.9957 86.7226C28.0121 86.6657 28.0286 86.6087 28.045 86.5598C28.0697 86.4622 28.0944 86.3645 28.1191 86.2668C28.1438 86.161 28.1767 86.0471 28.2014 85.9413C28.2096 85.9006 28.2178 85.8599 28.2343 85.8273C28.2507 85.7459 28.2589 85.6727 28.2754 85.5913C28.3083 85.4204 28.3412 85.2495 28.3659 85.0785C28.3659 85.0297 28.3823 84.9809 28.3906 84.932C28.407 84.8262 28.4153 84.7204 28.4235 84.6146C28.4235 84.5414 28.4399 84.4681 28.4482 84.3867C28.4646 84.1507 28.4811 83.9146 28.4728 83.6786L28.4646 83.7193Z" fill="black"/>
<path d="M29.4274 74.4652C29.4686 74.4896 29.5097 74.5059 29.5508 74.5303L27.3461 73.2606C27.3461 73.2606 27.3049 73.2362 27.2885 73.2281C27.2638 73.2118 27.2391 73.2037 27.2227 73.1955C27.0911 73.1223 26.9594 73.0653 26.8278 73.0002C26.8031 72.992 26.7784 72.9758 26.7538 72.9676C26.7373 72.9595 26.7126 72.9513 26.6879 72.9432C26.5316 72.8781 26.3671 72.8211 26.1943 72.7723C26.1943 72.7723 26.1861 72.7723 26.1779 72.7723C26.0051 72.7235 25.8241 72.6828 25.6432 72.6502C25.6185 72.6502 25.602 72.6421 25.5773 72.6339C25.5527 72.6339 25.5198 72.6339 25.4951 72.6258C25.3388 72.6014 25.1742 72.5851 25.0097 72.5688C24.985 72.5688 24.9603 72.5688 24.9357 72.5607C24.9274 72.5607 24.9192 72.5607 24.911 72.5607C24.7135 72.5525 24.4996 72.5444 24.294 72.5607C24.2693 72.5607 24.2528 72.5607 24.2364 72.5607C24.2117 72.5607 24.1788 72.5607 24.1541 72.5607C23.9155 72.5769 23.6852 72.5932 23.4384 72.6339C23.2821 72.6583 23.1175 72.6909 22.9612 72.7234C22.9119 72.7316 22.8543 72.7479 22.8049 72.7641C22.7062 72.7886 22.6075 72.813 22.5005 72.8374C22.4923 72.8374 22.4841 72.8374 22.4676 72.8455C22.2784 72.8944 22.0892 72.9513 21.8918 73.0165C21.8589 73.0327 21.8177 73.0409 21.7848 73.0572C21.6285 73.1141 21.4722 73.1711 21.3077 73.2362C21.2912 73.2362 21.2665 73.2525 21.2501 73.2606C21.2089 73.2769 21.176 73.2932 21.1349 73.3095C20.9621 73.3827 20.7894 73.456 20.6166 73.5455C20.5508 73.5781 20.485 73.6025 20.4274 73.635C20.2053 73.749 19.9749 73.8629 19.7446 73.9932C19.3991 74.1885 19.0618 74.4082 18.7245 74.6361C18.6175 74.7094 18.5106 74.7908 18.4036 74.8722C18.1815 75.035 17.9512 75.1977 17.729 75.3768C17.6056 75.4745 17.4822 75.5721 17.3671 75.6779C17.1614 75.8489 16.9639 76.0198 16.7665 76.1988C16.6431 76.3047 16.5279 76.4186 16.4045 76.5325C16.3305 76.6058 16.2565 76.6628 16.1824 76.736C15.985 76.9314 15.7875 77.1348 15.5901 77.3383C15.3926 77.5418 15.2034 77.7534 15.0142 77.965C14.9484 78.0383 14.8908 78.1115 14.8332 78.1848C14.6934 78.3476 14.5535 78.5185 14.4137 78.6894C14.3232 78.7952 14.2327 78.901 14.1422 79.015C14.0681 79.1045 14.0023 79.2022 13.9283 79.2998C13.8296 79.4301 13.7308 79.5684 13.6321 79.6987C13.5663 79.7882 13.4923 79.8777 13.4265 79.9673C13.3113 80.13 13.2043 80.2928 13.0974 80.4556C13.0316 80.5614 12.9575 80.6591 12.8917 80.7649C12.867 80.8056 12.8341 80.8463 12.8095 80.887C12.6202 81.18 12.431 81.4811 12.2583 81.7823C12.25 81.7986 12.2336 81.823 12.2254 81.8474C12.1924 81.9125 12.1513 81.9776 12.1184 82.0346C11.995 82.2462 11.8716 82.4578 11.7564 82.6776C11.6988 82.7752 11.6495 82.8811 11.6001 82.9787C11.5425 83.0845 11.4932 83.1903 11.4356 83.2961C11.3862 83.3857 11.3369 83.4833 11.2957 83.5729C11.1723 83.817 11.0654 84.0694 10.9502 84.3135C10.9255 84.3624 10.9091 84.4031 10.8844 84.4519C10.8844 84.4682 10.8679 84.4763 10.8679 84.4926C10.7281 84.81 10.5965 85.1274 10.4731 85.4449C10.4484 85.5018 10.4319 85.5588 10.4072 85.6158C10.3661 85.7297 10.325 85.8437 10.2838 85.9658C10.2263 86.1286 10.1604 86.2832 10.1111 86.446C10.0699 86.5681 10.037 86.6902 9.99591 86.8122C9.94655 86.9587 9.90541 87.1052 9.86428 87.2517C9.8396 87.3413 9.80669 87.439 9.78201 87.5285C9.74088 87.6913 9.70797 87.8459 9.66684 88.0087C9.61748 88.1877 9.57635 88.3668 9.53521 88.554C9.51876 88.6191 9.5023 88.6842 9.48585 88.7493C9.42004 89.0424 9.37068 89.3435 9.32132 89.6365C9.31309 89.6935 9.30486 89.7586 9.29664 89.8156C9.27196 89.9458 9.2555 90.0842 9.23905 90.2144C9.21437 90.3934 9.20614 90.5644 9.18969 90.7353C9.18146 90.8574 9.16501 90.9876 9.15678 91.1097C9.12388 91.5004 9.10742 91.891 9.10742 92.2736C9.11565 95.6025 10.3085 97.9547 12.2336 99.0535L14.4383 100.323C12.5133 99.2162 11.3204 96.8722 11.3122 93.5433C11.3122 93.1607 11.3286 92.7701 11.3615 92.3794C11.3698 92.2573 11.3862 92.1271 11.3945 92.005C11.4274 91.6957 11.4603 91.3946 11.5096 91.0853C11.5179 91.0283 11.5261 90.9632 11.5343 90.9062C11.5919 90.5481 11.6659 90.19 11.7482 89.8319C11.7893 89.6528 11.8387 89.4737 11.8798 89.2865C11.9456 89.0342 12.0115 88.7819 12.0855 88.5296C12.1266 88.3831 12.176 88.2366 12.2171 88.0901C12.3076 87.8052 12.4063 87.5285 12.5051 87.2436C12.5462 87.1297 12.5873 87.0076 12.6285 86.8936C12.7765 86.503 12.9329 86.1204 13.1056 85.7297C13.1303 85.6809 13.1467 85.6321 13.1714 85.5914C13.3277 85.2495 13.484 84.9077 13.6568 84.574C13.7144 84.4682 13.7638 84.3624 13.8213 84.2566C13.9859 83.9391 14.1586 83.6217 14.3396 83.3043C14.3725 83.2392 14.4054 83.1822 14.4466 83.1171C14.6605 82.7508 14.8908 82.3846 15.1212 82.0346C15.187 81.9288 15.261 81.8311 15.3268 81.7253C15.4996 81.473 15.6724 81.2207 15.8533 80.9684C15.9521 80.83 16.0508 80.6998 16.1495 80.5695C16.3058 80.3661 16.4703 80.1626 16.6349 79.9591C16.7747 79.7882 16.9146 79.6173 17.0544 79.4545C17.3012 79.1615 17.5563 78.8766 17.8113 78.608C18.0746 78.3313 18.3543 78.0627 18.6257 77.8022C18.7409 77.6883 18.8643 77.5825 18.9877 77.4685C19.1852 77.2895 19.3908 77.1186 19.5883 76.9476C19.7117 76.85 19.8269 76.7442 19.9503 76.6465C20.1724 76.4756 20.3945 76.3047 20.6248 76.15C20.7318 76.0768 20.8387 75.9954 20.9457 75.914C21.283 75.6861 21.6203 75.4663 21.9658 75.271C22.1962 75.1408 22.4183 75.0187 22.6486 74.9129C22.7144 74.8803 22.7802 74.8478 22.8378 74.8233C23.0106 74.7419 23.1834 74.6606 23.3561 74.5873C23.4137 74.5629 23.4713 74.5385 23.5289 74.5141C23.6852 74.4489 23.8497 74.392 24.006 74.335C24.0389 74.3187 24.0801 74.3106 24.1212 74.2943C24.3104 74.2292 24.5079 74.1722 24.6971 74.1234C24.8123 74.0908 24.9192 74.0664 25.0261 74.042C25.0755 74.0338 25.1331 74.0176 25.1825 74.0013C25.347 73.9687 25.5033 73.9362 25.6678 73.9118C25.9146 73.8711 26.145 73.8548 26.3836 73.8385C26.4329 73.8385 26.4823 73.8385 26.5234 73.8385C26.7291 73.8385 26.9347 73.8385 27.1404 73.8385C27.1733 73.8385 27.2062 73.8385 27.2391 73.8466C27.4037 73.8629 27.5682 73.8792 27.7245 73.9036C27.7739 73.9036 27.8232 73.9199 27.8726 73.928C28.0536 73.9606 28.2346 74.0013 28.4073 74.0501C28.4073 74.0501 28.4156 74.0501 28.4238 74.0501C28.5883 74.099 28.7529 74.1559 28.9174 74.221C28.9668 74.2373 29.0079 74.2617 29.049 74.278C29.1806 74.335 29.3205 74.4001 29.4439 74.4734L29.4274 74.4652Z" fill="#FFEFD4" stroke="black" stroke-miterlimit="10"/>
<path d="M57.3316 62.9004C57.9815 62.526 58.4504 62.9817 58.253 63.8038L57.0519 68.7686C56.9285 69.2896 56.5583 69.8105 56.1387 70.0465L48.9403 74.1567C48.4056 74.4579 47.9778 75.1985 47.9778 75.8008C47.9778 76.4031 47.55 77.1438 47.0153 77.4449L31.985 86.0317C30.4631 91.4849 26.5719 96.9706 22.0142 99.5752C16.1157 102.945 11.303 100.226 11.2784 93.5278C11.2619 86.8212 16.0416 78.6251 21.9402 75.2555C26.4978 72.651 30.4055 73.6847 31.9521 77.388L57.3234 62.9004H57.3316ZM22.006 94.7894C25.5764 92.7465 28.4722 87.7816 28.464 83.7283C28.4558 79.6669 25.5353 78.0228 21.9649 80.0657C18.3945 82.1086 15.4987 87.0735 15.5069 91.1349C15.5151 95.1963 18.4356 96.8404 22.006 94.7975" fill="#FFEFD4"/>
<path d="M22.006 94.7894C25.5764 92.7465 28.4722 87.7816 28.464 83.7283C28.4558 79.6669 25.5353 78.0228 21.9649 80.0657C18.3945 82.1086 15.4987 87.0735 15.5069 91.1349C15.5151 95.1963 18.4356 96.8404 22.006 94.7975M57.3316 62.9004C57.9815 62.526 58.4504 62.9817 58.253 63.8038L57.0519 68.7686C56.9285 69.2896 56.5583 69.8105 56.1387 70.0465L48.9403 74.1567C48.4056 74.4579 47.9778 75.1985 47.9778 75.8008C47.9778 76.4031 47.55 77.1438 47.0153 77.4449L31.985 86.0317C30.4631 91.4849 26.5719 96.9706 22.0142 99.5752C16.1157 102.945 11.303 100.226 11.2784 93.5278C11.2619 86.8212 16.0416 78.6251 21.9402 75.2555C26.4978 72.651 30.4055 73.6847 31.9521 77.388L57.3234 62.9004H57.3316Z" stroke="black" stroke-miterlimit="10"/>
<path d="M39.1098 75.595C38.6491 75.8636 38.2624 76.5066 38.2706 77.0356C38.2789 77.5646 38.6573 77.7763 39.118 77.5158C39.5869 77.2472 39.9653 76.6042 39.9653 76.0671C39.9653 75.538 39.5787 75.3264 39.1098 75.5868" fill="black"/>
<path d="M38.9613 76.1173C38.657 76.2882 38.4102 76.7033 38.4102 77.0451C38.4102 77.387 38.657 77.5253 38.9613 77.3544C39.2657 77.1835 39.5125 76.7684 39.5125 76.4184C39.5125 76.0766 39.2657 75.9382 38.9613 76.1091" fill="white"/>
<path d="M41.6596 74.1216C41.1989 74.3902 40.8122 75.0332 40.8204 75.5622C40.8287 76.0913 41.2071 76.3029 41.6678 76.0424C42.1367 75.7738 42.5151 75.1308 42.5151 74.5937C42.5151 74.0646 42.1285 73.853 41.6596 74.1135" fill="black"/>
<path d="M41.5112 74.6439C41.2068 74.8148 40.96 75.2299 40.96 75.5717C40.96 75.9136 41.2068 76.052 41.5112 75.881C41.8155 75.7101 42.0623 75.295 42.0623 74.945C42.0623 74.6032 41.8155 74.4648 41.5112 74.6357" fill="white"/>
<path d="M44.1937 72.6887C43.7331 72.9573 43.3464 73.6003 43.3546 74.1294C43.3628 74.6584 43.7413 74.87 44.202 74.6096C44.6709 74.341 45.0493 73.698 45.0493 73.1608C45.0493 72.6318 44.6627 72.4201 44.1937 72.6806" fill="black"/>
<path d="M44.0541 73.211C43.7497 73.3819 43.5029 73.797 43.5029 74.1389C43.5029 74.4807 43.7497 74.6191 44.0541 74.4482C44.3585 74.2772 44.6053 73.8622 44.6053 73.5122C44.6053 73.1703 44.3585 73.032 44.0541 73.2029" fill="white"/>
<path d="M46.7191 71.24C46.2584 71.5086 45.8718 72.1516 45.88 72.6806C45.8882 73.2097 46.2667 73.4213 46.7274 73.1608C47.1963 72.8922 47.5747 72.2493 47.5747 71.7121C47.5747 71.183 47.1881 70.9714 46.7191 71.2319" fill="black"/>
<path d="M46.5707 71.7623C46.2663 71.9332 46.0195 72.3483 46.0195 72.6902C46.0195 73.032 46.2663 73.1704 46.5707 72.9994C46.8751 72.8285 47.1219 72.4134 47.1219 72.0634C47.1219 71.7216 46.8751 71.5832 46.5707 71.7542" fill="white"/>
<path d="M49.2855 69.7578C48.8248 70.0264 48.4382 70.6694 48.4464 71.1985C48.4546 71.7275 48.8331 71.9391 49.2938 71.6787C49.7627 71.4101 50.1411 70.7671 50.1411 70.2299C50.1411 69.7009 49.7545 69.4892 49.2855 69.7497" fill="black"/>
<path d="M49.1371 70.2801C48.8327 70.451 48.5859 70.8661 48.5859 71.208C48.5859 71.5498 48.8327 71.6882 49.1371 71.5173C49.4415 71.3463 49.6883 70.9313 49.6883 70.5813C49.6883 70.2394 49.4415 70.1011 49.1371 70.272" fill="white"/>
<path d="M51.8275 68.3181C51.3668 68.5867 50.9802 69.2297 50.9884 69.7588C50.9966 70.2878 51.3751 70.4994 51.8358 70.239C52.3047 69.9704 52.6831 69.3274 52.6831 68.7902C52.6831 68.2612 52.2965 68.0495 51.8275 68.31" fill="black"/>
<path d="M51.6879 68.8404C51.3835 69.0113 51.1367 69.4264 51.1367 69.7683C51.1367 70.1101 51.3835 70.2485 51.6879 70.0776C51.9923 69.9066 52.2391 69.4915 52.2391 69.1416C52.2391 68.7997 51.9923 68.6614 51.6879 68.8323" fill="white"/>
<path d="M36.3867 180.272V200.27L67.6401 217.81V197.812L36.3867 180.272Z" fill="black"/>
<path d="M40.582 183.855V197.813L66.3975 212.276V198.269L40.582 183.855Z" fill="#E8BB50"/>
<path d="M44.4746 190.634L62.8449 200.913" stroke="black" stroke-miterlimit="10"/>
<path d="M44.4746 194.98L62.8449 205.259" stroke="black" stroke-miterlimit="10"/>
<path d="M147.308 64.7712V111.384L190.588 86.6165V40.2969L147.308 64.7712Z" fill="#FFEFD4" stroke="black" stroke-miterlimit="10"/>
<path d="M175.065 61.8259H171.626L154.21 82.6132L147.283 75.4752V72.9521H143.844L140.578 76.0531L153.387 89.2384H156.826L156.67 86.6421L175.065 61.8259Z" fill="black" stroke="#111010" stroke-miterlimit="10"/>
<path d="M156.826 89.2384L144.017 76.0531L147.283 72.9521L156.669 82.6132L175.064 61.8259L178.47 64.7723L156.826 89.2384Z" fill="#FCD475" stroke="black" stroke-miterlimit="10"/>
</g>
<defs>
<clipPath id="clip0_797_15983">
<rect width="191" height="264" fill="white"/>
</clipPath>
</defs>
</svg>
