<svg width="414" height="326" viewBox="0 0 414 326" fill="none" xmlns="http://www.w3.org/2000/svg">
<g clip-path="url(#clip0_122_10964)">
<path d="M404.621 310.933L410.393 307.034V241.081L404.621 244.408V310.933Z" fill="#F6E9DA" stroke="#111010" stroke-miterlimit="10"/>
<path d="M244.324 257.756L404.621 310.932V244.407L244.324 151.872V257.756Z" fill="#F6E9DA" stroke="#111010" stroke-miterlimit="10"/>
<path d="M404.621 244.408L410.393 241.08L250.109 148.545L244.324 151.873L404.621 244.408Z" fill="white"/>
<path d="M404.621 244.408L410.393 241.08L250.109 148.545L244.324 151.873L404.621 244.408Z" stroke="black" stroke-miterlimit="10"/>
<path d="M328.587 218.086C328.587 220.036 327.222 220.829 325.532 219.854C323.842 218.879 322.477 216.513 322.477 214.551C322.477 212.588 323.842 211.808 325.532 212.783C327.222 213.758 328.587 216.123 328.587 218.086Z" fill="#CBCCCD"/>
<path d="M272.689 245.733L406.494 322.982L270.531 401.804L130.37 306.474L272.689 245.733Z" fill="#282A35"/>
<path d="M266.189 154.38L120.867 238.271V305.057L266.189 221.166V154.38Z" fill="#E8BB52" stroke="#111010" stroke-miterlimit="10"/>
<path d="M115.603 302.015L120.867 305.057V238.272L115.603 235.243V302.015Z" fill="#CBCCCD"/>
<path d="M120.618 238.705L120.868 238.849L121.117 238.705L266.439 154.813L267.191 154.38L266.439 153.947L261.174 150.918L260.924 150.775L260.675 150.919L115.353 234.81L114.601 235.244L115.353 235.676L120.618 238.705Z" fill="white" stroke="black"/>
<path d="M391.167 236.348V250.218V250.958V320.824L238.929 232.943V163.077V162.323V148.467L391.167 236.348Z" fill="#F6E9DA" stroke="#111010" stroke-miterlimit="10"/>
<path d="M364.648 251.661V265.53V266.271V336.137L212.41 248.255V178.389V177.635V163.766L364.648 251.661Z" fill="#F6E9DA" stroke="#111010" stroke-miterlimit="10"/>
<g clip-path="url(#clip1_122_10964)">
<path d="M298.482 197.582C300.433 196.455 303.132 196.602 306.094 198.314L342.967 219.563C348.863 222.958 353.659 231.256 353.644 238.017C353.644 241.368 352.441 243.739 350.505 244.851L346.047 247.427C347.968 246.315 349.171 243.944 349.185 240.593C349.2 233.832 344.404 225.534 338.508 222.139L301.65 200.89C298.687 199.177 295.989 199.031 294.038 200.158L298.482 197.582Z" fill="#F6E9DA" stroke="#111010" stroke-miterlimit="10"/>
<path d="M338.523 222.14L301.65 200.891C295.754 197.495 290.914 200.247 290.899 206.993C290.885 212.584 294.17 219.213 298.629 223.267C301.122 228.155 294.962 234.301 294.962 234.301C294.962 234.301 302.325 233.964 304.745 227.276L338.464 246.696C344.36 250.092 349.185 247.34 349.215 240.579C349.229 233.818 344.433 225.52 338.537 222.125L338.523 222.14ZM338.464 245.35L305.082 226.12C305.185 225.711 305.273 225.272 305.346 224.818C303.205 222.33 300.33 222.037 298.849 222.067C294.918 218.452 292.058 212.613 292.073 207.681C292.087 201.652 296.385 199.208 301.636 202.237L338.523 223.486C343.773 226.515 348.041 233.877 348.027 239.906C348.012 245.921 343.715 248.365 338.464 245.335V245.35Z" fill="#F6E9DA" stroke="#111010" stroke-miterlimit="10"/>
<path d="M301.636 202.235C296.385 199.206 292.087 201.65 292.073 207.679C292.058 213.694 296.312 221.07 301.577 224.099L338.464 245.348C343.715 248.378 348.012 245.934 348.027 239.919C348.041 233.89 343.788 226.529 338.523 223.499L301.636 202.235Z" fill="black" stroke="#111010" stroke-miterlimit="10"/>
<path d="M332.524 226.354C331.424 225.724 330.426 225.666 329.708 226.076L328.344 226.866C329.062 226.441 330.06 226.5 331.16 227.144C333.345 228.402 335.12 231.461 335.105 233.978C335.105 235.222 334.665 236.1 333.946 236.51L335.31 235.72C336.029 235.31 336.469 234.432 336.469 233.188C336.469 230.671 334.709 227.612 332.524 226.354Z" fill="#F6E9DA"/>
<path d="M331.174 227.143C328.989 225.885 327.2 226.894 327.2 229.412C327.2 231.914 328.96 234.987 331.145 236.246C333.33 237.504 335.12 236.495 335.12 233.978C335.12 231.46 333.36 228.402 331.174 227.143Z" fill="#E8BB52" stroke="#111010" stroke-miterlimit="10"/>
<path d="M320.072 219.182C318.972 218.552 317.974 218.494 317.256 218.904L315.892 219.694C316.61 219.27 317.608 219.328 318.708 219.972C320.908 221.231 322.668 224.289 322.653 226.806C322.653 228.05 322.213 228.928 321.494 229.338L322.858 228.548C323.577 228.138 324.017 227.26 324.017 226.016C324.017 223.499 322.257 220.455 320.072 219.182Z" fill="#F6E9DA"/>
<path d="M318.722 219.971C316.537 218.713 314.748 219.723 314.748 222.24C314.748 224.742 316.508 227.815 318.693 229.074C320.893 230.333 322.668 229.323 322.668 226.806C322.668 224.289 320.908 221.245 318.722 219.971Z" fill="#E8BB52" stroke="#111010" stroke-miterlimit="10"/>
<path d="M304.803 211.734L303.439 212.524C304.158 212.1 305.155 212.158 306.255 212.802L307.619 212.012C306.519 211.383 305.522 211.324 304.803 211.734Z" stroke="#111010" stroke-miterlimit="10"/>
<path d="M307.619 212.012C306.519 211.383 305.522 211.324 304.803 211.734L303.439 212.524C304.158 212.1 305.155 212.158 306.255 212.802C308.456 214.061 310.216 217.119 310.201 219.636C310.201 220.88 309.761 221.758 309.042 222.168L310.406 221.378C311.125 220.968 311.565 220.09 311.565 218.846C311.565 216.329 309.805 213.285 307.619 212.012Z" fill="#F6E9DA"/>
<path d="M306.255 212.801C304.07 211.543 302.281 212.553 302.281 215.07C302.281 217.572 304.041 220.646 306.226 221.904C308.426 223.163 310.201 222.153 310.201 219.636C310.201 217.119 308.441 214.075 306.255 212.801Z" fill="#E8BB52" stroke="#111010" stroke-miterlimit="10"/>
</g>
<path d="M332.357 264.49V278.359V279.1V348.966L180.119 261.084V191.218V190.464V176.608L332.357 264.49Z" fill="#F6E9DA" stroke="#111010" stroke-miterlimit="10"/>
<path d="M305.838 279.802V293.672V294.413V364.278L153.601 276.397V206.531V205.777V191.921L305.838 279.802Z" fill="#F6E9DA" stroke="#111010" stroke-miterlimit="10"/>
<path d="M411.03 240.586L265.708 324.477L267.801 412.189L277.122 413.918L411.03 336.617V240.586Z" fill="#1E1F27"/>
<path d="M405.765 238.161L410.031 240.625L265.709 323.939L261.455 321.476L405.765 238.161Z" fill="white" stroke="black"/>
<path d="M263.76 273.672L181.137 225.986C178.136 224.254 175.41 224.1 173.455 225.249L169.905 227.306C171.877 226.157 174.604 226.312 177.587 228.044L260.211 275.73C266.161 279.159 271.014 287.579 270.997 294.42L270.551 313.402C270.551 316.798 269.334 319.198 267.379 320.33L270.929 318.272C272.884 317.141 274.084 314.74 274.101 311.345L274.547 292.363C274.564 285.521 269.711 277.119 263.76 273.672Z" fill="#FFEFD4" stroke="black" stroke-miterlimit="10"/>
<path d="M177.601 228.044C171.65 224.614 166.763 227.392 166.746 234.234L166.3 253.216C166.283 260.057 171.136 268.46 177.086 271.906L259.71 319.592C265.66 323.022 270.548 320.244 270.565 313.402L271.011 294.42C271.028 287.579 266.175 279.177 260.224 275.73L177.601 228.044Z" fill="white"/>
<path d="M177.601 228.044C171.65 224.614 166.763 227.392 166.746 234.234L166.3 253.216C166.283 260.057 171.136 268.46 177.086 271.906L259.71 319.593C265.66 323.022 270.548 320.244 270.565 313.402L271.011 294.42C271.028 287.579 266.175 279.177 260.224 275.73L177.601 228.044Z" stroke="black" stroke-miterlimit="10"/>
<path d="M256.717 310.502L259.186 309.062C259.735 308.753 260.061 308.067 260.078 307.124L257.609 308.565C257.609 309.525 257.266 310.194 256.717 310.502Z" fill="black" stroke="#111010" stroke-miterlimit="10"/>
<path d="M239.116 275.282L236.646 276.722C237.195 276.397 237.967 276.448 238.807 276.928L241.277 275.505C240.436 275.025 239.665 274.973 239.116 275.299V275.282Z" fill="black"/>
<path d="M257.604 308.563L260.073 307.123L260.107 289.873L257.655 291.296L257.604 308.563Z" fill="black"/>
<path d="M254.642 286.069L257.094 284.645L241.283 275.506L238.573 276.809L254.642 286.069Z" fill="black"/>
<path d="M257.655 291.298L260.124 289.858C260.124 287.937 258.77 285.588 257.106 284.628L254.637 286.068C256.317 287.029 257.672 289.378 257.655 291.298Z" fill="black"/>
<path d="M239.615 277.39C237.935 276.43 236.58 277.201 236.58 279.122L236.528 296.372C236.528 298.292 237.883 300.642 239.547 301.602L254.569 310.278C256.25 311.239 257.604 310.467 257.604 308.546L257.656 291.296C257.656 289.376 256.301 287.027 254.637 286.066L239.615 277.39Z" fill="#AAD1CD" stroke="#050001" stroke-miterlimit="10"/>
<path d="M226.67 273.929L176.407 244.915C175.601 244.453 174.88 244.418 174.366 244.71L171.896 246.15C172.411 245.841 173.148 245.893 173.937 246.356L224.2 275.369C225.778 276.278 227.064 278.507 227.064 280.324C227.064 281.233 226.738 281.868 226.224 282.159L228.693 280.719C229.208 280.427 229.534 279.776 229.534 278.884C229.534 277.066 228.265 274.837 226.67 273.929Z" fill="black" stroke="#111010" stroke-miterlimit="10"/>
<path d="M173.938 246.339C172.36 245.43 171.057 246.15 171.057 247.985C171.057 249.802 172.326 252.032 173.921 252.94L224.184 281.954C225.762 282.862 227.065 282.142 227.065 280.307C227.065 278.49 225.796 276.261 224.201 275.352L173.938 246.339Z" fill="#CCCCCC" stroke="black" stroke-miterlimit="10"/>
<path d="M282.543 363.836L282.608 360.911L409.796 288.965V291.838L282.543 363.836Z" fill="white"/>
<path d="M282.542 373.572L282.607 365.682L409.912 293.139V300.977L282.542 373.572Z" fill="#EDC774"/>
<path d="M273.339 420.484L279.111 417.156V311.272L273.339 314.612V420.484Z" fill="#F6E9DA" stroke="#111010" stroke-miterlimit="10"/>
<path d="M113.042 327.947L273.339 420.482V314.611L113.042 222.076V327.947Z" fill="#F6E9DA" stroke="#111010" stroke-miterlimit="10"/>
<path d="M273.339 314.612L279.111 311.271L118.813 218.736L113.042 222.077L273.339 314.612Z" fill="#F6E9DA" stroke="#111010" stroke-miterlimit="10"/>
<path d="M145.502 7.78573L162.128 23.1237L264.968 93.4836C264.968 93.4836 254.958 181.69 266.086 181.69C277.213 181.69 278.201 175.919 278.201 175.919C278.201 175.919 278.201 82.0971 278.201 76.4948C278.201 70.8925 272.598 67.422 272.598 67.422C272.598 67.422 161.257 3.52228 157.877 1.53354C154.497 -0.455198 152.976 1.53354 152.976 1.53354L145.45 6.97984L145.489 7.78573H145.502Z" fill="#FFEFD4" stroke="black" stroke-miterlimit="10"/>
<path d="M146.113 102.427L146.191 80.4732V10.8413C146.191 10.8413 146.62 7.73469 149.376 7.51372C152.132 7.29275 265.722 75.8198 265.722 75.8198C265.722 75.8198 269.544 78.1075 269.544 83.8918V174.529C269.544 174.529 269.868 178.376 265.865 178.376C262.29 178.376 169.551 123.862 149.792 112.215C149.792 112.215 146.139 109.303 146.139 102.427H146.113Z" fill="#EEA7AB" stroke="black" stroke-width="8" stroke-miterlimit="10"/>
<path d="M229.453 99.3061C229.453 99.3061 229.453 99.2021 229.453 99.1501C229.453 99.0981 229.453 99.0461 229.453 98.9941C229.453 98.9422 229.453 98.8902 229.44 98.8382C229.44 98.7862 229.427 98.7342 229.414 98.6692C229.414 98.6172 229.401 98.5652 229.388 98.5132C229.388 98.4612 229.362 98.3962 229.349 98.3442C229.349 98.2922 229.323 98.2272 229.31 98.1752C229.297 98.1233 229.284 98.0583 229.258 98.0063C229.258 97.9673 229.232 97.9153 229.219 97.8763C229.219 97.8763 229.219 97.8633 229.219 97.8503C229.206 97.7983 229.18 97.7333 229.167 97.6813C229.154 97.6293 229.128 97.5643 229.115 97.5123C229.102 97.4603 229.076 97.4084 229.05 97.3564C229.024 97.3044 229.011 97.2524 228.985 97.2004C228.972 97.1614 228.946 97.1224 228.933 97.0834C228.933 97.0834 228.933 97.0704 228.933 97.0574C228.907 97.0054 228.881 96.9534 228.855 96.9014C228.829 96.8494 228.803 96.7844 228.777 96.7324C228.738 96.6674 228.712 96.6024 228.673 96.5375C228.634 96.4725 228.595 96.3945 228.556 96.3295C228.556 96.3295 228.543 96.3035 228.53 96.2905C228.53 96.2775 228.517 96.2645 228.504 96.2515C228.426 96.1215 228.348 95.9915 228.257 95.8616C228.192 95.7576 228.127 95.6666 228.049 95.5626C227.997 95.4976 227.958 95.4326 227.906 95.3676C227.867 95.3156 227.828 95.2636 227.776 95.2116C227.737 95.1596 227.698 95.1076 227.646 95.0687C227.607 95.0167 227.568 94.9777 227.516 94.9257C227.516 94.9257 227.503 94.9127 227.49 94.8997C227.451 94.8607 227.425 94.8347 227.386 94.7957C227.334 94.7437 227.295 94.7047 227.243 94.6527C227.191 94.6007 227.152 94.5617 227.1 94.5227C227.048 94.4837 227.009 94.4317 226.957 94.3927C226.931 94.3667 226.905 94.3537 226.879 94.3277C226.879 94.3277 226.879 94.3277 226.866 94.3277C226.853 94.3148 226.827 94.3018 226.814 94.2758C226.762 94.2368 226.723 94.1978 226.671 94.1718C226.619 94.1328 226.58 94.1068 226.528 94.0678C226.476 94.0418 226.437 94.0028 226.385 93.9768C226.333 93.9508 226.294 93.9248 226.242 93.8858C226.242 93.8858 226.216 93.8858 226.216 93.8728L192.937 74.6613C192.937 74.6613 192.872 74.6223 192.833 74.5963C192.794 74.5703 192.742 74.5443 192.703 74.5313C192.664 74.5053 192.612 74.4923 192.573 74.4663C192.534 74.4403 192.482 74.4273 192.443 74.4143C192.404 74.4013 192.352 74.3753 192.313 74.3623C192.313 74.3623 192.3 74.3623 192.287 74.3623C192.248 74.3623 192.222 74.3363 192.183 74.3363C192.131 74.3234 192.092 74.3104 192.053 74.2974C192.014 74.2974 191.962 74.2714 191.923 74.2714C191.871 74.2714 191.832 74.2584 191.78 74.2454C191.754 74.2454 191.715 74.2454 191.689 74.2454C191.689 74.2454 191.689 74.2454 191.676 74.2454C191.676 74.2454 191.65 74.2454 191.637 74.2454C191.585 74.2454 191.533 74.2454 191.481 74.2454C191.429 74.2454 191.364 74.2454 191.312 74.2454C191.247 74.2454 191.182 74.2584 191.117 74.2714C191.039 74.2844 190.974 74.3104 190.896 74.3363C190.805 74.3753 190.714 74.4143 190.636 74.4533L181.653 79.6657C181.796 79.5747 181.965 79.5227 182.134 79.4837C182.303 79.4447 182.498 79.4447 182.693 79.4577C182.693 79.4577 182.693 79.4577 182.706 79.4577C182.901 79.4707 183.109 79.5227 183.317 79.5877C183.525 79.6657 183.759 79.7566 183.98 79.8996L217.259 99.1111C217.48 99.2411 217.701 99.3971 217.909 99.5661H217.922C218.13 99.748 218.325 99.943 218.52 100.138C218.91 100.554 219.248 101.022 219.547 101.529C219.547 101.529 219.56 101.555 219.573 101.568C219.716 101.815 219.846 102.075 219.963 102.335C220.08 102.595 220.184 102.868 220.262 103.141C220.34 103.414 220.405 103.687 220.444 103.947C220.483 104.219 220.509 104.479 220.509 104.739L220.431 130.671C220.431 130.931 220.405 131.165 220.366 131.373C220.366 131.373 220.366 131.373 220.366 131.386C220.327 131.594 220.262 131.789 220.184 131.971C220.119 132.114 220.028 132.231 219.937 132.348C219.911 132.387 219.885 132.426 219.846 132.465C219.742 132.582 219.625 132.686 219.482 132.764L228.465 127.551C228.595 127.473 228.712 127.369 228.829 127.252C228.868 127.213 228.894 127.174 228.92 127.135C228.959 127.083 228.998 127.044 229.037 126.992C229.076 126.928 229.128 126.85 229.167 126.772C229.193 126.72 229.219 126.668 229.232 126.603C229.258 126.551 229.271 126.486 229.284 126.434C229.297 126.382 229.31 126.33 229.323 126.265C229.323 126.239 229.323 126.213 229.336 126.187C229.336 126.187 229.336 126.187 229.336 126.174C229.336 126.148 229.336 126.122 229.349 126.109C229.349 126.057 229.362 126.005 229.375 125.953C229.375 125.901 229.375 125.849 229.388 125.797C229.388 125.745 229.388 125.693 229.388 125.641C229.388 125.589 229.388 125.537 229.388 125.485L229.466 99.5401C229.466 99.4881 229.466 99.4361 229.466 99.3971L229.453 99.3061Z" fill="#F5E8DB" stroke="black" stroke-miterlimit="10"/>
<path d="M217.194 99.0086C219.001 100.048 220.47 102.596 220.47 104.676L220.392 130.608C220.392 132.687 218.91 133.532 217.103 132.479L183.824 113.268C182.004 112.215 180.548 109.68 180.548 107.601L180.626 81.6689C180.626 79.5892 182.108 78.7443 183.928 79.7971L217.207 99.0086H217.194Z" fill="#FCD475" stroke="black" stroke-miterlimit="10"/>
<path d="M199.879 95.7188C202.309 97.1226 204.285 100.541 204.272 103.323C204.272 104.883 203.648 105.896 202.686 106.273L202.66 114.215C202.66 116.009 201.386 116.737 199.814 115.827C198.254 114.93 196.98 112.734 196.993 110.94L197.019 102.998C196.07 101.516 195.446 99.7873 195.459 98.2405C195.459 95.4458 197.448 94.315 199.879 95.7188Z" fill="black"/>
<path d="M197.799 66.0318C197.799 66.0318 197.812 65.9538 197.825 65.9148C197.877 65.6418 197.942 65.3949 198.02 65.1479C198.033 65.0959 198.046 65.0569 198.072 65.0049C198.15 64.771 198.241 64.55 198.332 64.329C198.332 64.303 198.345 64.29 198.358 64.264C198.475 64.0301 198.592 63.7961 198.735 63.5881C198.748 63.5621 198.774 63.5361 198.8 63.4971C198.917 63.3281 199.034 63.1722 199.15 63.0292C199.202 62.9772 199.241 62.9252 199.293 62.8732C199.41 62.7562 199.527 62.6392 199.644 62.5353C199.696 62.4963 199.748 62.4443 199.8 62.4053C199.969 62.2623 200.151 62.1453 200.333 62.0283L196.473 64.277C196.278 64.381 196.109 64.511 195.94 64.654C195.888 64.693 195.836 64.745 195.784 64.784C195.667 64.8879 195.55 65.0049 195.433 65.1219C195.381 65.1739 195.342 65.2259 195.29 65.2779C195.16 65.4209 195.043 65.5769 194.939 65.7458C194.913 65.7718 194.9 65.7978 194.874 65.8368C194.874 65.8368 194.874 65.8498 194.861 65.8628C194.731 66.0578 194.614 66.2788 194.51 66.4997C194.51 66.4997 194.51 66.5127 194.51 66.5257C194.51 66.5517 194.497 66.5777 194.484 66.5907C194.419 66.7337 194.354 66.8767 194.302 67.0327C194.276 67.1107 194.25 67.1887 194.224 67.2536C194.211 67.3056 194.198 67.3446 194.185 67.3966C194.172 67.4356 194.159 67.4746 194.146 67.5266C194.107 67.6826 194.055 67.8386 194.016 68.0075C194.016 68.0595 193.99 68.1245 193.977 68.1765C193.977 68.2155 193.964 68.2545 193.951 68.2935C193.951 68.3455 193.925 68.4105 193.912 68.4625C193.886 68.6055 193.86 68.7614 193.847 68.9044C193.847 68.9824 193.834 69.0734 193.821 69.1514C193.821 69.1774 193.821 69.2164 193.821 69.2424C193.821 69.2814 193.821 69.3074 193.821 69.3464C193.821 69.4893 193.795 69.6323 193.795 69.7883C193.795 69.9313 193.795 70.0873 193.795 70.2303C193.795 70.2303 193.795 70.2432 193.795 70.2562L193.769 81.2268C193.769 81.4218 193.756 81.6038 193.717 81.7598C193.717 81.7598 193.717 81.7598 193.717 81.7728C193.678 81.9287 193.639 82.0847 193.574 82.2147C193.522 82.3317 193.457 82.4227 193.392 82.5007C193.366 82.5267 193.353 82.5657 193.327 82.5916C193.249 82.6826 193.158 82.7606 193.054 82.8126L196.915 80.5639C197.019 80.4989 197.11 80.4209 197.188 80.3429C197.214 80.3169 197.24 80.2909 197.253 80.252C197.279 80.213 197.318 80.187 197.344 80.135C197.383 80.083 197.409 80.018 197.435 79.966C197.448 79.927 197.474 79.888 197.487 79.836C197.5 79.797 197.513 79.745 197.526 79.706C197.526 79.667 197.552 79.628 197.565 79.576C197.565 79.563 197.565 79.537 197.565 79.524C197.565 79.524 197.565 79.524 197.565 79.511C197.565 79.498 197.565 79.4721 197.565 79.4591C197.565 79.4201 197.565 79.3811 197.578 79.3421C197.578 79.3031 197.578 79.2641 197.578 79.2251C197.578 79.1861 197.578 79.1471 197.578 79.1081C197.578 79.0691 197.578 79.0301 197.578 78.9911L197.604 68.0205C197.604 67.6696 197.617 67.3316 197.656 67.0067C197.656 66.9807 197.656 66.9417 197.656 66.9157C197.682 66.6167 197.734 66.3308 197.786 66.0448L197.799 66.0318Z" fill="black"/>
<path d="M221.237 81.0051C221.237 80.7711 221.224 80.5502 221.211 80.3162C221.211 80.2122 221.198 80.1082 221.185 79.9912C221.185 79.9392 221.185 79.9002 221.185 79.8612C221.185 79.7833 221.185 79.7053 221.172 79.6273C221.146 79.3933 221.12 79.1593 221.094 78.9254C221.068 78.6914 221.029 78.4444 220.99 78.2105C220.99 78.2105 220.99 78.1975 220.99 78.1845C220.99 78.1845 220.99 78.1585 220.99 78.1455C220.951 77.9245 220.912 77.7035 220.873 77.4826C220.821 77.2356 220.782 76.9886 220.717 76.7417C220.691 76.6507 220.678 76.5597 220.652 76.4687C220.652 76.4167 220.626 76.3647 220.613 76.3127C220.587 76.2087 220.561 76.1047 220.535 75.9878C220.47 75.7408 220.405 75.4808 220.34 75.2339C220.288 75.0389 220.236 74.8569 220.171 74.6619C220.171 74.6229 220.158 74.5969 220.145 74.5579C220.145 74.5319 220.132 74.493 220.119 74.467C220.041 74.22 219.963 73.973 219.885 73.7261C219.807 73.4791 219.716 73.2321 219.625 72.9981C219.612 72.9461 219.586 72.9072 219.573 72.8552C219.56 72.8162 219.547 72.7772 219.534 72.7382C219.482 72.5952 219.43 72.4392 219.365 72.2962C219.274 72.0623 219.183 71.8283 219.079 71.5943C219.014 71.4254 218.936 71.2564 218.858 71.0874C218.858 71.0614 218.832 71.0354 218.819 71.0094C218.806 70.9834 218.793 70.9444 218.78 70.9184C218.676 70.6844 218.572 70.4505 218.468 70.2295C218.351 69.9695 218.221 69.7226 218.104 69.4756C218.091 69.4366 218.065 69.3976 218.039 69.3586C218.013 69.3066 217.987 69.2546 217.961 69.2156C217.857 69.0207 217.753 68.8127 217.649 68.6177C217.519 68.3707 217.376 68.1238 217.233 67.8768C217.168 67.7468 217.09 67.6298 217.025 67.4999C216.999 67.4479 216.973 67.3959 216.947 67.3569C216.817 67.1489 216.687 66.9409 216.557 66.733C216.362 66.421 216.18 66.109 215.972 65.8101C215.946 65.7581 215.907 65.7061 215.881 65.6671C215.595 65.2382 215.296 64.8222 214.997 64.4063C214.997 64.4063 214.984 64.3803 214.971 64.3673C214.763 64.0813 214.555 63.8083 214.334 63.5224C214.165 63.3014 213.983 63.0934 213.814 62.8725C213.814 62.8725 213.814 62.8595 213.801 62.8465C213.801 62.8465 213.801 62.8465 213.801 62.8335C213.619 62.6125 213.437 62.4045 213.242 62.1836C213.06 61.9756 212.878 61.7676 212.683 61.5726C212.657 61.5466 212.618 61.5076 212.592 61.4816C212.566 61.4426 212.527 61.4167 212.501 61.3777C212.371 61.2347 212.228 61.0917 212.098 60.9617C211.903 60.7537 211.695 60.5588 211.5 60.3638C211.435 60.3118 211.383 60.2468 211.318 60.1948C211.266 60.1558 211.227 60.1038 211.175 60.0648C211.071 59.9738 210.967 59.8699 210.876 59.7789C210.668 59.5839 210.46 59.4019 210.239 59.2199C210.148 59.1419 210.057 59.064 209.966 58.999C209.914 58.96 209.875 58.921 209.823 58.882C209.745 58.83 209.68 58.765 209.602 58.7C209.394 58.531 209.186 58.375 208.978 58.2191C208.822 58.1021 208.679 57.9981 208.523 57.8941C208.497 57.8681 208.471 57.8551 208.432 57.8291C208.406 57.8161 208.38 57.7901 208.354 57.7771C208.159 57.6341 207.951 57.5042 207.743 57.3742C207.548 57.2442 207.34 57.1272 207.145 57.0102C207.093 56.9842 207.054 56.9582 207.002 56.9322C206.846 56.8412 206.703 56.7633 206.547 56.6723C206.495 56.6463 206.43 56.6073 206.378 56.5813C206.3 56.5423 206.222 56.5033 206.144 56.4643C206.079 56.4383 206.027 56.3993 205.962 56.3733C205.871 56.3213 205.767 56.2823 205.676 56.2303C205.611 56.1913 205.533 56.1653 205.468 56.1393C205.442 56.1393 205.416 56.1133 205.39 56.1003C205.195 56.0094 205.013 55.9314 204.818 55.8534C204.818 55.8534 204.805 55.8534 204.792 55.8534C204.61 55.7754 204.428 55.7104 204.247 55.6454C204.221 55.6454 204.194 55.6324 204.168 55.6194C204.104 55.5934 204.026 55.5674 203.961 55.5544C203.87 55.5284 203.766 55.4894 203.675 55.4634C203.623 55.4504 203.571 55.4374 203.532 55.4244C203.441 55.3984 203.363 55.3724 203.272 55.3594C203.207 55.3464 203.142 55.3204 203.077 55.3074C203.012 55.2944 202.934 55.2814 202.869 55.2554C202.791 55.2425 202.7 55.2165 202.622 55.2035C202.583 55.2035 202.531 55.1775 202.492 55.1775C202.414 55.1645 202.336 55.1515 202.258 55.1385C202.167 55.1255 202.063 55.0995 201.972 55.0865C201.933 55.0865 201.907 55.0865 201.868 55.0735C201.79 55.0735 201.712 55.0605 201.621 55.0475C201.517 55.0475 201.413 55.0215 201.309 55.0215C201.283 55.0215 201.257 55.0215 201.218 55.0215C201.153 55.0215 201.075 55.0215 201.01 55.0215C200.893 55.0215 200.763 55.0215 200.646 55.0215C200.607 55.0215 200.581 55.0215 200.542 55.0215C200.49 55.0215 200.438 55.0215 200.386 55.0215C200.23 55.0215 200.087 55.0215 199.931 55.0475C199.892 55.0475 199.84 55.0475 199.801 55.0475C199.762 55.0475 199.736 55.0475 199.697 55.0605C199.476 55.0865 199.255 55.1125 199.034 55.1515C199.008 55.1515 198.995 55.1515 198.969 55.1515C198.657 55.2165 198.358 55.3074 198.059 55.3984C198.033 55.3984 198.007 55.4114 197.981 55.4244C197.955 55.4244 197.942 55.4374 197.916 55.4504C197.786 55.5024 197.656 55.5544 197.539 55.6064C197.474 55.6324 197.422 55.6584 197.357 55.6844C197.175 55.7754 196.993 55.8664 196.824 55.9574L192.963 58.2061C193.132 58.1021 193.314 58.0111 193.496 57.9331C193.561 57.9071 193.613 57.8811 193.678 57.8551C193.808 57.8031 193.925 57.7511 194.055 57.6991C194.107 57.6861 194.146 57.6731 194.198 57.6471C194.497 57.5432 194.796 57.4652 195.108 57.4002C195.134 57.4002 195.16 57.4002 195.186 57.4002C195.407 57.3612 195.628 57.3222 195.849 57.3092C195.927 57.3092 196.005 57.2962 196.083 57.2832C196.226 57.2832 196.382 57.2702 196.538 57.2572C196.629 57.2572 196.707 57.2572 196.798 57.2572C196.915 57.2572 197.045 57.2572 197.162 57.2572C197.266 57.2572 197.357 57.2572 197.461 57.2702C197.565 57.2702 197.669 57.2962 197.773 57.2962C197.89 57.2962 197.994 57.3222 198.111 57.3352C198.202 57.3482 198.306 57.3612 198.397 57.3872C198.514 57.4132 198.644 57.4262 198.761 57.4522C198.839 57.4652 198.93 57.4912 199.008 57.5042C199.138 57.5302 199.268 57.5692 199.398 57.6081C199.476 57.6341 199.567 57.6471 199.658 57.6731C199.801 57.7121 199.944 57.7641 200.087 57.8031C200.152 57.8291 200.23 57.8421 200.295 57.8681C200.503 57.9461 200.711 58.0111 200.919 58.1021C200.919 58.1021 200.932 58.1021 200.945 58.1021C201.166 58.1931 201.387 58.2841 201.595 58.388C201.66 58.414 201.725 58.453 201.803 58.479C201.959 58.557 202.115 58.635 202.271 58.713C202.349 58.752 202.427 58.791 202.505 58.83C202.713 58.934 202.921 59.051 203.129 59.1679C203.61 59.4409 204.091 59.7529 204.558 60.0778C204.584 60.1038 204.61 60.1168 204.649 60.1428C205.091 60.4548 205.52 60.7797 205.949 61.1177C206.001 61.1567 206.04 61.1957 206.092 61.2347C206.508 61.5726 206.911 61.9236 207.314 62.3005C207.366 62.3395 207.405 62.3915 207.457 62.4305C207.86 62.8075 208.263 63.2104 208.653 63.6264C208.679 63.6654 208.718 63.6914 208.744 63.7303C209.16 64.1723 209.563 64.6272 209.953 65.1082C209.953 65.1082 209.953 65.1212 209.966 65.1342C210.369 65.6151 210.759 66.109 211.123 66.616C211.123 66.616 211.136 66.642 211.149 66.655C211.487 67.1099 211.812 67.5778 212.124 68.0588C212.319 68.3577 212.514 68.6697 212.709 68.9817C212.865 69.2416 213.034 69.4886 213.19 69.7486C213.268 69.8785 213.333 69.9955 213.398 70.1255C213.645 70.5675 213.892 71.0094 214.126 71.4643C214.152 71.5163 214.178 71.5683 214.204 71.6073C214.477 72.1533 214.737 72.7122 214.984 73.2711C214.984 73.2971 215.01 73.3231 215.023 73.3491C215.257 73.895 215.478 74.454 215.686 74.9999C215.699 75.0389 215.712 75.0779 215.725 75.1169C215.933 75.6888 216.128 76.2477 216.297 76.8196C216.297 76.8456 216.31 76.8846 216.323 76.9106C216.492 77.4566 216.635 78.0155 216.765 78.5614C216.765 78.6134 216.791 78.6654 216.804 78.7174C216.934 79.2763 217.038 79.8483 217.129 80.3942C217.129 80.3942 217.129 80.4202 217.129 80.4332C217.22 80.9921 217.285 81.564 217.337 82.11C217.337 82.149 217.337 82.2009 217.337 82.2399C217.376 82.7989 217.402 83.3448 217.402 83.8907L217.376 94.8613C217.376 95.0563 217.363 95.2383 217.324 95.3942C217.324 95.3942 217.324 95.3942 217.324 95.4072C217.285 95.5632 217.246 95.7192 217.181 95.8492C217.129 95.9662 217.064 96.0571 216.999 96.1351C216.973 96.1611 216.96 96.2001 216.934 96.2261C216.856 96.3171 216.765 96.3951 216.661 96.4471L220.522 94.1984C220.626 94.1334 220.717 94.0554 220.795 93.9774C220.821 93.9514 220.847 93.9254 220.86 93.8864C220.886 93.8474 220.925 93.8214 220.951 93.7694C220.99 93.7174 221.016 93.6525 221.042 93.6005C221.055 93.5615 221.081 93.5225 221.094 93.4705C221.107 93.4315 221.12 93.3795 221.133 93.3405C221.133 93.3015 221.159 93.2625 221.172 93.2105C221.172 93.1975 221.172 93.1715 221.172 93.1585C221.172 93.1585 221.172 93.1585 221.172 93.1455C221.172 93.1325 221.172 93.1065 221.172 93.0935C221.172 93.0545 221.172 93.0155 221.185 92.9765C221.185 92.9375 221.185 92.8986 221.185 92.8596C221.185 92.8206 221.185 92.7816 221.185 92.7426C221.185 92.7036 221.185 92.6646 221.185 92.6256L221.211 81.655C221.211 81.447 221.211 81.2261 221.211 81.0051H221.237Z" fill="#F5E8DB" stroke="black" stroke-miterlimit="10"/>
<path d="M203.116 59.1669C211.019 63.7293 217.415 74.8169 217.389 83.8897L217.363 94.8603C217.363 96.4461 216.232 97.083 214.854 96.2901C213.463 95.4842 212.345 93.5604 212.358 91.9617L212.384 80.9911C212.397 75.0898 208.238 67.8758 203.103 64.9122C197.968 61.9486 193.769 64.3402 193.756 70.2415L193.73 81.212C193.73 82.7978 192.599 83.4348 191.221 82.6419C189.83 81.836 188.712 79.9122 188.725 78.3134L188.751 67.3429C188.777 58.27 195.225 54.5915 203.116 59.1539V59.1669Z" fill="#FCD475" stroke="black" stroke-miterlimit="10"/>
<path d="M202.674 100.294C202.765 100.268 202.843 100.242 202.921 100.242C202.921 100.242 202.934 100.242 202.947 100.242C203.038 100.242 203.116 100.242 203.194 100.255C203.272 100.268 203.35 100.294 203.415 100.333L199.931 98.3055C199.905 98.2925 199.879 98.2795 199.853 98.2665C199.827 98.2665 199.801 98.2405 199.775 98.2405C199.762 98.2405 199.736 98.2405 199.723 98.2405C199.723 98.2405 199.71 98.2405 199.697 98.2405C199.671 98.2405 199.632 98.2405 199.606 98.2405C199.567 98.2405 199.541 98.2405 199.502 98.2405H199.476C199.476 98.2405 199.463 98.2405 199.45 98.2405C199.424 98.2405 199.411 98.2405 199.385 98.2405C199.346 98.2405 199.294 98.2535 199.255 98.2665C199.242 98.2665 199.216 98.2795 199.203 98.2795C199.19 98.2795 199.164 98.2795 199.151 98.2925C199.125 98.2925 199.099 98.3055 199.086 98.3185C199.021 98.3445 198.943 98.3835 198.878 98.4225L158.787 121.559L162.271 123.587L202.362 100.45C202.466 100.398 202.557 100.359 202.648 100.32C202.661 100.32 202.687 100.307 202.7 100.307L202.674 100.294Z" fill="#FFEFD4" stroke="black" stroke-miterlimit="10"/>
<path d="M156.72 133.699C156.72 130.476 155.563 128.201 153.731 127.135L150.247 125.107C152.093 126.173 153.224 128.448 153.237 131.672C153.237 132.049 153.224 132.425 153.198 132.802C153.198 132.919 153.172 133.049 153.159 133.166C153.133 133.413 153.107 133.66 153.068 133.894C153.029 134.167 152.977 134.44 152.925 134.713C152.886 134.895 152.86 135.09 152.821 135.272C152.782 135.441 152.743 135.623 152.691 135.792C152.626 136.039 152.561 136.273 152.496 136.52C152.457 136.663 152.405 136.806 152.366 136.949C152.275 137.222 152.184 137.495 152.093 137.768C152.054 137.885 152.015 137.989 151.976 138.106C151.833 138.483 151.69 138.86 151.521 139.224C151.508 139.263 151.482 139.315 151.456 139.354C151.313 139.692 151.157 140.016 150.988 140.341C150.936 140.445 150.884 140.549 150.832 140.653C150.676 140.965 150.507 141.264 150.338 141.576C150.299 141.641 150.273 141.693 150.234 141.758C150.026 142.109 149.818 142.46 149.584 142.811C149.519 142.915 149.454 143.006 149.389 143.11C149.22 143.357 149.051 143.604 148.882 143.838C148.791 143.968 148.687 144.098 148.596 144.228C148.44 144.423 148.284 144.631 148.128 144.813C147.998 144.982 147.868 145.138 147.725 145.294C147.595 145.45 147.465 145.593 147.335 145.736C147.114 145.983 146.893 146.23 146.659 146.464C146.516 146.607 146.373 146.75 146.23 146.893C146.113 146.997 145.996 147.114 145.879 147.218C145.684 147.387 145.502 147.556 145.307 147.724C145.19 147.815 145.073 147.919 144.956 148.01C144.748 148.179 144.527 148.335 144.319 148.491C144.215 148.569 144.111 148.647 144.007 148.712C143.682 148.933 143.357 149.141 143.032 149.336C142.72 149.518 142.408 149.674 142.096 149.817C142.018 149.856 141.94 149.895 141.862 149.921C141.563 150.051 141.264 150.181 140.978 150.272C140.952 150.272 140.939 150.272 140.913 150.285C140.666 150.363 140.419 150.428 140.172 150.493C140.029 150.532 139.899 150.558 139.756 150.584C139.574 150.623 139.392 150.649 139.21 150.662C139.106 150.662 139.002 150.688 138.911 150.688C138.69 150.701 138.469 150.714 138.248 150.688C138.196 150.688 138.157 150.688 138.105 150.688C137.845 150.675 137.598 150.636 137.351 150.597C137.286 150.597 137.234 150.571 137.169 150.558C136.974 150.519 136.792 150.454 136.61 150.402C136.558 150.376 136.493 150.363 136.441 150.337C136.207 150.246 135.986 150.142 135.765 150.012L139.249 152.04C139.249 152.04 139.288 152.066 139.301 152.066C139.47 152.157 139.639 152.248 139.821 152.313C139.847 152.326 139.886 152.339 139.925 152.352C139.977 152.378 140.042 152.391 140.094 152.417C140.185 152.443 140.276 152.482 140.367 152.508C140.458 152.534 140.562 152.547 140.666 152.573C140.731 152.586 140.783 152.599 140.848 152.612C140.887 152.612 140.913 152.625 140.952 152.638C141.16 152.677 141.355 152.703 141.576 152.716C141.576 152.716 141.602 152.716 141.615 152.716C141.667 152.716 141.706 152.716 141.758 152.716C141.927 152.716 142.083 152.716 142.252 152.716C142.304 152.716 142.369 152.716 142.421 152.703C142.525 152.703 142.629 152.69 142.72 152.677C142.824 152.677 142.915 152.664 143.006 152.651C143.084 152.651 143.175 152.612 143.253 152.599C143.396 152.573 143.526 152.547 143.669 152.508C143.747 152.495 143.825 152.482 143.903 152.456C144.072 152.404 144.241 152.352 144.41 152.3C144.436 152.3 144.449 152.3 144.475 152.287C144.683 152.222 144.891 152.131 145.112 152.053C145.19 152.014 145.281 151.975 145.359 151.936C145.437 151.897 145.515 151.858 145.593 151.832C145.905 151.689 146.217 151.533 146.529 151.351C146.854 151.156 147.179 150.948 147.504 150.727C147.608 150.649 147.712 150.571 147.816 150.506C148.037 150.35 148.245 150.194 148.453 150.025C148.57 149.934 148.687 149.83 148.804 149.739C148.999 149.57 149.194 149.401 149.376 149.232C149.493 149.128 149.61 149.024 149.714 148.907C149.779 148.842 149.857 148.777 149.922 148.712C150 148.634 150.065 148.556 150.143 148.478C150.377 148.244 150.598 147.997 150.819 147.75C150.884 147.672 150.962 147.594 151.04 147.517C151.105 147.452 151.157 147.374 151.222 147.296C151.352 147.14 151.495 146.971 151.625 146.815C151.703 146.711 151.794 146.607 151.885 146.503C151.95 146.412 152.015 146.321 152.093 146.23C152.184 146.1 152.288 145.97 152.379 145.84C152.444 145.749 152.509 145.671 152.574 145.58C152.678 145.424 152.782 145.268 152.886 145.112C152.951 145.008 153.016 144.917 153.081 144.813C153.107 144.774 153.133 144.735 153.159 144.696C153.341 144.41 153.523 144.124 153.692 143.825C153.692 143.799 153.718 143.786 153.731 143.76C153.77 143.695 153.796 143.63 153.835 143.578C153.952 143.37 154.069 143.162 154.172 142.954C154.224 142.85 154.276 142.759 154.328 142.655C154.38 142.551 154.432 142.447 154.484 142.343C154.523 142.252 154.575 142.161 154.614 142.07C154.731 141.836 154.835 141.589 154.939 141.342C154.952 141.303 154.978 141.251 155.004 141.212C155.004 141.212 155.004 141.186 155.017 141.173C155.147 140.874 155.277 140.562 155.394 140.25C155.42 140.198 155.433 140.133 155.459 140.081C155.498 139.964 155.537 139.861 155.576 139.744C155.628 139.588 155.693 139.432 155.745 139.276C155.784 139.159 155.81 139.042 155.849 138.925C155.888 138.782 155.94 138.639 155.979 138.496C156.005 138.405 156.031 138.314 156.057 138.236C156.096 138.08 156.135 137.924 156.174 137.768C156.213 137.599 156.265 137.417 156.304 137.248C156.317 137.183 156.33 137.118 156.356 137.066C156.382 136.936 156.395 136.819 156.421 136.689C156.473 136.416 156.525 136.143 156.564 135.87C156.564 135.792 156.59 135.714 156.603 135.636C156.629 135.467 156.642 135.298 156.655 135.129C156.655 135.012 156.681 134.895 156.694 134.765C156.72 134.388 156.746 134.011 156.733 133.634L156.72 133.699Z" fill="black"/>
<path d="M158.241 118.922C158.306 118.961 158.371 118.987 158.436 119.026L154.952 116.998C154.952 116.998 154.887 116.959 154.861 116.946C154.822 116.92 154.783 116.907 154.757 116.894C154.549 116.777 154.341 116.686 154.133 116.582C154.094 116.569 154.055 116.543 154.016 116.53C153.99 116.517 153.951 116.504 153.912 116.491C153.665 116.387 153.405 116.296 153.132 116.218C153.132 116.218 153.119 116.218 153.106 116.218C152.833 116.14 152.547 116.075 152.261 116.023C152.222 116.023 152.196 116.01 152.157 115.997C152.118 115.997 152.066 115.997 152.027 115.984C151.78 115.945 151.52 115.919 151.26 115.893C151.221 115.893 151.182 115.893 151.143 115.88C151.13 115.88 151.117 115.88 151.104 115.88C150.792 115.867 150.454 115.854 150.129 115.88C150.09 115.88 150.064 115.88 150.038 115.88C149.999 115.88 149.947 115.88 149.908 115.88C149.532 115.906 149.168 115.932 148.778 115.997C148.531 116.036 148.271 116.088 148.024 116.14C147.946 116.153 147.855 116.179 147.777 116.205C147.621 116.244 147.465 116.283 147.296 116.322C147.283 116.322 147.27 116.322 147.244 116.335C146.945 116.413 146.646 116.504 146.334 116.608C146.282 116.634 146.217 116.647 146.165 116.673C145.918 116.764 145.671 116.855 145.411 116.959C145.385 116.959 145.346 116.985 145.32 116.998C145.255 117.024 145.203 117.05 145.138 117.076C144.865 117.193 144.592 117.31 144.319 117.453C144.215 117.505 144.111 117.544 144.02 117.596C143.669 117.778 143.305 117.96 142.941 118.168C142.395 118.48 141.862 118.831 141.329 119.195C141.16 119.312 140.991 119.442 140.822 119.572C140.471 119.831 140.107 120.091 139.756 120.377C139.561 120.533 139.366 120.689 139.184 120.858C138.859 121.131 138.547 121.404 138.235 121.69C138.04 121.859 137.858 122.041 137.663 122.223C137.546 122.34 137.429 122.431 137.312 122.548C137 122.86 136.688 123.185 136.376 123.51C136.064 123.835 135.765 124.173 135.466 124.511C135.362 124.628 135.271 124.745 135.18 124.862C134.959 125.122 134.738 125.395 134.517 125.668C134.374 125.837 134.231 126.006 134.088 126.188C133.971 126.331 133.867 126.487 133.75 126.643C133.594 126.851 133.438 127.072 133.282 127.28C133.178 127.422 133.061 127.565 132.957 127.708C132.775 127.968 132.606 128.228 132.437 128.488C132.333 128.657 132.216 128.813 132.112 128.982C132.073 129.047 132.021 129.112 131.982 129.177C131.683 129.645 131.384 130.126 131.111 130.607C131.098 130.633 131.072 130.672 131.059 130.711C131.007 130.815 130.942 130.919 130.89 131.01C130.695 131.348 130.5 131.686 130.318 132.037C130.227 132.193 130.149 132.362 130.071 132.518C129.98 132.687 129.902 132.856 129.811 133.025C129.733 133.168 129.655 133.324 129.59 133.467C129.395 133.857 129.226 134.26 129.044 134.65C129.005 134.728 128.979 134.793 128.94 134.871C128.94 134.897 128.914 134.91 128.914 134.936C128.693 135.442 128.485 135.949 128.29 136.456C128.251 136.547 128.225 136.638 128.186 136.729C128.121 136.911 128.056 137.093 127.991 137.288C127.9 137.548 127.796 137.795 127.718 138.055C127.653 138.25 127.601 138.445 127.536 138.64C127.458 138.874 127.393 139.108 127.328 139.342C127.289 139.485 127.237 139.641 127.198 139.784C127.133 140.044 127.081 140.291 127.016 140.551C126.938 140.837 126.873 141.123 126.808 141.422C126.782 141.526 126.756 141.63 126.73 141.734C126.626 142.202 126.548 142.683 126.47 143.15C126.457 143.241 126.444 143.345 126.431 143.436C126.392 143.644 126.366 143.865 126.34 144.073C126.301 144.359 126.288 144.632 126.262 144.905C126.249 145.1 126.223 145.308 126.21 145.503C126.158 146.127 126.132 146.751 126.132 147.362C126.145 152.678 128.03 156.435 131.072 158.189L134.556 160.217C131.514 158.449 129.629 154.706 129.616 149.39C129.616 148.779 129.642 148.155 129.694 147.531C129.707 147.336 129.733 147.128 129.746 146.933C129.798 146.439 129.85 145.958 129.928 145.464C129.941 145.373 129.954 145.269 129.967 145.178C130.058 144.606 130.175 144.034 130.305 143.462C130.37 143.176 130.448 142.89 130.513 142.592C130.617 142.189 130.721 141.786 130.838 141.383C130.903 141.149 130.981 140.915 131.046 140.681C131.189 140.226 131.345 139.784 131.501 139.329C131.566 139.147 131.631 138.952 131.696 138.77C131.93 138.146 132.177 137.535 132.45 136.911C132.489 136.833 132.515 136.755 132.554 136.69C132.801 136.144 133.048 135.598 133.321 135.066C133.412 134.897 133.49 134.728 133.581 134.559C133.841 134.052 134.114 133.545 134.4 133.038C134.452 132.934 134.504 132.843 134.569 132.739C134.907 132.154 135.271 131.569 135.635 131.01C135.739 130.841 135.856 130.685 135.96 130.516C136.233 130.113 136.506 129.71 136.792 129.307C136.948 129.086 137.104 128.878 137.26 128.67C137.507 128.345 137.767 128.02 138.027 127.695C138.248 127.422 138.469 127.15 138.69 126.89C139.08 126.422 139.483 125.967 139.886 125.538C140.302 125.096 140.744 124.667 141.173 124.251C141.355 124.069 141.55 123.9 141.745 123.718C142.057 123.432 142.382 123.159 142.694 122.886C142.889 122.73 143.071 122.561 143.266 122.405C143.617 122.132 143.968 121.859 144.332 121.612C144.501 121.495 144.67 121.365 144.839 121.235C145.372 120.871 145.905 120.52 146.451 120.208C146.815 120 147.166 119.805 147.53 119.637C147.634 119.585 147.738 119.533 147.829 119.494C148.102 119.364 148.375 119.234 148.648 119.117C148.739 119.078 148.83 119.039 148.921 119C149.168 118.896 149.428 118.805 149.675 118.714C149.727 118.688 149.792 118.675 149.856 118.649C150.155 118.545 150.467 118.454 150.766 118.376C150.948 118.324 151.117 118.285 151.286 118.246C151.364 118.233 151.455 118.207 151.533 118.181C151.793 118.129 152.04 118.077 152.3 118.038C152.69 117.973 153.054 117.947 153.431 117.921C153.509 117.921 153.587 117.921 153.652 117.921C153.977 117.921 154.302 117.921 154.627 117.921C154.679 117.921 154.731 117.921 154.783 117.934C155.043 117.96 155.303 117.986 155.55 118.025C155.628 118.025 155.706 118.051 155.784 118.064C156.07 118.116 156.356 118.181 156.629 118.259C156.629 118.259 156.642 118.259 156.655 118.259C156.915 118.337 157.175 118.428 157.435 118.532C157.513 118.558 157.578 118.597 157.643 118.623C157.851 118.714 158.072 118.818 158.267 118.935L158.241 118.922Z" fill="#FFEFD4" stroke="black" stroke-miterlimit="10"/>
<path d="M202.336 100.45C203.362 99.8523 204.103 100.58 203.791 101.893L201.894 109.822C201.699 110.654 201.114 111.486 200.451 111.863L189.076 118.427C188.231 118.908 187.555 120.091 187.555 121.052C187.555 122.014 186.879 123.197 186.034 123.678L162.284 137.391C159.879 146.1 153.73 154.861 146.528 159.021C137.208 164.402 129.603 160.06 129.564 149.363C129.538 138.652 137.091 125.563 146.411 120.182C153.613 116.022 159.788 117.673 162.232 123.587L202.323 100.45H202.336ZM146.515 151.378C152.157 148.115 156.733 140.186 156.72 133.713C156.707 127.227 152.092 124.601 146.45 127.864C140.809 131.126 136.233 139.055 136.246 145.541C136.259 152.027 140.874 154.653 146.515 151.391" fill="#FFEFD4"/>
<path d="M146.515 151.378C152.157 148.115 156.733 140.186 156.72 133.713C156.707 127.227 152.092 124.601 146.45 127.864C140.809 131.126 136.233 139.055 136.246 145.541C136.259 152.027 140.874 154.653 146.515 151.391M202.336 100.45C203.362 99.8523 204.103 100.58 203.791 101.893L201.894 109.822C201.699 110.654 201.114 111.486 200.451 111.863L189.076 118.427C188.231 118.908 187.555 120.091 187.555 121.052C187.555 122.014 186.879 123.197 186.034 123.678L162.284 137.391C159.879 146.1 153.73 154.861 146.528 159.021C137.208 164.402 129.603 160.06 129.564 149.363C129.538 138.652 137.091 125.563 146.411 120.182C153.613 116.022 159.788 117.673 162.232 123.587L202.322 100.45H202.336Z" stroke="black" stroke-miterlimit="10"/>
<path d="M173.541 120.728C172.814 121.157 172.203 122.184 172.216 123.029C172.229 123.874 172.827 124.212 173.554 123.796C174.295 123.367 174.893 122.34 174.893 121.482C174.893 120.637 174.282 120.299 173.541 120.715" fill="black"/>
<path d="M173.307 121.559C172.827 121.832 172.437 122.495 172.437 123.041C172.437 123.587 172.827 123.808 173.307 123.535C173.788 123.262 174.178 122.599 174.178 122.04C174.178 121.494 173.788 121.273 173.307 121.546" fill="white"/>
<path d="M177.571 118.374C176.843 118.803 176.232 119.83 176.245 120.675C176.258 121.52 176.856 121.858 177.584 121.442C178.325 121.013 178.923 119.986 178.923 119.128C178.923 118.283 178.312 117.945 177.571 118.361" fill="black"/>
<path d="M177.337 119.205C176.856 119.478 176.466 120.141 176.466 120.687C176.466 121.233 176.856 121.454 177.337 121.181C177.818 120.908 178.208 120.245 178.208 119.686C178.208 119.14 177.818 118.919 177.337 119.192" fill="white"/>
<path d="M181.575 116.087C180.847 116.516 180.236 117.543 180.249 118.388C180.262 119.233 180.86 119.57 181.588 119.155C182.329 118.726 182.927 117.699 182.927 116.841C182.927 115.996 182.316 115.658 181.575 116.074" fill="black"/>
<path d="M181.354 116.918C180.873 117.191 180.483 117.854 180.483 118.4C180.483 118.946 180.873 119.167 181.354 118.894C181.835 118.621 182.225 117.958 182.225 117.399C182.225 116.853 181.835 116.632 181.354 116.905" fill="white"/>
<path d="M185.566 113.773C184.838 114.202 184.227 115.229 184.24 116.074C184.253 116.919 184.851 117.257 185.579 116.841C186.32 116.412 186.918 115.385 186.918 114.527C186.918 113.682 186.307 113.344 185.566 113.76" fill="black"/>
<path d="M185.332 114.604C184.851 114.877 184.461 115.54 184.461 116.086C184.461 116.632 184.851 116.853 185.332 116.58C185.813 116.307 186.203 115.644 186.203 115.085C186.203 114.539 185.813 114.318 185.332 114.591" fill="white"/>
<path d="M189.622 111.408C188.894 111.837 188.283 112.864 188.296 113.708C188.309 114.553 188.907 114.891 189.635 114.475C190.376 114.046 190.974 113.02 190.974 112.162C190.974 111.317 190.363 110.979 189.622 111.395" fill="black"/>
<path d="M189.388 112.239C188.907 112.512 188.517 113.175 188.517 113.72C188.517 114.266 188.907 114.487 189.388 114.214C189.869 113.941 190.259 113.278 190.259 112.72C190.259 112.174 189.869 111.953 189.388 112.226" fill="white"/>
<path d="M193.639 109.107C192.911 109.536 192.3 110.563 192.313 111.408C192.326 112.253 192.924 112.59 193.652 112.175C194.393 111.746 194.991 110.719 194.991 109.861C194.991 109.016 194.38 108.678 193.639 109.094" fill="black"/>
<path d="M193.417 109.938C192.936 110.211 192.546 110.874 192.546 111.42C192.546 111.966 192.936 112.187 193.417 111.914C193.898 111.641 194.288 110.978 194.288 110.419C194.288 109.873 193.898 109.652 193.417 109.925" fill="white"/>
<path d="M169.239 287.9V319.836L218.624 347.848V315.911L169.239 287.9Z" fill="black"/>
<path d="M175.869 293.618V315.911L216.661 339.009V316.638L175.869 293.618Z" fill="#E8BB50"/>
<path d="M182.017 304.447L211.045 320.863" stroke="black" stroke-miterlimit="10"/>
<path d="M182.018 311.389L211.046 327.806" stroke="black" stroke-miterlimit="10"/>
<path d="M344.512 103.44V177.881L412.902 138.327V64.3538L344.512 103.44Z" fill="#FFEFD4" stroke="black" stroke-miterlimit="10"/>
<path d="M388.372 98.7336H382.938L355.418 131.931L344.473 120.532V116.502H339.039L333.878 121.455L354.118 142.512H359.552L359.305 138.365L388.372 98.7336Z" fill="black" stroke="#111010" stroke-miterlimit="10"/>
<path d="M359.552 142.512L339.312 121.455L344.472 116.502L359.305 131.931L388.372 98.7336L393.754 103.439L359.552 142.512Z" fill="#FCD475" stroke="black" stroke-miterlimit="10"/>
</g>
<g clip-path="url(#clip2_122_10964)">
<path d="M88.4132 72.6036L13.8791 28.2397C11.1801 26.6358 8.72128 26.4873 6.93476 27.5566L3.73633 29.4772C5.51324 28.408 7.97209 28.5565 10.6711 30.1604L85.2148 74.5144C90.5839 77.7122 94.9638 85.5336 94.9542 91.8896L94.5508 109.532C94.5508 112.69 93.4462 114.928 91.6885 115.977L94.8869 114.057C96.6446 113.007 97.7396 110.77 97.7492 107.612L98.1526 89.969C98.1718 83.6129 93.792 75.7915 88.4132 72.5937V72.6036Z" fill="#FFEFD4" stroke="black" stroke-miterlimit="10"/>
<path d="M10.6805 30.1599C5.31131 26.9621 0.90266 29.556 0.88345 35.9121L0.480043 53.5547C0.460834 59.9207 4.84067 67.742 10.2098 70.9398L84.7439 115.304C90.1131 118.502 94.5217 115.908 94.5409 109.552L94.9444 91.909C94.9636 85.5529 90.5837 77.7316 85.205 74.5337L10.6805 30.1599Z" fill="white"/>
<path d="M10.6805 30.1599C5.31131 26.9621 0.90266 29.556 0.88345 35.9121L0.480043 53.5547C0.460834 59.9207 4.84067 67.742 10.2098 70.9398L84.7439 115.304C90.1131 118.502 94.5217 115.908 94.5409 109.552L94.9444 91.909C94.9636 85.5529 90.5837 77.7316 85.205 74.5337L10.6805 30.1599Z" stroke="black" stroke-miterlimit="10"/>
<path d="M74.4243 75.8591C68.4272 72.3753 63.544 75.161 63.523 82.1146C63.502 89.047 68.3571 97.5098 74.3542 100.994C80.3514 104.477 85.2345 101.671 85.2555 94.7382C85.2766 87.7846 80.4214 79.3359 74.4243 75.8521V75.8591Z" fill="#AAD1CD" stroke="#111010" stroke-miterlimit="10"/>
<path d="M72.8386 84.533L71.5129 90.7556L78.9613 91.1789C78.9613 91.1789 72.954 84.0246 72.8386 84.533Z" fill="#111010"/>
<path d="M24.5019 62.1098C23.0707 61.2584 21.9085 61.9415 21.8989 63.6345C21.8989 65.3274 23.0515 67.3966 24.4826 68.2481L52.6731 85.0293C54.1042 85.8808 55.2664 85.1976 55.276 83.5047C55.276 81.8117 54.1234 79.7425 52.6923 78.8911L24.5019 62.1197V62.1098Z" fill="#CCCCCC" stroke="black" stroke-miterlimit="10"/>
<path d="M7.3666 40.8041C5.93547 39.9527 4.77328 40.6358 4.76367 42.3288C4.76367 44.0218 5.91626 46.091 7.34739 46.9424L52.7018 73.931C54.1329 74.7825 55.2951 74.0993 55.3047 72.4063C55.3047 70.7134 54.1521 68.6442 52.721 67.7927L7.3666 40.8041Z" fill="#CCCCCC" stroke="black" stroke-miterlimit="10"/>
</g>
<g clip-path="url(#clip3_122_10964)">
<path d="M63.1084 118.424L13.1367 88.8478C11.3272 87.7785 9.67861 87.6795 8.48083 88.3924L6.33643 89.6728C7.52776 88.96 9.17631 89.059 10.9859 90.1282L60.964 119.698C64.5638 121.829 67.5003 127.044 67.4939 131.281L67.2234 143.043C67.2234 145.148 66.4828 146.64 65.3044 147.34L67.4488 146.059C68.6272 145.36 69.3614 143.868 69.3678 141.762L69.6383 130.001C69.6511 125.763 66.7147 120.549 63.1084 118.417V118.424Z" fill="#FFEFD4" stroke="black" stroke-miterlimit="10"/>
<path d="M10.9923 90.1279C7.39251 87.996 4.43671 89.7253 4.42383 93.9627L4.15336 105.724C4.14048 109.968 7.07697 115.183 10.6767 117.315L60.6485 146.89C64.2482 149.022 67.204 147.293 67.2169 143.056L67.4874 131.294C67.5003 127.057 64.5638 121.842 60.9576 119.71L10.9923 90.1279Z" fill="white"/>
<path d="M10.9923 90.1279C7.39251 87.996 4.43671 89.7253 4.42383 93.9627L4.15336 105.724C4.14048 109.968 7.07697 115.183 10.6767 117.315L60.6485 146.89C64.2482 149.022 67.204 147.293 67.2169 143.056L67.4874 131.294C67.5003 127.057 64.5638 121.842 60.9576 119.71L10.9923 90.1279Z" stroke="black" stroke-miterlimit="10"/>
<path d="M53.7298 120.594C49.709 118.272 46.435 120.129 46.4209 124.765C46.4069 129.386 49.662 135.028 53.6828 137.351C57.7036 139.673 60.9775 137.802 60.9916 133.18C61.0057 128.545 57.7506 122.912 53.7298 120.59V120.594Z" fill="#AAD1CD" stroke="#111010" stroke-miterlimit="10"/>
<path d="M52.6668 126.377L51.778 130.525L56.7717 130.807C56.7717 130.807 52.7442 126.038 52.6668 126.377Z" fill="#111010"/>
<path d="M20.2588 111.428C19.2993 110.86 18.5201 111.316 18.5137 112.445C18.5137 113.573 19.2864 114.953 20.2459 115.52L39.1463 126.708C40.1058 127.275 40.885 126.82 40.8915 125.691C40.8915 124.563 40.1187 123.183 39.1592 122.616L20.2588 111.435V111.428Z" fill="#CCCCCC" stroke="black" stroke-miterlimit="10"/>
<path d="M8.77054 97.2242C7.81103 96.6566 7.03183 97.112 7.02539 98.2407C7.02539 99.3693 7.79815 100.749 8.75766 101.316L39.1657 119.309C40.1252 119.876 40.9044 119.421 40.9109 118.292C40.9109 117.164 40.1381 115.784 39.1786 115.217L8.77054 97.2242Z" fill="#CCCCCC" stroke="black" stroke-miterlimit="10"/>
</g>
<defs>
<clipPath id="clip0_122_10964">
<rect width="301.811" height="421.613" fill="white" transform="translate(111.742)"/>
</clipPath>
<clipPath id="clip1_122_10964">
<rect width="64.226" height="52.7571" fill="white" transform="translate(290.166 196.119)"/>
</clipPath>
<clipPath id="clip2_122_10964">
<rect width="98.6328" height="90.787" fill="white" transform="translate(0 26.3787)"/>
</clipPath>
<clipPath id="clip3_122_10964">
<rect width="66.1288" height="60.5247" fill="white" transform="translate(3.83154 87.6072)"/>
</clipPath>
</defs>
</svg>
